<svg xmlns="http://www.w3.org/2000/svg" width="85" height="57" viewBox="0 0 85 57"><path fill="#75AADB" d="M-.02.307h85.04v56.693h-85.04z"/><path fill="#FFF" d="M-.02 19.206h85.04v18.898h-85.04z"/><path fill="#84371B" d="M50.498 28.645c-.002-.08-.06-.17-.183-.178l-4.218-.17c.67-.208 1.238-.37 1.588-.37l.098.005.248.014c.54 0 .99-.205 1.317-.355l.316-.132c.092-.03.182-.043.27-.043.133 0 .236.03.285.06l.094.028c.067 0 .127-.04.15-.102.023-.067 0-.14-.064-.195-.1-.085-.352-.23-.666-.23l-.233.027c-.156.037-.295.094-.443.154-.275.112-.56.23-.98.23l-.383-.03-.205-.014c-.423 0-1.02.144-1.665.314l3.965-1.83c.084-.044.125-.13.105-.215-.02-.08-.09-.134-.172-.134l-.074.012-3.962 1.46c.59-.492 1.098-.894 1.418-.983.633-.18 1.026-.605 1.314-.914l.242-.244c.216-.183.42-.197.477-.197h.042l.027.003c.083 0 .15-.056.165-.134.01-.065-.02-.15-.133-.19-.035-.01-.133-.038-.28-.038-.16 0-.4.035-.628.2-.13.09-.236.197-.35.308-.27.27-.55.55-1.184.706-.413.104-.99.52-1.61.994l2.962-3.21c.053-.06.064-.14.033-.205-.03-.063-.092-.104-.16-.104l-.133.056-3.102 2.862c.36-.682.674-1.245.934-1.45.518-.408.72-.952.865-1.35l.13-.317c.128-.25.32-.356.406-.378.086-.022.14-.098.13-.18-.01-.074-.073-.148-.198-.14-.172.015-.555.135-.777.495-.08.135-.142.273-.202.42-.148.354-.3.718-.824 1.105-.342.255-.715.858-1.11 1.536l1.51-4.1c.022-.064.013-.128-.022-.177-.035-.046-.09-.075-.146-.075-.07 0-.13.043-.166.115l-1.77 3.832c.07-.768.145-1.407.308-1.697.32-.574.298-1.154.283-1.577v-.344c.02-.28.16-.453.228-.505.063-.048.088-.122.064-.19-.02-.064-.08-.104-.148-.104l-.1.025c-.152.08-.46.337-.53.755-.023.156-.024.308-.025.467-.003.382-.005.776-.34 1.336-.22.366-.332 1.067-.437 1.843l-.175-4.364c-.008-.12-.1-.182-.186-.182-.08 0-.17.06-.178.184l-.17 4.22c-.227-.737-.402-1.357-.365-1.687.077-.653-.166-1.182-.343-1.565l-.133-.316c-.086-.27-.025-.48.02-.556.033-.057.035-.12.004-.174-.025-.05-.078-.078-.133-.078-.053 0-.104.025-.145.074-.11.13-.296.486-.2.898.036.154.095.293.153.44.146.355.295.72.2 1.364-.064.423.1 1.113.3 1.87l-1.828-3.974c-.034-.067-.097-.108-.17-.108-.056 0-.11.027-.144.073-.036.05-.043.112-.02.18l1.457 3.96c-.492-.593-.89-1.098-.982-1.417-.177-.635-.603-1.027-.913-1.316l-.244-.242c-.182-.215-.207-.434-.195-.52l-.04-.14-.116-.056c-.06 0-.13.037-.164.137-.053.163-.088.564.16.907.092.13.197.236.31.35.27.27.548.553.706 1.184.104.415.52.99.994 1.612l-3.213-2.964-.13-.05c-.07 0-.134.042-.163.106-.03.065-.018.14.037.203l2.863 3.1c-.682-.358-1.244-.672-1.45-.933-.407-.516-.95-.718-1.348-.865l-.32-.13c-.248-.13-.356-.32-.378-.405-.02-.08-.084-.132-.16-.132l-.112.048-.046.15c.013.172.134.555.493.777.135.084.275.142.422.203.352.15.717.3 1.104.824.255.342.858.716 1.536 1.11l-4.1-1.506-.066-.01c-.086 0-.16.056-.18.14-.02.083.023.164.11.206l3.83 1.77c-.766-.07-1.405-.145-1.696-.307-.467-.263-.943-.292-1.262-.292l-.314.008-.344.002c-.28-.023-.454-.162-.506-.23-.035-.046-.084-.072-.14-.072l-.132.074c-.03.05-.03.117.002.182.078.153.338.46.756.53.155.024.307.024.467.026.382 0 .775.002 1.335.338.365.22 1.066.332 1.842.437l-4.366.175c-.117.01-.18.102-.178.187 0 .08.057.17.182.178l4.22.168c-.672.208-1.24.372-1.59.372l-.097-.006-.248-.016c-.542 0-.99.207-1.32.357l-.315.133c-.09.03-.182.043-.27.043-.133 0-.234-.03-.285-.063l-.092-.025c-.068 0-.13.04-.15.102-.025.068 0 .14.064.197.1.084.35.23.664.23l.234-.028c.154-.037.295-.094.443-.154.273-.11.557-.23.98-.23l.38.03.208.014c.42 0 1.017-.145 1.665-.314l-3.967 1.832c-.082.043-.125.127-.104.213.02.08.088.135.17.135l.074-.012 3.963-1.46c-.592.493-1.1.894-1.417.983-.633.18-1.027.605-1.316.914l-.24.246c-.217.182-.42.197-.477.197l-.045-.004-.027-.002c-.082 0-.152.057-.165.135-.01.062.02.15.134.187.035.012.132.04.277.04.162 0 .403-.036.63-.2.128-.092.235-.197.35-.31.27-.27.552-.548 1.183-.706.414-.103.99-.52 1.613-.99l-2.965 3.208c-.05.063-.064.14-.032.205.03.064.092.105.16.105l.132-.055 3.102-2.863c-.36.682-.672 1.244-.934 1.45-.516.407-.717.952-.864 1.35l-.13.317c-.13.25-.323.357-.407.38-.086.02-.14.097-.13.18.008.07.065.138.176.138h.02c.172-.014.555-.133.778-.494.083-.134.142-.272.204-.42.146-.353.3-.716.822-1.104.343-.254.717-.857 1.11-1.535l-1.51 4.1c-.02.065-.01.128.024.177.034.047.088.074.146.074.07 0 .132-.04.167-.112l1.772-3.832c-.072.768-.146 1.408-.31 1.697-.32.574-.3 1.154-.282 1.578l.002.343c-.023.28-.16.455-.23.506-.06.046-.086.12-.063.188.02.064.078.105.148.105l.1-.025c.15-.078.46-.336.527-.756.025-.154.026-.307.027-.465 0-.383.004-.777.338-1.336.22-.366.332-1.067.438-1.843l.174 4.365c.01.12.102.18.186.18.08 0 .17-.055.18-.182l.168-4.217c.23.736.404 1.355.365 1.684-.075.654.167 1.182.343 1.566l.133.316c.086.27.027.48-.018.554-.033.057-.035.12-.006.174.027.05.078.078.134.078.052 0 .104-.025.144-.072.112-.13.297-.488.2-.9-.035-.154-.093-.293-.153-.44-.145-.355-.293-.722-.198-1.364.06-.422-.104-1.113-.3-1.87l1.83 3.968c.034.066.097.11.17.11.058 0 .11-.028.144-.075.037-.05.043-.11.02-.178l-1.458-3.96c.492.59.893 1.097.982 1.415.18.633.605 1.027.915 1.316l.245.24c.182.215.207.436.194.52l.038.142.12.055c.056 0 .13-.037.16-.137.056-.162.09-.563-.157-.906-.094-.13-.2-.236-.31-.35-.27-.27-.548-.553-.708-1.184-.104-.414-.52-.99-.994-1.61l3.212 2.962.13.05c.07 0 .136-.042.165-.106s.016-.14-.04-.203l-2.862-3.103c.682.36 1.244.674 1.45.934.408.517.952.72 1.35.866l.317.13c.25.13.357.32.38.405.02.08.083.134.16.134l.11-.05c.025-.024.053-.073.047-.15-.015-.17-.134-.554-.495-.776-.135-.084-.273-.143-.42-.203-.354-.148-.717-.3-1.105-.824-.256-.34-.857-.714-1.535-1.108l4.1 1.51.066.01c.088 0 .163-.06.18-.14.02-.083-.02-.165-.107-.208l-3.833-1.77c.768.07 1.408.146 1.697.31.467.26.943.288 1.262.288l.315-.008h.342c.28.02.455.158.506.23.035.046.086.07.14.07.054 0 .104-.026.132-.073.03-.05.03-.116-.002-.18-.078-.153-.336-.462-.754-.53-.157-.025-.308-.027-.47-.027-.38-.002-.775-.004-1.334-.338-.367-.22-1.066-.332-1.844-.438l4.366-.173c.12-.013.18-.105.18-.19z"/><path fill="#FBBE4A" d="M49.732 27.102c.28 0 .504.13.584.197l.027.056-.06.012c-.087-.05-.216-.08-.35-.08-.103 0-.206.016-.31.05l-.33.138c-.316.146-.75.346-1.264.346l-.235-.014-.11-.006c-.425 0-1.128.22-1.944.475l-.02.007h-.014l-.018-.128.013-.004c.94-.294 1.68-.523 2.11-.475.536.063.99-.12 1.338-.28-.366.15-.782.32-1.493.216-.414-.063-1.182.137-2.002.356l-.03-.13c.728-.194 1.41-.372 1.864-.372l.186.014c.14.02.275.03.402.03.445 0 .756-.126 1.028-.237.144-.06.278-.113.423-.147l.206-.026zm-6.043-1.307c-.38-.156-.777-.237-1.185-.237-1.258 0-2.383.75-2.863 1.915-.318.764-.318 1.605 0 2.37.316.765.912 1.36 1.676 1.677.38.158.777.236 1.186.236 1.258 0 2.38-.75 2.863-1.912.316-.766.316-1.607 0-2.37-.316-.766-.912-1.362-1.678-1.68zm1.69 1.407l.056.113 3.3-1.25-3.217 1.448.043.126 4.174-1.928.035-.07-.05-.04-.032.006-4.29 1.58-.02.014zm1.452-1.613c-.432.107-1.074.592-1.758 1.117l.076.107c.676-.518 1.307-.996 1.715-1.1.696-.174 1.016-.488 1.297-.768-.26.28-.61.623-1.127.77-.418.118-1.014.615-1.77 1.244l-.012.012.064.11.016-.005.016-.016c.714-.593 1.33-1.107 1.72-1.218.598-.17.98-.58 1.258-.88l.252-.254c.25-.21.49-.228.56-.228l.06.004.05-.028-.046-.047-.24-.033c-.143 0-.357.03-.555.173-.122.087-.226.19-.337.3-.27.27-.575.572-1.24.74zm-2.227.62l.094.084 2.568-2.417-2.417 2.567.09.1 3.118-3.378.012-.068-.045-.03-.05.02-3.36 3.103-.01.02zm-.474-.336l.113.068c.427-.736.827-1.422 1.165-1.672.576-.43.752-.842.904-1.207-.133.356-.326.81-.747 1.143-.34.27-.7.957-1.157 1.826l-.008.017.1.076.016-.014.01-.018c.432-.822.803-1.534 1.12-1.785.49-.387.685-.91.827-1.294l.135-.332c.15-.29.377-.415.486-.443l.037-.042-.05-.03-.01.003c-.12.01-.48.106-.682.435-.078.125-.135.262-.193.403-.148.35-.315.748-.865 1.157-.358.265-.767.96-1.2 1.71zm-.62-.28l.117.04 1.45-3.22-1.25 3.303.118.057 1.59-4.317-.007-.06-.044-.023-.053.042-1.917 4.15-.003.028zm0-2.103c.37-.616.37-1.064.374-1.462.013.382.008.874-.253 1.344-.212.38-.282 1.15-.37 2.13l-.002.02.12.034.01-.02.003-.022c.085-.926.157-1.725.355-2.08.304-.543.283-1.102.268-1.51l-.002-.36c.028-.32.19-.525.282-.595l.02-.048-.03-.02-.04.012c-.107.054-.4.28-.463.662-.025.145-.025.292-.026.446-.002.38-.004.813-.355 1.4-.23.382-.34 1.183-.454 2.04l.13.02c.11-.844.218-1.63.434-1.99zm-1.123 1.944l.107-3.53.107 3.53.134.008-.184-4.598-.06-.063-.054.064-.183 4.57.01.027.124-.006zm-1.268-3.386c.144.353.306.75.206 1.43-.064.442.14 1.224.36 2.06l.13-.03c-.22-.825-.422-1.594-.36-2.01.106-.71-.063-1.128-.212-1.495.156.348.34.804.28 1.338-.052.433.178 1.173.472 2.112l.006.02.125-.016.002-.023-.008-.02c-.278-.887-.517-1.652-.47-2.056.073-.62-.16-1.127-.33-1.498l-.14-.332c-.1-.31-.026-.56.03-.657l.004-.046-.023-.016-.048.03c-.077.09-.262.412-.175.79.036.143.09.277.15.42zm-.085 3.707l.016.02.114-.053-1.253-3.303 1.45 3.22.128-.045-1.93-4.178-.06-.04-.042.022-.002.062 1.58 4.293zm-2.338-2.674c.267.27.57.577.738 1.24.107.435.596 1.08 1.122 1.766l.106-.078c-.52-.677-1-1.31-1.102-1.718-.173-.697-.488-1.018-.77-1.3.28.262.624.612.772 1.128.118.418.615 1.016 1.245 1.77l.014.017.11-.063-.008-.022-.014-.016c-.594-.713-1.11-1.33-1.22-1.72-.17-.6-.58-.98-.88-1.26l-.254-.25c-.21-.25-.24-.507-.225-.62l-.01-.04-.022-.01-.043.046c-.04.115-.086.48.14.797.09.12.193.223.302.334zm1.338 3.457l.027.013.082-.09-2.422-2.574 2.572 2.42.1-.088-3.383-3.123-.044-.018-.05.032.017.064 3.102 3.363zm-3.586-1.773c.126.078.26.136.403.195.35.145.748.313 1.156.862.265.36.962.77 1.714 1.202l.068-.112c-.74-.428-1.426-.83-1.676-1.168-.43-.576-.844-.752-1.208-.906.356.135.81.328 1.142.75.27.34.957.7 1.828 1.156l.02.01.075-.098-.017-.02-.02-.01c-.82-.43-1.53-.803-1.784-1.12-.385-.49-.91-.685-1.293-.825l-.333-.136c-.29-.15-.415-.377-.443-.486l-.04-.038-.02.01-.01.054c.01.12.107.477.435.68zm-1.188.957l4.152 1.92.03.003.042-.115-3.225-1.452 3.306 1.253.057-.122-4.32-1.59-.025-.004-.057.043.042.064zm.16 1.656c.146.022.293.024.447.024.38.002.81.005 1.4.355.382.23 1.182.34 2.04.455l.02-.13c-.845-.113-1.634-.222-1.995-.438-.617-.368-1.064-.372-1.46-.375.38-.012.87-.007 1.34.255.38.21 1.152.28 2.132.37l.023.002.032-.122-.022-.01-.02-.002c-.927-.084-1.726-.155-2.08-.354-.435-.244-.87-.275-1.2-.275l-.31.01h-.358c-.324-.026-.527-.188-.598-.28l-.037-.02-.023.013.006.06c.054.11.28.4.662.463zm3.84 1.522l.028-.01-.007-.123-3.53-.108 3.53-.107.008-.134-4.6.184-.062.06.063.052 4.57.183zm-3.787 1.282c.143-.035.277-.09.422-.148.273-.11.582-.238 1.03-.238.124 0 .26.01.4.03l.187.013c.456 0 1.14-.18 1.87-.374l-.03-.13c-.824.222-1.594.423-2.01.36-.71-.104-1.127.064-1.492.215.348-.157.803-.34 1.336-.278.432.05 1.172-.182 2.11-.473l.022-.01-.017-.124h-.022l-.02.006c-.816.256-1.52.475-1.943.475l-.113-.006-.232-.013c-.514 0-.95.2-1.266.346l-.33.14c-.104.03-.207.048-.31.048-.132 0-.263-.028-.35-.08l-.026-.007-.032.02.028.055c.08.07.304.2.582.2l.207-.026zm4.15-.08l-.055-.11-3.303 1.25 3.22-1.45-.042-.125-4.18 1.93-.036.07.05.04.03-.007 4.293-1.58.023-.018zm-1.457 1.617c.434-.11 1.076-.597 1.762-1.122l-.076-.107c-.676.52-1.31 1-1.717 1.1-.697.177-1.018.49-1.3.77.263-.278.614-.622 1.13-.77.418-.116 1.014-.614 1.768-1.243l.016-.014-.064-.11-.02.01-.017.013c-.714.594-1.33 1.11-1.72 1.22-.6.17-.98.58-1.258.878l-.253.256c-.25.21-.492.227-.56.227l-.062-.002-.01-.002-.04.03.048.046.238.03c.144 0 .357-.03.557-.172.12-.088.225-.19.335-.3.27-.27.577-.573 1.24-.74zm2.228-.624l-.093-.084-2.57 2.418 2.42-2.568-.09-.1-3.12 3.38-.012.067.045.03.05-.02 3.36-3.103.01-.02zm.473.34l-.112-.07c-.425.736-.827 1.422-1.165 1.672-.576.43-.752.842-.904 1.207.135-.357.326-.81.748-1.143.34-.268.7-.957 1.156-1.826l.008-.016-.1-.078-.014.012-.012.02c-.43.824-.803 1.535-1.12 1.785-.49.386-.685.91-.825 1.294l-.137.33c-.148.29-.375.416-.486.443l-.037.043.052.03h.01c.12-.01.478-.108.682-.437.076-.127.133-.262.193-.404.146-.35.314-.747.865-1.157.357-.266.766-.96 1.197-1.707zm.62.28l-.117-.042-1.448 3.22 1.25-3.3-.12-.057-1.59 4.313.01.06.043.024.054-.04 1.917-4.153v-.023zm.003 2.1c-.37.617-.373 1.066-.375 1.46-.013-.38-.008-.87.254-1.34.21-.38.28-1.15.368-2.13l.002-.016-.123-.035-.008.016-.003.022c-.084.928-.156 1.725-.354 2.08-.303.543-.283 1.102-.266 1.512v.357c-.027.325-.188.528-.28.597l-.02.047.03.02.04-.012c.108-.053.4-.28.462-.662.024-.145.024-.29.026-.445 0-.383.002-.813.355-1.4.23-.383.34-1.178.453-2.033l-.13-.023c-.11.842-.218 1.627-.433 1.986zm1.12-1.935l-.106 3.524-.105-3.525-.134-.007.183 4.592.06.06.053-.062.183-4.57-.005-.018-.13.006zm1.27 3.38c-.144-.354-.308-.752-.208-1.43.064-.44-.136-1.217-.358-2.05l-.13.03c.22.82.42 1.584.36 1.998-.106.713.062 1.13.212 1.496-.158-.35-.342-.803-.28-1.338.052-.432-.18-1.172-.473-2.11l-.003-.01-.13.015v.015l.007.02c.277.888.518 1.653.47 2.056-.073.62.16 1.128.33 1.5l.14.33c.1.31.027.56-.03.657l-.005.047.024.016.048-.03c.078-.09.262-.41.174-.788-.036-.145-.09-.28-.15-.422zm.085-3.707l-.01-.014-.115.054 1.248 3.295-1.447-3.214-.124.045 1.926 4.17.057.038.042-.02.004-.064-1.58-4.29zm2.338 2.674c-.268-.27-.572-.576-.738-1.24-.11-.432-.592-1.072-1.115-1.754l-.107.076c.517.673.992 1.304 1.094 1.708.175.697.49 1.018.77 1.3-.28-.26-.623-.612-.77-1.13-.117-.418-.615-1.014-1.244-1.768l-.008-.008-.11.066.003.01.014.018c.594.713 1.11 1.328 1.22 1.72.17.597.58.978.88 1.257l.254.252c.21.248.24.506.223.62l.01.038.022.012.043-.047c.037-.115.084-.48-.143-.797-.088-.12-.19-.222-.3-.333zm-1.34-3.456l-.016-.007-.084.094 2.414 2.566-2.564-2.414-.1.087 3.373 3.115.045.016.053-.03-.02-.067-3.1-3.36zm3.586 1.773c-.126-.078-.263-.135-.403-.195-.352-.146-.748-.314-1.158-.863-.265-.357-.957-.764-1.704-1.197l-.068.113c.734.427 1.416.827 1.666 1.163.43.576.842.752 1.207.904-.355-.133-.808-.326-1.142-.746-.27-.34-.955-.7-1.826-1.157l-.01-.006-.08.104.01.01.018.01c.823.43 1.533.804 1.786 1.122.386.488.91.682 1.294.826l.33.135c.29.148.416.377.443.486l.04.036.02-.008.012-.055c-.01-.12-.106-.477-.436-.68zm1.188-.957l-4.152-1.92h-.02l-.04.12 3.212 1.446-3.295-1.25-.057.12 4.31 1.59h.024l.06-.042-.042-.064zm-.162-1.654c-.146-.023-.29-.025-.446-.025-.38-.002-.812-.004-1.4-.355-.38-.23-1.175-.34-2.03-.453l-.02.13c.84.11 1.624.22 1.983.436.617.367 1.066.373 1.462.375-.382.013-.872.007-1.342-.255-.38-.21-1.15-.28-2.13-.37h-.014l-.034.124.014.005.02.002c.925.084 1.724.156 2.08.354.435.245.868.276 1.198.276l.313-.008.23-.006.13.004c.323.027.526.19.595.28l.037.022.025-.014-.008-.06c-.055-.11-.28-.4-.664-.462zm.733-1.34l-4.57-.183-.02.004.01.127 3.52.108-3.52.106-.01.132 4.59-.183.062-.06-.063-.05z"/><path fill="#84371B" d="M43.13 29.193l-.028-.096c.05.043.08.104.08.172 0 .122-.1.222-.224.222-.075 0-.144-.04-.185-.096-.074.06-.17.096-.273.096-.105 0-.2-.037-.275-.096-.04.057-.107.096-.184.096-.122 0-.222-.1-.222-.223 0-.07.03-.13.08-.173l-.03.096c0 .094.078.17.173.17.076 0 .14-.05.16-.117.08.072.184.117.3.117.115 0 .22-.045.297-.117.023.068.086.117.16.117.096 0 .172-.076.172-.17zm-1.68-.754c-.21 0-.454-.06-.624-.23.075-.06.327-.31.652-.29.275.016.426.194.508.327-.066.078-.3.192-.537.192zm.1-.06c.1-.02.206-.062.317-.13-.082-.12-.18-.19-.29-.216.042.04.07.1.07.163 0 .077-.038.143-.096.184zm-.253.008c-.064-.04-.105-.11-.105-.19l.05-.144c-.1.03-.192.082-.282.152.09.095.206.16.337.182zm.69-.046c-.116.11-.315.193-.538.193-.243 0-.44-.068-.615-.188.126.186.343.294.614.294.243 0 .47-.15.536-.298zm-.063-.322c.066.066.164.14.248.14 0 0-.1-.058-.217-.202-.176-.216-.35-.26-.55-.26-.337 0-.667.273-.788.488 0 0 .344-.357.844-.357.145 0 .31.04.464.19zm.248-.274c.27.45.102 1.05-.148 1.266.318-.118.555-.782.264-1.393-.385-.373-1.236-.688-1.834.396.49-.622 1.212-.717 1.718-.27zm.777 2.424c-.118.086-.27.135-.45.135-.184 0-.334-.05-.45-.135-.13-.096-.23-.115-.34-.1.085 0 .194.08.273.146.112.092.25.21.515.21h.002c.264 0 .404-.118.516-.21.078-.066.188-.146.275-.146-.11-.015-.212.004-.34.1zm.642-2.472c-.197 0-.373.044-.55.26-.116.145-.214.2-.214.2.082 0 .18-.07.248-.138.152-.15.318-.19.462-.19.5 0 .845.356.845.356-.12-.215-.452-.488-.79-.488zm.58.51c-.17.173-.413.23-.62.23-.237 0-.472-.114-.538-.192.08-.133.232-.312.506-.328.326-.02.578.23.652.29zm-.725.173c-.057-.04-.094-.106-.094-.183 0-.064.025-.122.068-.163-.11.024-.208.097-.29.215.112.068.218.11.317.13zm.256.008c.13-.022.244-.087.336-.182-.09-.07-.185-.122-.284-.152l.053.144c0 .08-.044.15-.107.19zm-.992-.77c-.29.612-.052 1.276.265 1.394-.248-.217-.418-.816-.146-1.266.505-.446 1.224-.352 1.716.27-.6-1.084-1.45-.77-1.835-.397zm-.517 2.435c.086.02.184.08.307.08l.307-.08.395-.008c-.157-.014-.205-.088-.465-.066l-.236.04-.237-.04c-.26-.022-.307.052-.463.065l.393.008zm.293.426c-.244 0-.44.208-.44.45l.003.055c.023-.22.21-.38.437-.38s.414.16.44.38l.003-.055c0-.242-.2-.45-.444-.45zm.528-2.138c.064.148.29.3.537.3.272 0 .49-.11.614-.295-.174.12-.37.188-.613.188-.224 0-.423-.083-.536-.193zm-.004 1.453c-.12-.11-.344-.137-.51-.03-.168-.106-.39-.08-.51.03-.086.076-.205.223-.334.262.084.027.328-.158.372-.18.243-.115.292.016.472.016s.23-.13.473-.016c.04.02.285.207.37.18-.13-.04-.247-.186-.333-.262z"/></svg>