<svg xmlns="http://www.w3.org/2000/svg" width="85" height="57" viewBox="0 0 85 57"><path fill="#263779" d="M-.02.153h85.04v56.693h-85.04z"/><path fill="#FFF" d="M44.333.153h-5.936l-11.912 7.26v-7.261h-8.832v7.258l-11.903-7.257h-5.77v3.124l9.4 5.73h-9.4v8.83h9.393l-9.393 5.726v3.13h5.76l11.913-7.258v7.258h8.832v-7.256l11.903 7.256h5.945v-3.017l-9.572-5.837h9.573v-8.83h-9.566l9.566-5.83"/><path d="M14.775 9.008l-14.522-8.855h-.273v1.874l11.45 6.98m18.012.001l14.806-8.855h-3.394l-14.804 8.855m-1.258 1.672v-10.528h-5.28v10.525h-19.532s.01 5.222.024 5.28l19.507.01v10.724h5.28v-10.731h19.542v-5.28h-19.54zm4.262 6.96l14.846 9.053h.433v-1.777l-11.933-7.276m-17.452 0l-14.97 8.953v.1h3.23l15.135-9.052" fill="#E71D2F"/><path d="M22.116 38.74l3.895-1.26-1.984 3.582 3.412 2.26-4.034.68.362 4.077-3.048-2.73-2.963 2.823.233-4.087-4.053-.553 3.34-2.365-2.094-3.517 3.932 1.14 1.444-3.832m33.412-13.128l1.932-.63-.986 1.78 1.696 1.125-2.006.34.18 2.027-1.515-1.358-1.47 1.404.116-2.032-2.016-.275 1.66-1.176-1.042-1.747 1.955.566.716-1.906m11.34-12.472l1.933-.626-.984 1.78 1.696 1.124-2.006.338.18 2.027-1.516-1.358-1.474 1.404.118-2.03-2.016-.278 1.66-1.176-1.04-1.747 1.952.566.72-1.905m13.231 11.247l1.936-.626-.985 1.78 1.695 1.123-2.006.337.18 2.028-1.515-1.357-1.474 1.404.117-2.032-2.017-.275 1.66-1.177-1.04-1.747 1.955.567.717-1.906m-18.137 32.222l1.934-.627-.985 1.78 1.696 1.123-2.007.337.18 2.027-1.516-1.357-1.472 1.404.118-2.03-2.018-.276 1.662-1.175-1.042-1.75 1.955.566.717-1.904m15.694-17.291l.986.11-.687.715.2.97-.892-.433-.86.49.134-.98-.73-.667.974-.175.41-.902" fill="#FFF"/></svg>