<svg xmlns="http://www.w3.org/2000/svg" width="85" height="57" viewBox="0 0 85 57"><path d="M72.59 56.847h-72.61v-56.694h15.897m56.713 0h12.43v56.693h-12.43z" fill="#293789"/><path fill="#FECC08" d="M15.877.153l56.713 56.694v-56.694"/><path fill="#FFF" d="M45.002 46.298l1.193-3.63-3.203-2.384h3.984l1.202-3.662 1.23 3.662h3.982l-3.23 2.383 1.195 3.63-3.177-2.157-3.176 2.158zm-10.968-16.28l3.177 2.157-1.193-3.63 3.23-2.384h-3.984l-1.23-3.66-1.2 3.66h-3.985l3.203 2.384-1.192 3.63 3.176-2.157zm7.064 7.04l3.177 2.158-1.194-3.63 3.23-2.384h-3.983l-1.23-3.662-1.2 3.662h-3.988l3.203 2.383-1.193 3.63 3.176-2.157zm-35.482-35.375l3.177 2.157-1.193-3.63.076-.057h-4.12l.074.057-1.19 3.63 3.178-2.157zm50.918 45.685l-1.23-3.662-1.2 3.662h-3.985l3.202 2.383-1.193 3.632 3.178-2.158 3.177 2.158-1.194-3.63 3.23-2.384h-3.986zm-42.564-42.458l-1.23-3.66-1.202 3.66h-3.984l3.203 2.384-1.193 3.63 3.18-2.157 3.176 2.158-1.194-3.63 3.23-2.384h-3.986zm12.98 18.025l3.178 2.158-1.194-3.63 3.23-2.384h-3.984l-1.23-3.663-1.2 3.662h-3.985l3.203 2.382-1.193 3.63 3.176-2.157zm37.426 33.912l-.004-.012 3.23-2.383h-3.984l-1.23-3.662-1.2 3.662h-3.985l3.203 2.383-.006.012h3.976zm-44.55-40.997l3.174 2.16-1.194-3.632 3.23-2.383h-3.984l-1.23-3.662-1.2 3.662h-3.985l3.202 2.383-1.193 3.63 3.175-2.157z"/></svg>