<svg xmlns="http://www.w3.org/2000/svg" width="87" height="57" viewBox="0 0 87 57"><path fill="#C8323F" d="M0 0h87v56.7h-87z"/><path fill="#4AA656" d="M0 37.8h87v18.9h-87z"/><path fill="#fff" d="M0 0h12.6v56.7h-12.6z"/><path d="M.5 12.1h.6v.9h.5v-.9h.6v-.9h.5v-1h-.5v-.9h-.6v-.9h-.5v.9h-.6v.9h-.5v1h.5zm-.5 1.8h.5v.9h-.5zm0-7.4h.5v.9h-.5zm0-5.6h.5v.9h-.5zm.5 4.7h.6v.9h.5v.9h.6v1h.5v.9h.6v-.9h.5v-1h.6v-.9h.5v-.9h.6v-1h.5v-.9h-.5v-.9h-.6v-.9h-.5v-1h-.6v-.9h-1.6v.9h-.6v1h-.5v.9h-.6v.9h-.5v.9h.5zm4.4 7.4v-.9h.6v-.9h.5v-1h-.5v-.9h-.6v-.9h-.5v.9h-.6v.9h-.5v1h.5v.9h.6v.9zm-4.9 7.5h.5v.9h-.5zm3.8 7.8v.5h.6v-.9h-.6zm8.3-14.4h.5v.9h-.5zm0-4.6h-.6v-.9h-.5v.9h-.6v.9h-.5v1h.5v.9h.6v.9h.5v-.9h.6v-.9h.5v-1h-.5zm0-2.8h.5v.9h-.5zm0-5.6h.5v.9h-.5zm-4.4 7.5v.9h-.6v.9h-.5v1h.5v.9h.6v.9h.5v-.9h.6v-.9h.5v-1h-.5v-.9h-.6v-.9zm4.4-5.6h-.6v-.9h-.5v-1h-.6v-.9h-1.6v.9h-.6v1h-.5v.9h-.6v.9h-.5v.9h.5v1h.6v.9h.5v.9h.6v1h.5v.9h.6v-.9h.5v-1h.6v-.9h.5v-.9h.6v-1h.5v-.9h-.5zm-5.9 3.7h-.2v1.9h.6v-1.9h-.2zm.2-4.6h.2v-1.9h-.6v1.9h.2zm0 13h.2v-1.9h-.6v1.9h.2zm.7 11.1h-.5v1h-.6v-1h-.5v-.9h-.6v1.9h.6v.9h.5v.9h-.5v1h-.6v1.8h.6v-.9h.5v-.9h.6v.9h.5v.9h.6v-1.8h-.6v-1h-.5v-.9h.5v-.9h.6v-1.9h-.6zm5-5.5h.5v.9h-.5zm0-4.7h-.5v-.9h-.6v-.9h-.5v-1h-.6v-.9h-.6v.9h-.5v.9h-.6v.9h-.5v.9h-.6v.9h-.5v.9h-.6v-.9h-.5v-.9h-.6v-.9h-.5v-.9h-.6v-.9h-.5v-.9h-.6v.9h-.5v.9h-.6v.9h-.5v.9h-.6v.9h-.5v1.9h.5v.9h.5v.9h.5v.9h.5v-.9h.5v-.9h.5v-.9h-.8v-.9h1.6v.9h.5v.9h.5v.9h-.4v.9h-.6v.9h-.5v.9h-.6v.9h-.5v.9h-.6v-.9h-.5v-.9h-.6v-.9h-.5v2.8h.5v1.1h.5v1h.5v.9h.5v1h-.4v.9h-.5v.9h-.6v.9h-.5v2.8h.5v-.9h.5v-.9h.5v-.9h.5v.9h.5v.9h.5v.9h.5v.9h.5v.9h.5v.9h-.1v.9h-.6v.9h-1.6v-.9h1.1v-.9h-.6v-.9h-.5v-.9h-.6v.9h-.5v.9h-.6v.9h-.5v2h.5v.9h.5v.9h.5v.9h.5v.9h.5v.9h.5v-.9h.5v-.9h.5v-.9h.5v-.9h.5v-.9h1v-.9h.5v.9h.5v.9h.5v.9h.5v.9h.5v.9h.5v.9h.5v-.9h.5v-.9h1v-.9h.5v-.9h.5v-.9h.5v-1.9h-.5v-.9h-.5v-.9h-.5v-.9h-.5v.9h-.6v.9h-.6v.9h1.1v.9h-1.6v-.9h-.6v-.9h-.5v-.9h.5v-.9h.5v-.9h.5v-.9h.5v-.9h.5v-.9h.8v.9h.5v.9h.5v.9h.5v-2.8h-.5v-.9h-.5v-.9h-.5v-.9h-.5v-1h.5v-1h.5v-1h.5v-.9h.5v-2.8h-.5v.9h-.5v.9h-.5v.9h-.5v-.9h-.6v-.9h-.6v-.9h-.5v-.9h-.6v-.9h-.5v-.9h.5v-.9h.5v-.9h1.6v.9h-1v.9h.5v.9h.5v.9h.7v-.9h.5v-.9h.5v-.9h.5v-1.9h-.5v-1zm-3.9 8.4v.9h.5v.9h.5v4.6h-.4v.9h-.6v.9h-.5v.9h-.6v.9h-.5v.9h-.6v-.9h-.5v-.9h-.6v-.9h-.5v-.9h-.6v-.9h-.5v-4.6h.5v-.9h.5v-.9h.5v-.9h.5v-.9h.7v-.9h.5v.9h.5v.9h.5v.9h.7zm-1.8 0h.2v-1h-.6v1h.2zm-6.4 25.1h.5v.9h-.5zm.5-1.9h.6v.9h.5v-.9h.6v-.9h.5v-.9h-.5v-1h-.6v-.9h-.5v.9h-.6v1h-.5v.9h.5zm-.5-5.6h.5v.9h-.5zm0 13.1h.5v.9h-.5zm6-2.8h-.5v-1h-.6v-.9h-.5v-.9h-.6v-1h-.5v-.9h-.6v.9h-.5v1h-.6v.9h-.5v.9h-.6v1h-.5v.9h.5v.9h.6v1h.5v.9h.6v.9h1.6v-.9h.6v-.9h.5v-1h.6v-.9h.5zm0-1.9h.6v-1.9h-.6zm-1.6-6.5v.9h-.6v1h-.5v.9h.5v.9h.6v.9h.5v-.9h.6v-.9h.5v-.9h-.5v-1h-.6v-.9zm-4.4-8.4h.5v.9h-.5zm12.1 19.6h.5v.9h-.5zm0-3.8h-.6v-.9h-.5v-.9h-.6v-1h-.5v-.9h-.6v.9h-.5v1h-.6v.9h-.5v.9h-.6v1h-.5v.9h.5v.9h.6v1h.5v.9h.6v.9h1.6v-.9h.6v-.9h.5v-1h.6v-.9h.5v-.9h-.5zm0-6.5h-.6v-.9h-.5v.9h-.6v1h-.5v.9h.5v.9h.6v.9h.5v-.9h.6v-.9h.5v-.9h-.5zm0 4.7h.5v.9h-.5zm0-7.5h.5v.9h-.5zm-4.4 1.9v.9h-.6v1h-.5v.9h.5v.9h.6v.9h.5v-.9h.6v-.9h.5v-.9h-.5v-1h-.6v-.9zm-1.5-1.9h-.2v1.9h.6v-1.9h-.2zm0 13.1h-.2v1.8h.6v-1.8h-.2zm5.9-19.6h.5v.9h-.5zm-3.3-6.8v-.6h-.6v.9h.6zm-2.6 4h-.2v1h.6v-1h-.2z" fill="#C8323F"/></svg>