<svg xmlns="http://www.w3.org/2000/svg" width="85" height="57" viewBox="0 0 85 57"><path fill="#FFF" d="M20.837 0h43.04v56.692h-43.04z"/><path fill="#EA1D25" d="M63.878 0h21v56.692h-21zm-64.04 0h21v56.692h-21zm60.567 28.442c-3.5-.895-2.004-2.654-1.44-7.297-5.876.973-6.522 1.59-6.147-2.4-1.842 1.67-3.832 5.472-5.277 6.53-.997.78-1.18-.09-.958-.674.22-.582 3.016-6.622 3.358-10.08-3.278 2.166-4.688.7-7.582-6.143-2.895 6.843-4.304 8.31-7.583 6.144.343 3.458 3.135 9.498 3.36 10.08.22.585.037 1.456-.963.675-1.443-1.06-3.434-4.86-5.277-6.53.377 3.99-.27 3.373-6.144 2.4.562 4.643 2.06 6.402-1.44 7.297 8.345 7.473 8.96 8.175 5.663 11.52 6.864-.767 11.523-2.5 11.523-2.5.446-.156.35.244.35.653l-.266 10.2.778-.007.777.006-.268-10.2c0-.408-.098-.81.348-.652 0 0 4.66 1.733 11.524 2.5-3.294-3.345-2.68-4.047 5.665-11.52z"/></svg>