<svg xmlns="http://www.w3.org/2000/svg" width="85" height="57" viewBox="0 0 85 57"><path fill="#DD2E26" d="M-.02.154h85.04v56.69h-85.04z"/><path d="M14.33 6.242l1.928 5.696h6.244l-5.06 3.705 1.872 5.648-4.98-3.358-4.984 3.36 1.87-5.65-5.02-3.703h6.245m21.92 5.66l.625 1.845h2.022l-1.64 1.2.607 1.832-1.615-1.086-1.615 1.087.607-1.83-1.625-1.202h2.022m-.745-10.256l1.38 1.376 1.81-.896-.934 1.8 1.353 1.372-1.926-.258-.965 1.69-.266-1.91-1.993-.356 1.814-.893m-6.873-6.752l1.832.666 1.264-1.58-.086 2.03 1.805.668-1.854.582-.16 1.938-1.05-1.613-1.955.52 1.264-1.58m-1.06 18.408l1.832.666 1.264-1.58-.086 2.03 1.805.67-1.854.582-.16 1.94-1.05-1.618-1.955.52 1.264-1.58" fill="#FEDC00"/></svg>