<svg xmlns="http://www.w3.org/2000/svg" width="87" height="57" viewBox="0 0 87 57"><path fill="#fff" d="M-14 18.5h115.5v19.2h-115.5z"/><path fill="#283883" d="M-14 37.8h115.5v19.2h-115.5z"/><path fill="#DD1F26" d="M-14-.8h115.5v19.2h-115.5z"/><path fill="#fff" stroke="#DD1F26" stroke-width=".154" stroke-linecap="round" d="M32.3 18.2c3.5-1.3 7.5-1.9 11.3-2 3.8 0 7.8.6 11.6 2l2.9-5.8-2-3.5-3.6 1.5-2.5-2.8-3.2 2-3-2.3-2.9 2.3-3.3-1.9-2.6 2.8-3.6-1.6-2 3.5 2.9 5.8z"/><path fill="#0D7CA6" stroke="#4574BA" stroke-width=".039" d="M50.7 16.6l1.7-5.8 3.5-1.4 1.9 3.1-2.7 5.5c-1.5-.7-2.3-.9-4.4-1.4z"/><path d="M36.8 16.6l-1.5-5.7 2.2-2.9 3.3 1.9.6 6c-1.6.2-2.8.3-4.6.7z" fill="none"/><path fill="#0D7CA6" stroke="#4574BA" stroke-width=".039" d="M41.4 16l-.6-6 2.8-2.2 2.9 2.2-.4 6c-1.6-.1-2.8-.1-4.7 0zM32.4 17.9l-2.6-5.5 1.7-3.1 3.6 1.6 1.5 5.7c-1.6.4-2.4.7-4.2 1.3z"/><path fill="#fff" stroke="#fff" stroke-width=".035" d="M31.9 15.2c.8.1 1.4 0 2.1-.2.8-.4 1.1-.8 1.3-1.2.2.7.1 1.4-.8 1.9-.9.4-2.1.3-2.6-.5z"/><path fill="#F8EC24" stroke="#CCA42C" stroke-width=".039" d="M44.5 10.9h-.2v.3h-.2l-.1.3.1.1-.1.2.1.1.1.2h.1v.2h.2l.2.1v.1h.3l.5-.1.1-.1v-.1h.3v-.2h.1v-.3h.1v-.1l-.1-.1v-.2l-.2-.2v-.3l-.1-.1v-.2l.2-.2v-.1h-.1l-.1.1h-.1v.2h-.2v-.2l-.4-.1s-.2.1-.2.2v.2h-.1l-.1-.2-.2-.1h-.1v.1l.2.3v.2z"/><path stroke="#CCA42C" stroke-width=".039" d="M45.9 11.9v-.2M46.1 11.7l-.1-.1" fill="none"/><path fill="#CCA42C" stroke="#CCA42C" stroke-width=".039" d="M44.1 11.5h.2v.2l.1.1v.4h.1v-.1h.2v.3h.2s0-.1.1-.1h.1v.1-.1h.1l.1.1h.2l-.1-.1v-.2l.2-.1.1.1h.1l-.1-.2v-.3l.2-.2h.2v-.1l-.2-.2-.1-.3-.1-.1h-.1l.1.2v.1h.1v.4h-.2v.2l-.1.1-.1.2-.1.1h-.2l-.1-.1v-.1h-.1v-.2l-.1-.1v-.1l-.1-.1v-.1h-.1v-.2h.1l-.1-.1v-.1.2l.1-.1h-.2l-.2.1v.3l-.2.1v.1z"/><path fill="#663E1A" stroke="#CCA42C" stroke-width=".019" d="M45 11.9l.1-.1v-.1h-.1.1.2.1v.1h-.1v.1h.3v.1l-.3-.1h-.3z"/><path fill="#CCA42C" stroke="#CCA42C" stroke-width=".039" d="M45.6 11.1l-.2.1-.1.2h-.1l-.2-.2h-.2l-.1.2h-.1l-.2-.2s-.1-.1 0-.1h.5v-.2h-.1.2l.1.1v.2h.4l.1-.1z"/><path fill="#663E1A" d="M44.8 11.2c.1 0 .1.1 0 0 .1.1.1.1 0 .1v-.1zM45.3 11.2c.1.1.1.1 0 .1v-.1z"/><path stroke="#CCA42C" stroke-width=".039" d="M44.6 10.9c.2-.1.3-.1.5-.1h.5" fill="none"/><path fill="#CCA42C" stroke="#CCA42C" stroke-width=".039" d="M44.7 10.6h-.1l-.2-.2h.1l.1.1.1.1zM45.5 10.5l.3-.2h-.1l-.1.1h-.1v.1zM45.3 10.5h-.5v-.1h.2v-.1h.1v.1l.2.1zM45.3 10.4h-.2v-.1l.2.1zM45 10.3l-.2.1.2-.1zM44.1 11.9l.1-.2-.1-.1-.1.1.1.2zM44.2 12l.1-.2-.1.2z"/><path fill="#F8EC24" stroke="#CCA42C" stroke-width=".039" d="M41.9 11h-.2v.3h-.2l-.1.3.1.1-.1.2.1.1.1.2h.1v.2h.2l.2.1v.1h.3l.5-.1.1-.1v-.1h.3v-.2h.1v-.3h.1v-.1l-.1-.1v-.2l-.2-.2v-.3l-.1-.1v-.2l.2-.2v-.1h-.1l-.1.1h-.1v.2h-.2v-.2l-.2-.1s-.2.1-.2.2v.2h-.1l-.3-.2-.2-.1h-.1v.1l.2.3v.2z"/><path stroke="#CCA42C" stroke-width=".039" d="M43.3 12v-.2M43.5 11.7l-.1-.1" fill="none"/><path fill="#CCA42C" stroke="#CCA42C" stroke-width=".039" d="M41.5 11.6h.2v.2l.1.1v.4h.1v-.1h.2v.3h.2s0-.1.1-.1h.1v.1-.1h.1l.1.1h.2l-.1-.1v-.2l.2-.1.1.1h.1l-.1-.2v-.3l.2-.2h.2v-.1l-.2-.2-.1-.3-.2-.1h-.1l.1.2v.1h.1v.4h-.2v.2l-.1.3-.1.2-.1.1h-.2l-.1-.1v-.1h-.1v-.2l-.1-.1v-.1l-.1-.1v-.1h-.1v-.2h.1l-.1-.1v-.2h.1-.2l-.2.1v.3l-.2.1.1.1z"/><path fill="#663E1A" stroke="#CCA42C" stroke-width=".019" d="M42.3 12l.1-.1v-.1h-.1.1.2.1v.1h-.1v.1h.3v.1l-.4-.1h-.2z"/><path fill="#CCA42C" stroke="#CCA42C" stroke-width=".039" d="M43 11.2l-.2.1-.1.2h-.1l-.2-.2h-.2l-.1.2h-.1v-.1s-.1-.1 0-.1h.5v-.2h-.1.2l-.1.1v.2h.4l.1-.2z"/><path fill="#663E1A" d="M42.2 11.3c.1.1.1.1 0 .1v-.1zM42.7 11.3c.1.1.1.1 0 .1v-.1z"/><path stroke="#CCA42C" stroke-width=".039" d="M42 11c.2-.1.3-.1.5-.1h.5" fill="none"/><path fill="#CCA42C" stroke="#CCA42C" stroke-width=".039" d="M42 10.6h-.1l-.2-.2h.1l.1.1.1.1zM42.8 10.6l.3-.2h-.1l-.1.1h-.1v.1zM42.7 10.6h-.5v-.1h.2v-.1h.1v.1l.2.1zM42.6 10.4h-.2v-.1l.2.1zM42.4 10.4l-.2.1.2-.1zM41.5 12l.1-.2-.1-.1-.1.2.1.1zM41.6 12.1l.1-.2-.1.2z"/><path fill="#283883" stroke="#282B75" stroke-width=".039" d="M46.2 16l.5-6.1 3.2-1.8 2.5 2.7-1.7 5.8c-1.6-.3-2.5-.5-4.5-.6z"/><path fill="#F8EC24" stroke="#CCA42C" stroke-width=".039" d="M43.2 13.2h-.2v.3h-.2l-.1.3.1.1-.1.2.1.1.1.2h.1v.2h.2l.2.1v.1h.3l.5-.1.1-.1v-.1h.3v-.2h.1v-.3h.1v-.1l-.1-.1v-.2l-.2-.2v-.3l-.1-.1v-.2l.2-.2v-.1h-.1l-.1.1h-.1v.2h-.2v-.2l-.2-.1s-.2.1-.2.2v.2h-.1l-.1-.2-.2-.1h-.1v.1l.2.3-.2.2z"/><path stroke="#CCA42C" stroke-width=".039" d="M44.7 14.3v-.2M44.8 14l-.1-.1" fill="none"/><path fill="#CCA42C" stroke="#CCA42C" stroke-width=".039" d="M42.8 13.9h.2v.2l.1.1v.4h.1v-.1h.2v.3h.2s0-.1.1-.1h.1v.1-.1h.1l.1.1h.2l-.1-.1v-.2l.2-.1.1.1h.1l-.1-.2v-.3l.2-.2h.2v-.1l-.2-.2-.1-.3-.1-.1h-.1l.1.2v.1h.1v.4h-.2v.2l-.1.1-.1.2-.1.1h-.2l-.1-.1v-.1h-.1v-.2h-.1v-.1l-.1-.1v-.1h-.1v-.2h.1l-.1-.1v-.2l.1-.1h-.2l-.2.1v.3l-.2.1v.3z"/><path fill="#663E1A" stroke="#CCA42C" stroke-width=".019" d="M43.7 14.3l.1-.1v-.1h-.1.1.2.1v.1h-.1v.1h.3v.1l-.3-.1h-.3z"/><path fill="#CCA42C" stroke="#CCA42C" stroke-width=".039" d="M44.4 13.5l-.2.1-.1.2h-.1l-.2-.2h-.2l-.1.2h-.1l-.2-.2s-.1-.1 0-.1h.5v-.2h-.1.2l-.1.1v.2h.4l.3-.1z"/><path fill="#663E1A" d="M43.6 13.6c.1.1.1.1 0 .1 0 0-.1 0 0-.1zM44.1 13.6c.1.1.1.1 0 .1s-.1 0 0-.1z"/><path stroke="#CCA42C" stroke-width=".039" d="M43.3 13.3c.2-.1.3-.1.5-.1h.5" fill="none"/><path fill="#CCA42C" stroke="#CCA42C" stroke-width=".039" d="M43.4 12.9h-.1l-.2-.2h.1l.1.1.1.1zM44.2 12.8l.3-.2h-.1l-.1.1h-.1v.1zM44 12.9h-.5v-.1h.2v-.1h.1v.1l.2.1zM44 12.7h-.2v-.1l.2.1zM43.7 12.6l-.2.1.2-.1zM42.8 14.2l.1-.2-.1-.1-.1.2.1.1zM43 14.3l.1-.2-.1.2z"/><path fill="#DD1F26" stroke="#E41E26" stroke-width=".039" d="M46.9 14.9l-.2.2v.2h.3l.2-.1v-.2l-.3-.1zM47.7 15.3l-.1.1v.1h.3c.1 0 .1 0 .1-.1v-.1h-.3zM49.1 15l-.2.2v.1h.3c.1 0 .1 0 .1-.1v-.1l-.2-.1zM50 15.2l-.2.2v.2h.3c.1 0 .1-.1.1-.1v-.1l-.2-.2z"/><path fill="#DD1F26" stroke="#CB2026" stroke-width=".039" d="M47.7 11.3l.6.4c.1-.1.4 0 .5 0 .2 0 .3.1.4.2.3.1.6.1.9.1.3 0 .5-.2.6-.3v-.1h-.1c-.2.1-.5.1-.7 0-.2 0-.3-.1-.6-.2v-.1c.4 0 .5 0 .6-.1.2 0 .2-.1.3-.2v-.1h-.1c-.2.1-.2.1-.5.1-.2 0-.4-.1-.5-.1l-.3-.1c-.2 0-.5 0-.7.1l-.4.4z"/><path fill="#8F3838" stroke="#903737" stroke-width=".039" d="M47.9 11.2c.1 0 .1 0 .2.1l.1.1v-.1c-.2-.1-.2-.2-.3-.1zM48.4 11.6v-.1s0-.1-.1-.1c0 0 .1 0 .1.1v.1zM48.5 11s0 .1.1.1v.2-.2s0-.1-.1-.1zM49 11v.3-.3zM48.9 11.6v-.2s.1.1.1.2c0-.1-.1 0-.1 0zM49.4 11.5v.2c0 .1 0 .1-.1.1.1 0 .1-.1.1-.1.1-.1 0-.2 0-.2zM49.5 11.4s0-.1-.1-.2c.1 0 .1.1.1.2zM49.9 11.3v-.1.1zM49.8 11.7l.1.1v.1h.1v-.1s-.1-.1-.2-.1zM50.3 11.7v.2-.2z"/><path fill="#F8EC24" stroke="#EED614" stroke-width=".039" d="M47.7 11.3c-.1 0-.2.1-.3.2l-.4-.2c-.1.1-.1.1-.1.2l.2.3-.1.3-.1.3c0 .1 0 .2.1.2h.4v.2h.1s-.1.1 0 .1h.2l-.1.1-.2.2c-.1.1-.1.2.1.2 0 .1-.1.1-.1.1 0 .1 0 .1.1.1-.1.1 0 .2 0 .4v.3l-.2.2c-.1.1-.2.1-.2.4l.4.1c0-.1.1-.1.1-.1v-.2l.3-.4.2-.1c.1 0 .1 0 .2.1l-.1.3v.4c0 .1-.1.1-.2.4l.3.1c.1-.1.1-.1.2-.1v-.4l.3-.5h.2s.1 0 .1-.1c0 .1.1.1.1.1s.1-.1.2-.1c0 0 0 .1.1.1h.2l-.3.4v.1l-.1.1.3.1v-.1c.1 0 .1 0 .2-.1 0 0 0-.1.1-.2s.3-.2.4-.4c.1 0 .2.1.2.2v.4l-.5.1v.1l.3.1.2-.2v-.2c.1-.2.2-.3.4-.4v-.2s-.1 0-.1-.1v-.2l.1-.1c-.1-.1 0-.2 0-.3l.2-.4v-.2s0-.1.1-.1v-.5s0-.1-.1-.1c0 0-.1 0-.1.1l-.2.1h-.9l-.1.1h-.2c-.4 0-.3 0-.4.1-.1 0-.1-.1-.4-.1h-.1c-.2-.1-.3-.3-.4-.5.3-.1.5-.2.6-.4h-.5l-.7-.4z"/><path fill="#664E1F" stroke="#664E1F" stroke-width=".039" d="M47.5 11.9l.1.1h.2l.1-.1-.2-.1s-.1.1-.2.1z"/><path fill="#CCA42C" stroke="#CCA42C" stroke-width=".039" d="M47.8 13.4l-.1-.4c0 .2 0 .3.1.4zM48.5 13.5c.1 0 .1-.1 0-.1 0-.1-.1-.2-.1-.2.1 0 .1.2.1.3zM49 13.4c-.1-.1-.2-.4-.1-.4 0 0 .1.1.1.2-.1 0 0 .1 0 .2zM48.9 14c0 .1.1 0 0 0l.2-.2.1-.3s-.1.1-.1.2c-.1.2-.2.3-.2.3zM49.3 13.9v-.3c0-.1 0-.2.1-.3.1.2 0 .5-.1.6zM49.6 13.2l-.2-.3s.2.2.2.3zM50 13.5v-.2c0-.1-.1-.2-.1-.2h.1v.4zM50.3 13.2s0 .1.1.2c0 .1.1.4.1.4h.3l-.3-.3-.2-.3z"/><path d="M50.7 16.6l1.7-5.9 3.5-1.4 1.9 3.2-2.7 5.4c-1.5-.5-2.4-.8-4.4-1.3z" fill="none"/><path fill="#fff" stroke="#fff" stroke-width=".039" d="M51.8 12.7c.9.2 1.7.4 2.6.7l2.4.9-1.4 2.7-2.3-.8-2.2-.7.9-2.8z"/><path fill="#DD1F26" stroke="#E41E26" stroke-width=".039" d="M51.7 13.4s1.3.3 2.5.7c1.2.4 2.4.9 2.4.9l-.8 1.6c-.7-.3-1.5-.6-2.3-.8l-2.3-.7.5-1.7z"/><path fill="#010101" stroke="#010101" stroke-width=".039" d="M51.8 14.1l.3-.2h.4v.2l.3.2.4.2 1 .1.4.1c.1.1.2.1.2.3h.6c.2 0 .5 0 .7.1.1 0 .1.1.1.1s-.1.1-.4.1c-.3 0-.6-.2-.8-.1 0 .1.2.3.3.3v.4l-.1.1h-.1c.1-.1 0-.2 0-.3-.1-.1-.1-.1-.2-.1s-.3-.1-.4-.2h-.1c0 .1-.1.1-.2.2h-.2l-.4-.1v-.1h.5v-.2h.3c-.1-.2-.1-.3-.4-.4h-.9v.1h-.8l-.4.1h-.1c-.1 0-.1 0 0-.1.4 0 .4-.1.5-.1 0 0 0-.1-.1-.1h-.5c-.1 0-.2-.1-.2-.1v-.1h.7v-.1c0-.1 0-.1-.1-.1h-.3v-.2z"/><path fill="#fff" stroke="#010101" stroke-width=".039" d="M53.6 15.1c.1 0 .2.1.4.1h.3c-.1-.2-.1-.3-.4-.4h-.9v.1c.4.2.5.2.6.2z"/><path fill="#283883" stroke="#282B75" stroke-width=".039" d="M36.7 16.6l-1.5-5.7 2.4-2.9 3.3 1.9.6 6.1c-1.8.1-2.9.3-4.8.6z"/><path fill="#F8EC24" stroke="#FFC808" stroke-width=".048" d="M31.3 11.8l.6.4-.2.8.7-.3.6.4.1-.7.6-.2-.5-.5.1-.7-.7.3-.5-.4-.1.7-.7.2z"/><path fill="#FFC60A" d="M31.3 11.8l2.4.4-.6.2-.6-.4.5 1.1s-.5-.4-.6-.4l.1-.7-.8 1 .1-.8-.5-.4z"/><path fill="#FFC808" d="M31.9 11.6l.6.5-.4-1.1-.2.6zM32.6 11.3l-.1.7c.1-.1.8-1 .8-1 0 .1-.7.3-.7.3z"/><path fill="#F8EC24" stroke="#FFC808" stroke-width=".039" d="M54.2 10.9l.1.7-.6.5.8.2.2.7.5-.5.6.2-.1-.7.5-.5-.7-.3-.1-.7-.5.4h-.7z"/><path fill="#FFC808" d="M54.2 10.9l1.6 1.8-.6-.2-.2-.7-.3 1.2-.2-.7.5-.5s-1.2.3-1.2.2l.6-.5-.2-.6zM54.9 11.1l.1.7.4-1.2-.5.5zM55.6 11.3l-.5.5c.1 0 1.2-.2 1.2-.2l-.7-.3z"/><path fill="#DD1F26" stroke="#E41E26" stroke-width=".039" d="M35.2 10.9c.8-.4 1.8-.7 2.8-.8.9-.1 1.9-.1 2.9-.1l.1 1.5c-.8 0-1.3 0-2.7.2-1.3.2-1.9.3-2.7.7l-.4-1.5zM35.9 13.5l.4 1.6c.8-.2 1.6-.4 2.4-.5.8-.1 1.7-.2 2.5-.2l-.1-1.5c-.8-.1-1.8-.1-2.6.1-.9.1-1.7.3-2.6.5z"/><path fill="#fff" stroke="#DD1F26" stroke-width=".154" d="M32.1 18.4h23.3v14.9c-.6 5.8-6.2 10.2-11.3 10.1-5.5.2-11.6-4.3-12-10.2v-14.8z"/><path d="M41.5 28.6h4.4v4.8h-4.4zm-4.4-4.8h4.4v4.8h-4.4zm8.9 0h4.4v4.8h-4.4zm-13.4-4.9v14.3c.4 5.7 6.3 10 11.5 9.8 4.9 0 10.3-4.1 10.8-9.7v-14.4h-22.3zm4.5 19.2l-2.6-.1c-.8-1.2-1.7-2.8-1.8-4.7h4.4v4.8zm0 2.6v-2.5h4.4v4.5c-1.1-.3-2.9-1-4.4-2zm13.3 0c-1.5 1.1-3.2 1.7-4.4 2v-4.5h4.4v2.5zm2.6-2.7l-2.6.1v-4.7h4.4c-.1 1.8-1 3.5-1.8 4.6zm1.8-9.4h-4.4v4.8h-4.4v4.8h-4.4v-4.8h-4.4v-4.8h-4.4v-4.8h4.4v-4.8h4.4v4.8h4.4v-4.8h4.4v4.8h4.4v4.8z" fill="#DD1F26" stroke="#DD1F26" stroke-width=".148"/><path fill="#CCA42C" stroke="#CCA42C" stroke-width=".039" d="M48.1 13.4s0-.2-.1-.2c0-.1 0-.2-.1-.3.2.1.3.3.2.5z"/></svg>