<svg xmlns="http://www.w3.org/2000/svg" width="85" height="57" viewBox="0 0 85 57"><path fill="#FFF" d="M-.02.154h85.04v56.692h-85.04z"/><path d="M-.02 38.072v11.844l18.17-11.844m-18.17-30.66v11.518h17.672m58.596-18.776h-25.965v16.924m-15.565-16.924h-26.24l26.24 17.105m-25.738 39.587h25.738v-16.778m50.302-21.138v-11.7l-17.948 11.7m-16.789 37.916h25.463l-25.463-16.598m34.737 9.848v-12.024h-18.446" fill="#263271"/><path fill="#C22126" d="M46.9 22.982h38.12v11.036h-38.12v22.828h-8.8v-22.828h-38.12v-11.036h38.12v-22.828h8.802v22.828zm-46.92 33.293v.57h5.72l28.805-18.775h-6.595l-27.93 18.205zm79.56-56.12l-28.807 18.773h6.596l27.691-18.051v-.723h-5.48zm-22.645 37.915l28.125 18.33v-4.297l-21.527-14.033h-6.596zm-29.127-19.14l-27.788-18.113v4.3l21.19 13.813h6.598z"/></svg>