<svg xmlns="http://www.w3.org/2000/svg" width="85" height="57" viewBox="0 0 85 57"><path fill="#FFF" d="M.044 19.052h85.04v18.898h-85.041z"/><path fill="#1E8943" d="M.044 37.95h85.04v18.895h-85.041z"/><path fill="#F89939" d="M.044.154h85.04v18.898h-85.041z"/><circle fill="#2A2C7A" cx="42.563" cy="28.5" r="7.566"/><path d="M41.393 29.088l-.073-.188-1.155.473-3.978.832c.05.184.082.373.146.55l.01-.01c.15-.087.34-.034.425.114.086.15.035.34-.113.425l-.097.014.278.487 3.408-2.22 1.15-.48zm.295-1.566l.173-.116-.758-1-1.828-3.632c-.16.092-.332.17-.484.275l.07.053c.085.148.034.34-.116.427-.15.086-.34.033-.427-.116v-.005c-.152.126-.28.278-.42.417l3.03 2.712.76.982zm-.366.568l.076-.188-1.15-.48-3.402-2.227c-.1.173-.21.338-.295.52l.098.012c.15.085.2.275.115.426-.086.15-.275.202-.425.117l-.01-.012c-.06.166-.09.346-.137.518l3.978.84 1.154.473zm-.029.676l-.04-.2-1.232.157-4.087-.227 4.088-.227 1.234.155.04-.203-1.244-.17-3.86-1.274c-.052.192-.118.378-.152.576l.015-.006c.172 0 .31.14.31.313s-.138.314-.31.314l-.092-.038c-.015.187-.027.373-.027.564l.028.566.093-.037c.172 0 .31.138.31.312 0 .172-.138.313-.31.313l-.014-.006c.032.188.097.368.146.552l3.862-1.267 1.245-.17zm.683-1.436l.188-.073-.474-1.157-.83-3.978c-.182.048-.368.08-.543.145.084.15.034.34-.116.426-.148.086-.34.034-.425-.115l-.01-.083-.488.277 2.218 3.408.48 1.15zm-.5.46l.114-.17-.982-.76-2.712-3.03c-.145.146-.303.278-.436.437l.022.002c.148.085.2.274.114.425s-.275.202-.425.117l-.06-.08c-.103.146-.176.31-.264.463l3.628 1.836 1.002.76zm.822-.56l.2-.04-.157-1.233.228-4.088h-.004c-.188 0-.373.012-.56.027l.034.078c0 .172-.14.313-.313.313s-.313-.14-.313-.313c-.19.033-.367.098-.55.146l1.265 3.863.17 1.246zm.979.184l.167.112.76-.98 3.03-2.713c-.144-.143-.273-.3-.43-.428v.004c-.086.148-.276.2-.427.115-.15-.086-.2-.277-.116-.426l.07-.055-.447-.254-1.845 3.626-.76.998zm.457.496l.073.19 1.155-.473 3.978-.83c-.05-.182-.082-.37-.145-.544-.15.085-.34.034-.426-.116-.087-.15-.035-.34.114-.426l.083-.01c-.08-.17-.185-.323-.277-.486l-3.407 2.218-1.15.48zm-.76-.652l.19.078.483-1.147 2.233-3.4c-.175-.1-.34-.213-.524-.298l-.01.083c-.086.15-.277.202-.427.116-.15-.085-.203-.275-.117-.425l-.516-.138-.84 3.977-.473 1.154zm-.337-.068l.203.04.17-1.243 1.274-3.86c-.188-.05-.37-.116-.566-.15 0 .17-.14.312-.313.312s-.313-.142-.313-.314l.032-.078c-.185-.016-.37-.027-.558-.028l.227 4.088-.156 1.232zm.905.435l.115.172 1-.758 3.632-1.83c-.093-.16-.172-.33-.277-.483l-.053.068c-.148.086-.34.035-.427-.115-.086-.15-.033-.34.116-.426h.004c-.126-.152-.278-.28-.42-.42l-2.71 3.03-.982.76zm.263 1.285l-.076.188 1.148.48 3.402 2.227c.098-.172.208-.334.29-.512l-.082-.012c-.15-.083-.202-.274-.116-.425s.277-.2.426-.115c.06-.166.09-.344.137-.516l-3.975-.84-1.155-.474zm-.367.57l-.172.114.758 1 1.827 3.63c.165-.09.338-.17.493-.28l-.08-.06c-.085-.15-.032-.34.117-.425.15-.087.34-.036.426.112l.003.02c.15-.127.278-.28.418-.42l-3.03-2.71-.76-.983zm.212-.27l-.113.17.982.76 2.71 3.03c.144-.143.3-.273.43-.43h-.006c-.15-.086-.202-.275-.116-.426s.277-.2.426-.117l.054.07c.1-.145.174-.307.262-.46l-3.628-1.837-1-.76zm.223-.637l-.04.203 1.244.172 3.86 1.273c.05-.188.115-.37.15-.565-.172 0-.313-.14-.313-.313 0-.174.14-.313.313-.313l.078.032c.016-.185.028-.37.028-.558l-4.088.227-1.232-.157zm5.293-.631l-.078.032c-.172 0-.313-.14-.313-.313s.14-.312.313-.312c-.033-.19-.098-.366-.146-.55l-3.86 1.266-1.247.17.04.2 1.232-.157 4.088.227v-.005c0-.19-.013-.375-.03-.558zm-7.013 1.8l-.19-.08-.483 1.148-2.233 3.4c.177.102.346.215.532.3l.012-.095c.085-.15.275-.2.425-.115.15.086.203.275.117.424l-.012.01.52.14.838-3.98.473-1.152zm-.568-.367l-.115-.172-1 .758-3.632 1.83c.093.163.173.335.28.49l.062-.08c.148-.085.34-.032.425.116.086.15.035.34-.114.426l-.02.004c.128.152.28.28.42.418l2.713-3.03.982-.76zm.265.211l-.167-.113-.76.982-3.03 2.713c.146.145.278.303.437.436l.003-.023c.085-.147.275-.198.426-.112.148.086.2.275.116.424l-.08.063.448.256 1.845-3.624.76-1zm.64.224l-.202-.042-.172 1.246-1.272 3.86c.19.05.377.116.575.15l-.007-.013c0-.17.14-.31.313-.31s.313.14.313.31l-.04.093c.187.016.37.027.56.027l-.226-4.088.156-1.233zm.34-.04l-.2.04.156 1.233-.227 4.088h.003c.19 0 .38-.01.567-.028l-.038-.09c0-.172.14-.31.313-.31s.313.138.313.31l-.006.014c.19-.033.368-.098.552-.148l-1.263-3.861-.17-1.248zm.322-.1l-.188.074.473 1.154.83 3.98c.185-.05.375-.085.553-.15l-.012-.007c-.086-.15-.033-.34.116-.425.15-.086.34-.035.426.113l.013.098c.17-.08.324-.186.486-.28l-2.218-3.405-.48-1.15z" fill="#FFF"/></svg>