<svg xmlns="http://www.w3.org/2000/svg" width="87" height="57" viewBox="0 0 87 57"><path fill="#05AFCA" d="M0 0h94.2v58.1h-94.2z"/><circle fill="#FEC613" cx="50.5" cy="24.3" r="7.5"/><g fill="#FEC613"><path d="M50.5 15.8c.4 0 .6-.3.6-.6 0-.4-.6-2.6-.6-2.6s-.6 2.1-.6 2.6c0 .3.2.6.6.6zM-24.3 59c-.4 0-.6.3-.6.6 0 .4.6 2.6.6 2.6s.6-2.1.6-2.6c0-.3-.1-.6-.6-.6zM-50.5-32.8c.4 0 .6-.3.6-.6 0-.4-.6-2.6-.6-2.6s-.6 2.1-.6 2.6c0 .3.1.6.6.6zM24.3-42c-.4 0-.6.3-.6.6 0 .4.6 2.6.6 2.6s.6-2.1.6-2.6c0-.4-.2-.6-.6-.6z"/></g><g fill="#FEC613"><path d="M53.8 16.4c.4.2.7 0 .8-.3.2-.4.4-2.6.4-2.6s-1.4 1.7-1.5 2.1c-.2.3-.1.7.3.8zM-27.5 58.4c-.4-.2-.7 0-.8.3-.2.4-.4 2.6-.4 2.6s1.4-1.7 1.5-2.1c.1-.3.1-.6-.3-.8zM-47.3-32.1c.4.2.7 0 .8-.3.2-.4.4-2.6.4-2.6s-1.4 1.7-1.5 2.1c-.1.3-.1.6.3.8zM31.413 35.742c.338-.293.268-.647.029-.854-.293-.338-2.249-1.365-2.249-1.365s1.035 1.944 1.366 2.189c.201.3.516.322.854.029z"/></g><g fill="#FEC613"><path d="M56.5 18.3c.3.3.6.2.9 0 .3-.3 1.4-2.2 1.4-2.2s-1.9 1.1-2.2 1.4c-.3.1-.4.5-.1.8zM-30.3 56.5c-.3-.3-.6-.2-.9 0-.3.3-1.4 2.2-1.4 2.2s1.9-1.1 2.2-1.4c.3-.1.4-.4.1-.8zM-44.5-30.3c.3.3.6.2.9 0 .3-.3 1.4-2.2 1.4-2.2s-1.9 1.1-2.2 1.4c-.4.2-.4.5-.1.8zM18.526 44.406c.424 0 .566-.283.636-.636 0-.424-.566-2.546-.566-2.546s-.566 2.121-.566 2.546c-.071.354.071.636.495.636z"/></g><g fill="#FEC613"><path d="M58.4 21c.2.4.5.5.8.3.4-.2 2.1-1.5 2.1-1.5s-2.2.2-2.6.4c-.3.2-.5.4-.3.8zM-32.1 53.8c-.2-.4-.5-.5-.8-.3-.4.2-2.1 1.5-2.1 1.5s2.2-.2 2.6-.4c.2-.1.4-.4.3-.8zM-42.7-27.5c.2.4.5.5.8.3.4-.2 2.1-1.5 2.1-1.5s-2.2.2-2.6.4c-.3.1-.5.4-.3.8zM2.949 49.976c.338.293.653.271.854-.029.293-.338 1.366-2.189 1.366-2.189s-1.956 1.027-2.249 1.365c-.239.207-.309.561.029.854z"/></g><g fill="#FEC613"><path d="M52.2 15.9c.4.1.7-.2.7-.5.1-.4-.1-2.6-.1-2.6s-1 2-1.1 2.4c-.1.4.1.7.5.7zM-25.9 58.9c-.4-.1-.7.2-.7.5-.1.4.1 2.6.1 2.6s1-2 1.1-2.4c0-.3-.1-.6-.5-.7zM-48.9-32.6c.4.1.7-.2.7-.5.1-.4-.1-2.6-.1-2.6s-1 2-1.1 2.4c0 .3.1.6.5.7zM22.6-42.2c-.4-.1-.7.2-.7.5-.1.4.1 2.6.1 2.6s1-2 1.1-2.4c.1-.3 0-.6-.5-.7z"/></g><path fill="#FEC613" d="M55.3 17.2c.4.2.7.1.9-.2.2-.4.9-2.5.9-2.5s-1.7 1.4-1.9 1.8c-.3.3-.3.7.1.9zM57.6 29c-.2.4-.1.7.2.9.4.2 2.5.9 2.5.9s-1.4-1.7-1.8-1.9c-.3-.2-.7-.3-.9.1zM45.8 31.3c-.4-.2-.7-.1-.9.2-.2.4-.9 2.5-.9 2.5s1.7-1.4 1.9-1.8c.3-.3.3-.6-.1-.9zM43.5 19.6c.2-.4.1-.7-.2-.9-.4-.2-2.5-.9-2.5-.9s1.4 1.7 1.8 1.9c.3.2.6.2.9-.1zM57.6 19.6c.3.4.6.4.9.2.4-.2 1.8-1.9 1.8-1.9s-2.1.7-2.5.9c-.3.1-.4.4-.2.8zM55.3 31.3c-.4.3-.4.6-.2.9.2.4 1.9 1.8 1.9 1.8s-.7-2.1-.9-2.5c-.2-.3-.5-.4-.8-.2zM43.5 29c-.3-.4-.6-.4-.9-.2-.4.2-1.8 1.9-1.8 1.9s2.1-.7 2.5-.9c.3-.1.4-.4.2-.8zM45.8 17.2c.4-.3.4-.6.2-.9-.3-.3-2-1.7-2-1.7s.7 2.1.9 2.5c.2.2.5.4.9.1zM58.9 22.6c.1.4.4.5.7.5.4-.1 2.4-1.1 2.4-1.1s-2.2-.2-2.6-.1c-.4.1-.6.3-.5.7zM52.2 32.6c-.4.1-.5.4-.5.7.1.4 1.1 2.4 1.1 2.4s.2-2.2.1-2.6c-.1-.3-.3-.6-.7-.5zM42.2 25.9c-.1-.4-.4-.5-.7-.5-.4.1-2.4 1.1-2.4 1.1s2.2.2 2.6.1c.3 0 .6-.2.5-.7zM48.9 15.9c.4-.1.5-.4.5-.7-.1-.4-1.1-2.4-1.1-2.4s-.2 2.2-.1 2.6c0 .4.2.6.7.5zM49.2 40.5c-.2 0-.4 0-.6.1-.3 0-.5.1-.8.2h-.3v.2s0 .1-.1.1l-.1.1h-.3c-.1 0-.1 0-.1-.1h-.3c-.1 0-.1 0-.2-.1-.1 0-.1 0-.1-.1-.2.1-.4.2-.5.4-.1.1-.1.2-.1.3 0 .1 0 .3.1.4 0 0 0-.1.1-.2s.2-.2.4-.2c.1-.1.1 0 .1.1 0 0-.1.2 0 .1.4-.2.8-.2 1.2-.2.6-.1 1.2-.1 1.8-.1h1.7c.3 0 .5.1.8 0 .1 0 .2 0 .2-.1-.1-.1-.3-.1-.4-.1h-1.1c-.3 0-.6 0-.9-.1-.1 0-.1-.1-.2 0l-.3.1c-.2 0-.4 0-.6-.1l.4-.5c-.1 0-.2 0-.3-.1.1.2.3 0 .5-.1zm8.7 1.9c-.4.2-.7-.2-1-.3-.2.1-.3.6-.5.8-.3.3-.6-.1-.6-.4-.3.3-.5.9-1 .8-.2-.2-.4-.6-.6-.1-.2.2-.6.6-.8.2-.1-.3-.2-.7-.4-.2-.1.4-.5.6-.9.5-.2-.2.2-.8-.1-.7-.4.2-.6.9-1.1.8-.2-.2.1-.6-.1-.9-.3.3-.6.8-1 .9-.2-.2 0-.7-.1-.8-.5.3-1 .8-1.6.6.2-.9 1.2-1.2 2-1.3 1.4-.2 2.9.1 4.2-.4.2-.1.7-.3.6-.6-.2-.2.4-.1.5-.4 0-.4.3-.3.6-.3 1.4-.1 2.7.2 4 .3.1.7-.6 1.1-1.2.9-.3 0-.7-.6-.6-.1-.1.2-.1.5-.3.7m-11.6-1.3c.3.3.5-.1.8-.2 1-.3 1.8-.9 2.7-1.5.5-.4 1-1 1.6-1.1 1.3-.4 2.8-.4 4.1-.7 1-1.4 2.8-1.9 4.2-2.7.3-.1.5-.4.6-.7.6-.9 1.3-1.7 2.2-2.2.4-.2.9-.4 1.4-.3 0 .6-.4 1.1-.8 1.5l.9-.2c.1.6-.5.9-.9 1.3.2 0 .9.1.5.3-.5.3-1.1.6-1.5 1 .4.1.5.2 0 .3-.2.2-.7.2-.7.5.3.2-.1.4-.3.5-.3.1-.7.2-.3.5-.2.3-.5.3-.9.3.1.3.2.6-.2.8-.9.7-1.9 1.1-3 1.2 1.4.1 2.8-.1 3.9-.9.2-.2 1-.4.5-.5-.2-.1-.7-.2-.7-.3.6-.4 1.4-.3 2.1-.5 0-.2-.5-.2-.7-.2-.5 0-.4-.2 0-.2.6-.2 1.2-.2 1.7-.6l-1.3-.2c.7-.3 1.6-.3 2.2-.8.3-.3-.4-.2-.6-.2-.4.1-.6-.1-.1-.3.8-.6 1.7-.9 2.3-1.8.1-.2.3-.7-.1-.5-.5.2-1 .8-1.6.6 1.2-.9 2.4-2 3.2-3.3 0-.4-.5-.4-.7-.1-.8.7-1.5 1.6-2.5 2.1 1-.9 1.7-2 2.4-3.1.1-.3.5-.7.3-1.1-.3-.3-.8 0-1 .3-.6.8-1.1 1.7-1.8 2.3.7-1.3 1.4-2.7 1.4-4.2 0-.3-.1-.8-.5-.7-.3.1-.3.6-.4.8-.3 1-.4 2.1-1.1 3 .1-.8.4-1.7.2-2.5-.1-.4-.7-.2-.6.2-.7 3.7-3.2 6.9-6.4 8.7-1.5.8-3.1 1.4-4.8 1.6-.4.1-.9 0-1.4.2-1 .8-1.7 2.1-3 2.6-.6.3-1.4.4-1.8.9.5-.1.5 0 .5.1m4-3.8c-.2.4-.3.8-.6 1.1-.8-.7-1.8-.7-2.8-.7-.8 0-1.6-.1-2.3-.7-.6-.5-1.2-1.2-1.9-1.6-.7-.2-1.3-.4-1.8-.8l-2.9-3.2c-.2-.2-.5-.4-.7-.5-.2.1-.1.5-.4.3-.1-.1-.5-.1-.6 0 .3.4.7.9.7 1.5h-.7c.3.5.7.9 1.1 1.2-.2 0-.6 0-.7.1.4.4.9.7 1.5.8.1.2-.2.5.1.6.1.1.6.2.3.3-.2.1-.1.5.1.5.2.1.6.1.6.3-.2.2-.7.4-.2.5.4.2.8.4 1.3.4l-.7.5c1 .6 2.2 1 3.3 1.4.4.2.9.3 1.4.4-1.4-.1-2.7-.5-3.9-1-.6-.3-1.3-.6-1.9-.8l.9-.3c-.6-.1-1.3-.2-1.8-.5.1-.1.4-.2.6-.2.3-.1.5-.2.1-.2-.5-.1-1-.1-1.4-.4 0-.2.5-.1.6-.2.2 0 .5-.1.6-.2-.7-.3-1.7-.1-2.2-.7-.1-.2.4 0 .6-.1.4 0 .8.1 1.2 0-1.1-.5-2.2-.9-3-1.7-.1-.1-.4-.5-.1-.6.6.1 1.1.8 1.7.7.1-.1-.4-.3-.5-.5-1-.8-1.9-1.7-2.6-2.8 0-.4.5-.4.7-.1.7.7 1.4 1.6 2.3 2 .3.2-.2-.2-.3-.3-.9-1-1.7-2-2.3-3.2-.1-.2-.3-.6 0-.7.3-.2.6.1.8.3.6.8 1.1 1.7 1.9 2.4-.7-1.6-1.4-3-1.4-4.5 0-.3 0-.7.4-.7.3 0 .3.4.4.6.3 1.1.5 2.3 1.1 3.3-.1-.8-.4-1.7-.2-2.5 0-.3.3-.4.5-.2.2.4.2.9.3 1.3.8 2.9 2.7 5.4 5.2 7.1 2 1.4 4.4 2.2 6.9 2.4.2-.1.5-.1.7-.1"/><circle fill="#FEC613" cx="47.2" cy="41" r=".1"/><circle fill="#FEC613" stroke="#05AFCA" stroke-width=".071" cx="47.2" cy="41" r=".1"/><path fill="#FEC613" d="M6.2 5s-.5-.4-.7-.2c-.3.3.8 2.1.8 2.8 0 1-.7 1.3-1.6 1.5-.5 0-1.4-.1-1.4-.1.2-.2.3-.3.6-.3-.4-.2-.7-.6-.7-1.2 0-.9.4-1.3.4-2.3 0-.5-.5-1.2-.5-1.2.8.1 1.2.8 1 1.4.1 0 .2 0 .3-.1.1.2 0 .4-.2.5.1.1.2 0 .3 0 0 .2-.1.4-.4.5.9-.1 1.3.4 1.3.9 0 .4-.3.7-.6.7-.1 0-.2 0-.3-.1-.1.1 0 .3 0 .4-.1-.1-.2-.2-.1-.4-.2 0-.3-.1-.4-.2.1-.1.2-.2.4-.2-.2-.2 0-.3.2-.4 0 0-.1.5.2.5.1 0 .3 0 .3-.2-.1-.3-.3-.5-.6-.5s-.6.2-.6.8c0 .5.4.8 1 .8.5 0 .9-.3.9-.8 0-.7-1-2.2-1-2.8 0-.5.4-.7.8-.7.5 0 .9.5.9.5l-.3.4zM6.3 17.2c0 1.1-1 1.7-1.8 1.7-1.1 0-1.6-.6-1.6-1.5 0-.5.1-.8.3-1.2 0 0 1.8-3.7 2.5-5.1.1-.2.1-.4.1-.7 0-.5-.4-.8-.9-.8-.4 0-.9.4-.9.9 0 .6.3.8.6.8.4 0 .5-.2.5-.4s-.1-.3-.2-.3c-.3 0-.2.4-.2.4-.2 0-.3-.2-.2-.4-.1 0-.2-.1-.3-.2l.3-.2c-.1-.2 0-.4.2-.4v.3c.3-.1.9.1.9.6 0 .6-.4 1.1-1.1.9.2.1.3.3.3.5-.1-.1-.3-.1-.3-.1.1.2.2.3.2.6-.1-.1-.3-.2-.4-.1 0 .6-.3 1.4-1.2 1.5.3-.4.5-.8.5-1.2 0-1.3-.4-1.5-.4-2.4 0-.4.2-.8.6-1.1-.3 0-.4-.1-.5-.3.6-.2 1.4-.2 1.9 0 .5.1.9.5 1 .7.1.2.3.9 0 1.6-.3.7-2 4.2-2.5 5.3-.1.2-.2.5-.2.7 0 .7.6.9 1 .9s.8-.3.8-.7c0-.3-.1-.4-.3-.4-.5 0-.4.4-.3.7-.3-.1-.5-.4-.4-.6-.2 0-.3-.1-.5-.3.1-.1.3-.3.5-.3-.1-.4.2-.5.4-.6-.1.3-.1.6.3.6s.6.1.8.3v-1.5c0-.4-.6-.4-1-.3.1-.5.5-.8 1.2-.7-.2-.1-.4-.2-.4-.5 0-.4.3-.9.6-1l.1 4.3zM6.3 20.6c0-1.1-1-1.7-1.8-1.7-1.1 0-1.6.6-1.6 1.5 0 .5.1.8.3 1.2 0 0 1.8 3.7 2.5 5.1.1.2.1.4.1.7 0 .5-.4.8-.9.8-.4 0-.9-.4-.9-.9 0-.6.3-.8.6-.8.4 0 .5.2.5.4s-.1.3-.2.3c-.3 0-.2-.4-.2-.4-.2 0-.3.2-.2.4-.1 0-.2.1-.3.2l.3.2c-.1.2 0 .4.2.4v-.3c.3.1.9-.1.9-.6 0-.6-.4-1.1-1.1-.9.2-.1.3-.3.3-.5-.1.1-.3.1-.3.1.1-.2.2-.3.2-.6-.1.1-.3.2-.4.1.3-.5-.1-1.3-.9-1.5.3.4.5.8.5 1.2 0 1.3-.4 1.5-.4 2.4 0 .4.2.8.6 1.1-.3.1-.4.2-.5.4.6.2 1.4.2 1.9 0 .5-.1.9-.5 1-.7.1-.2.3-.9 0-1.6-.3-.7-2-4.2-2.5-5.3-.1-.2-.2-.5-.2-.7 0-.7.6-.9 1-.9s.8.3.8.7c0 .3-.1.4-.3.4-.5 0-.4-.4-.3-.7-.3.1-.5.4-.4.6-.2 0-.3.1-.5.3-.3 0-.1.1.1.1-.1.4.2.5.4.6-.1-.3-.1-.6.3-.6s.6-.1.8-.3v1.5c0 .4-.6.4-1 .3.1.5.5.8 1.2.7-.2.1-.4.2-.4.5 0 .4.3.9.6 1l.2-4.2zM6.2 5s.5-.4.7-.2c.3.3-.9 2.1-.9 2.8 0 1 .7 1.3 1.6 1.5.5 0 1.4-.1 1.4-.1-.1-.2-.2-.3-.5-.3.3-.2.7-.5.7-1.1 0-.9-.4-1.3-.4-2.3 0-.6.4-1.3.4-1.3-.8.1-1.2.8-1 1.4-.1 0-.2 0-.3-.1-.1.2 0 .4.1.6-.1.1-.2 0-.3 0 0 .2.1.4.4.5-.8-.2-1.2.3-1.2.8 0 .4.3.7.6.7.1 0 .2 0 .3-.1.1.1 0 .3 0 .4.1-.1.3-.2.2-.4.2 0 .3-.1.4-.2-.2-.1-.3-.2-.4-.2.1-.2 0-.4-.2-.5 0 0 .1.5-.2.5-.1 0-.3 0-.3-.2s.2-.4.5-.4.6.2.6.8c0 .5-.4.8-1 .8-.4 0-.8-.3-.8-.8 0-.7 1-2.2 1-2.8 0-.5-.4-.7-.8-.7-.5 0-.9.5-.9.5l.3.4zM6 17.2c0 1.1 1 1.7 1.8 1.7 1.1 0 1.6-.6 1.6-1.5 0-.5-.1-.8-.3-1.2 0 0-1.8-3.7-2.5-5.1-.1-.2-.1-.4-.1-.7 0-.5.4-.8.9-.8.4 0 .9.4.9.9 0 .6-.3.8-.6.8-.4 0-.5-.2-.5-.4s.1-.3.2-.3c.3 0 .2.4.2.4.3 0 .4-.2.4-.4.1 0 .2-.1.3-.2l-.3-.2c0-.2-.1-.3-.3-.4v.3c-.3-.1-.9.1-.9.6 0 .6.4 1.1 1.1.9-.2.1-.3.3-.3.5.1-.1.3-.1.3-.1-.1.2-.2.3-.2.6.1-.1.3-.2.4-.1-.1.6.3 1.4 1.1 1.5-.3-.4-.5-.8-.5-1.2 0-1.3.4-1.5.4-2.4 0-.4-.2-.8-.6-1.1.3 0 .5-.1.5-.3-.5-.2-1.4-.2-1.8 0-.5.1-.9.5-1 .7-.1.2-.3.9 0 1.6.3.7 2 4.2 2.5 5.3.1.2.2.5.2.7 0 .7-.6.9-1 .9s-.8-.3-.8-.7c0-.3.1-.4.3-.4.5 0 .4.4.3.7.3-.1.5-.4.4-.6.2 0 .3-.1.5-.3-.1-.1-.3-.3-.5-.3.1-.4-.1-.5-.4-.6.1.3.1.6-.3.6s-.6.1-.8.3v-1.5c0-.4.6-.4 1-.3-.1-.5-.5-.8-1.2-.7.2-.1.4-.2.4-.5 0-.4-.3-.9-.6-1l-.2 4.3zM6 20.6c0-1.1 1-1.7 1.8-1.7 1.1 0 1.6.6 1.6 1.5 0 .5-.1.8-.3 1.2 0 0-1.8 3.7-2.5 5.1-.1.2-.1.4-.1.7 0 .5.4.8.9.8.4 0 .9-.4.9-.9 0-.6-.3-.8-.6-.8-.4 0-.5.2-.5.4s.1.3.2.3c.3 0 .2-.4.2-.4.2 0 .3.2.2.4.1 0 .2.1.3.2l-.3.2c.1.2 0 .4-.2.4v-.3c-.3.1-.9-.1-.9-.6 0-.6.4-1.1 1.1-.9-.2-.1-.3-.3-.3-.5.1.1.3.1.3.1-.1-.2-.2-.3-.2-.6.1.1.3.2.4.1-.3-.5.1-1.3.9-1.5-.3.4-.5.8-.5 1.2 0 1.3.4 1.5.4 2.4 0 .4-.2.8-.6 1.1.6-.1.8.1.8.2-.6.2-1.4.2-1.9 0-.5-.1-.9-.5-1-.7-.1-.2-.3-.9 0-1.6.3-.7 2-4.2 2.5-5.3.1-.2.2-.5.2-.7 0-.7-.6-.9-1-.9s-.8.3-.8.7c0 .3.1.4.3.4.5 0 .4-.4.3-.7.3.1.5.4.4.6.2 0 .3.1.5.3-.1.1-.3.3-.5.3.1.4-.2.5-.4.6.1-.3.1-.6-.3-.6s-.6-.1-.8-.3v1.5c0 .4.6.4 1 .3-.1.5-.5.8-1.2.7.2.1.4.2.4.5 0 .4-.3.9-.6 1l-.1-4.2zM6.2 52.5s-.5.4-.7.2c-.3-.4.9-2.2.9-2.8 0-1-.7-1.3-1.6-1.5-.6-.1-1.5 0-1.5 0 .2.2.3.3.6.3-.3.2-.7.5-.7 1.1 0 .9.4 1.3.4 2.3 0 .6-.5 1.3-.5 1.3.8-.1 1.2-.8 1-1.4.1 0 .2 0 .3.1.1-.2 0-.4-.2-.5.1-.1.2 0 .3 0 0-.2-.1-.4-.4-.5.7.2 1.2-.3 1.2-.9 0-.4-.3-.7-.6-.7-.1 0-.2 0-.3.1-.1-.1 0-.3 0-.4-.2.1-.3.2-.2.4-.2 0-.3.1-.4.2.3.2.4.2.6.2-.1.2 0 .4.2.5 0 0-.1-.5.2-.5.1 0 .3 0 .3.2s-.2.4-.5.4-.6-.2-.6-.8c0-.5.4-.8 1-.8.5 0 .9.3.9.8 0 .7-1 2.2-1 2.8 0 .5.4.7.8.7.5 0 .9-.5.9-.5l-.4-.3zM6.3 40.3c0-1.1-1-1.7-1.8-1.7-1.1 0-1.6.6-1.6 1.5 0 .5.1.8.3 1.2 0 0 1.8 3.7 2.5 5.1.1.2.1.4.1.7 0 .5-.4.8-.9.8-.4 0-.9-.4-.9-.9 0-.6.3-.8.6-.8.4 0 .5.2.5.4s-.1.3-.2.3c-.3 0-.2-.4-.2-.4-.2 0-.3.2-.2.4-.1 0-.2.1-.3.2l.3.2c-.1.2 0 .4.2.4v-.3c.3.1.9-.1.9-.6 0-.6-.4-1.1-1.1-.9.2-.1.3-.3.3-.5-.1.1-.3.1-.3.1.1-.2.2-.3.2-.6-.4 0-.5.1-.7 0 .3-.5-.1-1.3-.9-1.5.3.4.5.8.5 1.2 0 1.3-.4 1.5-.4 2.4 0 .4.2.8.6 1.1-.3.1-.4.2-.5.4.6.2 1.4.2 1.9 0 .5-.1.9-.5 1-.7.1-.2.3-.9 0-1.6-.3-.7-2-4.2-2.5-5.3-.1-.2-.2-.5-.2-.7 0-.7.6-.9 1-.9s.8.3.8.7c0 .3-.1.4-.3.4-.5 0-.4-.4-.3-.7-.3.1-.5.4-.4.6-.2 0-.3.1-.5.3.1.1.3.3.5.3-.1.4.2.5.4.6-.1-.3-.1-.6.3-.6s.6-.1.8-.3v1.5c0 .4-.6.4-1 .3.1.5.5.8 1.2.7-.2.1-.4.2-.4.5 0 .4.3.9.6 1l.1-4.3zM6.3 36.9c0 1.1-1 1.7-1.8 1.7-1.1 0-1.6-.6-1.6-1.5 0-.5.1-.8.3-1.2 0 0 1.8-3.7 2.5-5.1.1-.2.1-.4.1-.7 0-.5-.4-.8-.9-.8-.4 0-.9.4-.9.9 0 .6.3.8.6.8s.4-.2.4-.5c0-.2-.1-.3-.2-.3-.3 0-.2.4-.2.4-.2 0-.3-.2-.2-.4-.1 0-.2-.1-.3-.2 0 .1.1 0 .3 0-.1-.2 0-.4.2-.4v.3c.3-.1.9.1.9.6 0 .6-.4 1.1-1.1.9.2.1.3.3.3.5-.1-.1-.3-.1-.3-.1.1.2.2.3.2.6-.1-.1-.3-.2-.4-.1.3.5-.1 1.3-.9 1.5.3-.4.5-.8.5-1.2 0-1.3-.4-1.5-.4-2.4 0-.4.2-.8.6-1.1-.3-.1-.4-.2-.5-.4.6-.2 1.4-.2 1.9 0 .5.1.9.5 1 .7.1.2.3.9 0 1.6-.3.7-2 4.2-2.5 5.3-.1.2-.2.5-.2.7 0 .7.6.9 1 .9s.8-.3.8-.7c0-.3-.1-.4-.3-.4-.5 0-.4.4-.3.7-.3-.1-.5-.4-.4-.6-.2 0-.3-.1-.5-.3.1-.1.3-.3.5-.3-.1-.4.2-.5.4-.6-.4.3-.4.6.1.6.4 0 .6.1.8.3v-1.5c0-.4-.6-.4-1-.3.1-.5.5-.8 1.2-.7-.2-.1-.4-.2-.4-.5 0-.4.3-.9.6-1l.1 4.3zM6.2 52.5s.5.4.7.2c.3-.4-.9-2.2-.9-2.8 0-1 .7-1.3 1.6-1.5.6-.1 1.5 0 1.5 0-.2.2-.3.3-.6.3.3.2.7.5.7 1.1 0 .9-.4 1.3-.4 2.3 0 .6.5 1.3.5 1.3-.8-.1-1.2-.8-1-1.4-.1 0-.2 0-.3.1-.1-.2 0-.4.2-.5-.1-.1-.2 0-.3 0 0-.2.1-.4.4-.5-.7.2-1.2-.3-1.2-.9 0-.4.3-.7.6-.7.1 0 .2 0 .3.1.1-.1 0-.3 0-.4.2.1.3.2.2.4.2 0 .3.1.4.2-.4.2-.5.2-.6.2.1.2 0 .4-.2.5 0 0 .1-.5-.2-.5-.1 0-.3 0-.3.2s.2.4.5.4.6-.2.6-.8c0-.5-.4-.8-1-.8-.5 0-.9.3-.9.8 0 .7 1 2.2 1 2.8 0 .5-.4.7-.8.7-.5 0-.9-.5-.9-.5l.4-.3zM6 40.3c0-1.1 1-1.7 1.8-1.7 1.1 0 1.6.6 1.6 1.5 0 .5-.1.8-.3 1.2 0 0-1.8 3.7-2.5 5.1-.1.2-.1.4-.1.7 0 .5.4.8.9.8.4 0 .9-.4.9-.9 0-.6-.3-.8-.6-.8-.4 0-.5.2-.5.4s.1.3.2.3c.3 0 .2-.4.2-.4.2 0 .3.2.2.4.1 0 .2.1.3.2l-.3.2c.1.2 0 .4-.2.4v-.3c-.3.1-.9-.1-.9-.6 0-.6.4-1.1 1.1-.9-.2-.1-.3-.3-.3-.5.1.1.3.1.3.1-.1-.2-.2-.3-.2-.6.4 0 .5.1.7 0-.3-.5.1-1.3.9-1.5-.3.4-.5.8-.5 1.2 0 1.3.4 1.5.4 2.4 0 .4-.2.8-.6 1.1.3.1.5.2.5.3-.6.2-1.4.2-1.9 0-.5-.1-.9-.5-1-.7-.1-.2-.3-.9 0-1.6.3-.7 2-4.2 2.5-5.3.1-.2.2-.5.2-.7 0-.7-.6-.9-1-.9s-.8.3-.8.7c0 .3.1.4.3.4.5 0 .4-.4.3-.7.3.1.5.4.4.6.2 0 .3.1.5.3-.1.1-.3.3-.5.3.1.4-.2.5-.4.6.1-.3.1-.6-.3-.6s-.6-.1-.8-.3v1.5c0 .4.6.4 1 .3-.1.5-.5.8-1.2.7.2.1.4.2.4.5 0 .4-.3.9-.6 1l-.1-4.2zM6 36.9c0 1.1 1 1.7 1.8 1.7 1.1 0 1.6-.6 1.6-1.5 0-.5-.1-.8-.3-1.2 0 0-1.8-3.7-2.5-5.1-.1-.2-.1-.4-.1-.7 0-.5.4-.8.9-.8.4 0 .9.4.9.9 0 .6-.3.8-.6.8-.4 0-.5-.2-.5-.4s.1-.3.2-.3c.3 0 .2.4.2.4.2 0 .3-.2.2-.4.1 0 .2-.1.3-.2.1 0 0-.1-.1-.1.1-.2 0-.4-.2-.4v.3c-.3-.1-.9.1-.9.6 0 .6.4 1.1 1.1.9-.2.1-.3.3-.3.5.1-.1.3-.1.3-.1-.1.2-.2.3-.2.6.1-.1.3-.2.4-.1-.3.5.1 1.3.9 1.5-.3-.4-.5-.8-.5-1.2 0-1.3.4-1.5.4-2.4 0-.4-.2-.8-.6-1.1.4-.1.6-.2.6-.4-.6-.2-1.4-.2-1.9 0-.5.1-.9.5-1 .7-.1.2-.3.9 0 1.6.3.7 2 4.2 2.5 5.3.1.2.2.5.2.7 0 .7-.6.9-1 .9-.3.1-.8-.3-.8-.7 0-.3.1-.4.3-.4.5 0 .4.4.3.7.3-.1.5-.4.4-.6.2 0 .3-.1.5-.3-.1-.1-.3-.3-.5-.3.2-.3 0-.5-.3-.6.1.3.1.6-.3.6s-.6.1-.8.3v-1.5c0-.4.6-.4 1-.3-.1-.5-.5-.8-1.2-.7.2-.1.4-.2.4-.5 0-.4-.3-.9-.6-1l-.2 4.3z"/></svg>