<svg xmlns="http://www.w3.org/2000/svg" width="85" height="57" viewBox="0 0 85 57"><path fill="#FFF" d="M-.02.154h85.04v56.692h-85.04z"/><path fill="#010101" d="M20.937 5.62l1.923 1.277-7.843 11.817-1.923-1.276zm2.953 1.966l1.92 1.278-7.854 11.81-1.922-1.278zm2.95 1.964l1.924 1.28-7.862 11.81-1.923-1.28zm33.114 31.26l1.923 1.277-3.61 5.43-1.922-1.28zm4.254-6.38l1.922 1.28-3.618 5.428-1.922-1.28zm-1.514 8.203l1.92 1.28-3.618 5.425-1.92-1.28zm4.243-6.385l1.922 1.28-3.614 5.426-1.922-1.28zm-1.513 8.202l1.924 1.28-3.607 5.43-1.923-1.28zm4.249-6.38l1.922 1.28-3.612 5.427-1.922-1.28zm-8.811-20.885l1.928-1.27 3.582 5.447-1.93 1.268zm-4.214-6.405l1.928-1.27 3.583 5.45-1.93 1.268zm2.744-1.806l1.928-1.27 7.802 11.848-1.928 1.27zm6.965 4.596l1.928-1.27 3.584 5.448-1.93 1.27zm-4.217-6.405l1.93-1.268 3.58 5.448-1.93 1.268zm-48.976 32.225l1.928-1.267 7.796 11.853-1.928 1.268zm5.49-3.61l1.93-1.27 7.798 11.85-1.928 1.268zm1.469 8.21l1.928-1.27 3.586 5.445-1.93 1.27zm-4.215-6.406l1.93-1.27 3.584 5.447-1.93 1.27z"/><circle fill="#223A74" cx="42.555" cy="28.522" r="14.199"/><path fill="#C62032" d="M56.754 28.522c0-7.842-6.357-14.2-14.2-14.2-5.348 0-10 2.962-12.422 7.33-3.165 8.113 7.265 13.98 12.393 6.925 5.27-7.16 15.554-1.212 12.4 6.903 1.16-2.057 1.83-4.427 1.83-6.958z"/></svg>