<svg xmlns="http://www.w3.org/2000/svg" width="87" height="57" viewBox="0 0 87 57"><path fill="#CD2031" d="M.2-1h86.5v57.7h-86.5z"/><path fill="#FED208" d="M.2-1h57.7v57.7h-57.7z"/><path fill="#214DA1" d="M.2-1h28.8v57.7h-28.8z"/><path fill="#B08056" d="M40.7 32.8l1.5.8-2.8 5.1-1.1.7 1.9.7 1.9-2.2-.3 1.5-.6 1.4 2.3 1.3 2.5-1.5-1.2-2.6.4-.1 1.6 2.3 1.8-.9-2.3-2.7-1.5-3.2 1.6-.5 1.1 1 .1-.6.6.2-.1-.5.6.1-.7-1.1 1.8-1.5 1.1 3.5 1.7 1.9h.3l1.2 1.5v-20.7l-2.2-2.3-2.2 1.7.1 1.9-1 .1-1.4.7-.8.3-.4.1-.5-.6-.7-1.3v-1.3l.4-.9-.1-.8h.4l-.2-.5.3-.2-.5-.4.2-.2-1.9-.8-1.4-.1-.3.2-.2.3.3 1.1-.3.4.3.8.1 1.6-.4 1.5-.6 1-.3.1-.8-.1-1.7-.9-1-.1-.1-2-2-1.6-2 2.2-.3.7.1 20 1.3-1.6.3.1 1.4-1.5 1.1-2.9.4-1.2 1.5 1.8-.6 1.1.6-.1v.5l.5-.2.1.6z"/><path fill="#010101" d="M40.4 10.7c-.2 0-.4.1-.5.1.2 0 .3.2.3.4v.5h-.5c-.2 0-.3-.1-.4-.3-.1.1-.1.3-.1.5s.1.4.1.5c0-.2.2-.3.4-.3h.5v2.3c0 .2-.1.3-.3.4.2 0 .4.3.5.5.1-.2.2-.5.5-.5-.2-.1-.3-.2-.3-.4v-2.3h.5c.2 0 .3.1.4.3.1-.1.1-.3.1-.5s-.1-.4-.1-.5c0 .2-.2.3-.4.3h-.5v-.5c0-.2.1-.3.3-.4-.1 0-.3-.1-.5-.1z"/><path fill="#F4D40E" d="M40.4 10.8h-.3c.1.1.2.2.2.4v.6h-.6c-.2 0-.3-.1-.4-.2v.6c.1-.1.2-.2.4-.2h.6v2.3c0 .1-.1.3-.2.4.1 0 .1.1.2.2l.1.2.1-.2.2-.2c-.1-.1-.2-.2-.2-.4v-2.4h.6c.2 0 .3.1.4.2v-.6c-.1.1-.2.2-.4.2h-.6v-.6c0-.2.1-.3.2-.4-.1.2-.2.1-.3.1z"/><path fill="#D1202C" d="M36.6 37.5l.6-.4.4-.5.2-.5 1.7-2.3-.1-.5-.3.2-.2-.5-.2.1-1.4 2.1h-.7l-.7.3-.2.8.1.3zm13.9-2.3h-.7l-1.4-2.1-.2-.1-.1.4-.4-.1-.2.4 1.9 2.6.2.4.8.8.2-.1.9-1-.2-.7z"/><path fill="#010101" d="M37.5 36.9l1 .6-.3 1.2-1-.6zm-4.9-11.1l-.4.2 4.2 9.3h.4l-4.2-9.5zm5 10.9l-.3.3.2.4.4-.2-.3-.5z"/><path fill="#F4D40E" d="M37.6 37.3l.7.3-.2.7-.6-.3z"/><path fill="#2E50A3" d="M37.4 25.7v5l.4.6 2.3 1.2 3 1.4.4.4 2.6-1.4 3-1.4.5-.9v-4.9z"/><path fill="#D1202C" d="M37.3 19.7l.2.4v5.7l.2.2 1.8.2 1.9-.3s1.1.2 1.9.3v.1s.3 0 .4-.1c.1 0 .4.1.4.1v-.1c.8-.1 1.9-.3 1.9-.3l1.9.3 1.8-.2.2-.2v-5.7l.2-.4h-12.8z"/><path fill="#010101" d="M41.3 26s-1.3-.3-1.8-1c-.9.8-1.9 1-1.9 1s1.1.5 1.9 1.1c.4-.4 1.8-1.1 1.8-1.1zm4.5 0s1.4.6 1.8 1.2c.8-.6 1.9-1.1 1.9-1.1s-1-.3-1.9-1c-.5.6-1.8.9-1.8.9zm-2.3-5.8l-.4 1-1-.5.5 1-1 .4 1 .4-.5 1 1-.5.4 1 .4-1 1 .5-.5-1 1-.4-1-.4.5-1-1 .5-.4-1z"/><path fill="#F4D40E" d="M41.8 27.6l.4.4-.4.3-.4-.4zm3.5-.1l-.4.4.3.4.5-.4zm0 2.1l.3-1-.8.1-.1.5-.1 1.1.3.7.4.1zm-3.1-.9l-.7-.1.3 1.3v1.2l.3-.3.3-.5v-1zm4.3.7l-.4.5-.1.8.6.7h.2l-.1-.8.7-.8.7-.2-.8-.4zm-5.6 1l-.2-.2.3-.1.1-.5-.4-.5-.3.1-.2.1-.1-.3-.5-.3-.3.2-.2.4.1.3h-.4l-.3.3-.1.4.3.2.3.1h.1l-.1.4.1.3.4.2.4-.1.2-.4.3.3.4-.1.3-.4z"/><path fill="#FED208" d="M43.5 20.9l.2.7.6-.3-.3.6.7.2-.7.2.3.6-.6-.3-.2.7-.2-.7-.6.4.3-.6-.7-.2.7-.2-.3-.6.6.3.2-.8z"/><path fill="#010101" d="M41.4 20c-.1.4-2.2 1.3-2.2 3.1 0 2.3 2.1 2.8 2.1 2.8v.1l-.5 1s.9 0 1.3.4c.6.5.5 1.5.5 2.2 0 .6-.1 1.2-.4 1.4-.4.3-.7.4-.7.8 0 .3.3.4.7.6.5.3.5.7 1.3.7s.8-.4 1.3-.7c.4-.2.7-.3.7-.6 0-.4-.3-.4-.7-.8-.3-.3-.4-.9-.4-1.4 0-.7-.1-1.7.5-2.2.5-.4 1.3-.4 1.3-.4l-.4-1-.1-.2s2.1-.5 2.1-2.8c0-1.8-2.1-2.6-2.2-3.1-.2.7.7 1.7.7 2.9 0 1.5-1.1 1.6-1.1 1.6-.3 0-.4.2-.5.2-.2 0-.3-.3-.6-.3l-.6.3c-.3 0-.4-.3-.6-.3-.2 0-.3.3-.6.3-.1 0-.2-.2-.5-.2 0 0-1.1-.1-1.1-1.6 0-1 .9-2.1.7-2.8z"/><path fill="#FED208" d="M39.5 25.4c.4.5 1.1.7 1.1.7l-1.1.8-1.2-.8c-.1 0 .7-.2 1.2-.7zm1.6-4.7c.1.2-.7 1.3-.7 2.3 0 1.2.6 1.8 1.4 1.8l.5.2.6-.3c.2 0 .3.3.6.3s.5-.3.6-.3c.1 0 .3.3.6.3.1 0 .3-.2.5-.2.8 0 1.4-.7 1.4-1.8 0-.9-.8-2.1-.7-2.3 0 0 1.6 1.1 1.6 2.4 0 2.1-2.1 2.6-2.1 2.6l.5 1.1s-.7.1-1.1.4c-.5.4-.5 1.6-.5 2.4 0 .9 0 1.3.4 1.6.4.3.6.3.6.6 0 .2-.3.3-.6.5-.4.2-.5.5-1 .5-.6 0-.6-.3-1-.5s-.6-.3-.6-.5c0-.3.3-.3.6-.6s.4-.7.4-1.6c0-.8 0-2-.5-2.4-.4-.3-1.1-.4-1.1-.4l.5-1.1s-2.1-.5-2.1-2.6c-.3-1.3 1.2-2.4 1.2-2.4zm6.5 4.7c.5.5 1.2.7 1.2.7s-.8.4-1.2.8c-.4-.4-1.1-.8-1.1-.8s.7-.2 1.1-.7z"/><path fill="#010101" d="M41.8 27.4l-.5.5.5.5.5-.5-.5-.5zm3.5 0l-.5.5.5.5.5-.5-.5-.5z"/><path fill="#FED208" d="M41.8 27.7l.3.3-.3.3-.3-.3.3-.3zm3.5 0l.3.3-.3.3-.3-.4.3-.2z"/><path fill="#010101" d="M41.3 28.4c.1.2.3 1 .3 2 0 .6-.1 1-.1 1s.7-.2.9-.9c.1-.3.1-1.6-.2-1.8l-.9-.3zm4.4 0l-.9.2c-.3.2-.3 1.5-.2 1.8.1.7.9.9.9.9s-.1-.3-.1-1c0-.8.2-1.6.3-1.9zm-6.1.2h-.1c-.3.1-.5.4-.4.7 0 0 0 .1.1.1h-.2c-.3 0-.6.3-.6.6s.2.6.6.6h.1l-.1.1c-.1.3 0 .7.3.8.3.1.7 0 .8-.3v-.1l.1.1c.3.2.6.2.8-.1.2-.3.2-.6-.1-.8l-.1-.1s.1 0 .1-.1c.3-.2.4-.6.2-.8-.1-.2-.3-.3-.5-.3-.1 0-.2 0-.3.1l-.1.1v-.1c-.1-.3-.3-.5-.6-.5z"/><path fill="#FED208" d="M41.7 28.7l.5.1c.2.3.2.7.2 1.2 0 .6-.4.8-.4.8-.1-1.3-.2-1.7-.3-2.1zm3.7 0c-.1.4-.2.8-.2 2.2 0 0-.4-.2-.4-.8 0-.6 0-1 .2-1.2l.4-.2zm-5.8.2c.2 0 .4.1.5.4v.3h-.2c-.2 0-.4.1-.5.2l-.1-.1s0-.1-.1-.1c-.1-.4.1-.6.4-.7z"/><path fill="#010101" d="M47.1 29.1c-.8 0-1.3.6-1.3 1.3.1.6.6 1.1 1.2 1.3-.1-.2-.2-.4-.2-.6-.1-.7.5-1.3 1.3-1.3h.4c-.3-.4-.8-.7-1.4-.7z"/><path fill="#FED208" d="M40.6 29.3c.2 0 .3.1.4.2.1.2.1.5-.1.6 0 0-.1 0-.1.1h-.1c0-.3-.2-.5-.4-.6 0 0 0-.1.1-.1l.1-.1c-.1-.1 0-.1.1-.1zm6.5.1c.2 0 .5.1.7.2-.8.1-1.3.8-1.2 1.6-.2-.2-.4-.5-.4-.8-.1-.6.3-1 .9-1zm-8 .2h.2s.1 0 .1.1c-.1.1-.1.3-.1.4 0 .1 0 .2.1.3 0 0-.1 0-.1.1h-.1c-.3 0-.5-.2-.4-.5-.2-.2 0-.4.3-.4zm.8.1c.3 0 .5.2.5.5s-.2.5-.5.5-.5-.2-.5-.5.2-.5.5-.5zm.6.5h.1s.1 0 .1.1c.2.2.2.5.1.7-.2.2-.5.2-.7.1l-.1-.1v-.1c.3-.2.5-.4.5-.7zm-1.2.4c.1.2.3.3.6.3h.1v.2c-.1.2-.4.4-.6.3-.2-.1-.4-.4-.3-.6 0-.1.1-.1.2-.2z"/><path fill="#010101" d="M42.7 31.7c-.4 0-.7.1-.7.2s.3.2.7.2c.1 0 .2-.1.2-.2.1-.2-.1-.2-.2-.2zm1.6 0c-.1 0-.2.1-.2.2s.1.2.2.2c.4 0 .7-.1.7-.2s-.2-.2-.7-.2zm12.3-7.5l-.7.5.1.2s-.1 0-.2.2c-.1.1 0 .3 0 .3s-.7-.1-.8 0c-.1.1 0 .5 0 .9-.1.6-.3.5-.3.6 0 .1.1.3.1.3s-.1 0-.2.1v.4c-.3.6-.7 1.5-1 2l-.2.2c-.1.1 0 .2 0 .2s-.2 0-.3.1c-.1.1 0 .3 0 .3s-.1 0-.2.1v.2c-.4.8-.9 1.7-1.1 2.2-.1.2-.5.2-.7.7-.2.4.1.7.1.7s-.3 0-.4.2c-.1.2 0 .4.2.5.2.1.5 0 .5-.1.1-.2-.1-.4-.1-.4s.4.1.6-.3c.2-.4 0-.7.1-.9.3-.6.7-1.5 1.1-2.2l.2-.1c.1-.1 0-.2 0-.2s.2-.1.3-.2c.1-.1 0-.3 0-.3l.2-.2.1-.3 1-2 .3-.2v-.2s.2 0 .3-.1c.1-.1-.1-.2.3-.6.3-.3.8-.5.8-.6 0-.1-.5-.7-.5-.7s.2 0 .3-.1c.1-.1 0-.3 0-.3h.2l-.1-.9zm-6.8 13c-.1 0-.2.1-.2.1v.2s-.2-.1-.3 0c-.1 0 0 1.1 0 1.1s.9-.6.9-.7c0-.1-.2-.2-.2-.2l.2-.1c0-.1 0-.2-.2-.3-.1-.1-.2-.1-.2-.1zm-7.1-25.2c-.2 0-.6 0-.8.1-.2.1-.2.3-.2.3-.1.1-.4.1-.5.1-.8 0-.8.9-.8.9s.2-.3.6-.3c.6 0 1.1.3 1.1.4l-.1.1c-.4 0-1-.2-1.3-.2v.1c.7.2 1.4.6 1.4 2.1 0 1-.1 1.9-.6 2.7-.2.3-.4.5-.7.7-.1 0-.7-.2-1.2-.5-.8-.4-1.1-.8-2-.9v-.7c0-.4.1-.7.1-1-.4-.1-1.4-1.4-2.4-1.9-1.4.9-2.5 2.4-2.5 3.1v20.1c0 .3-.2.7-.2.7.5-.2 1.5-1.5 1.7-2v.2c.8-.4 1.4-1.3 1.6-1.8v.2c.7-.6 1.6-4.2 1.6-4.2v-.8s-.6 3-1.3 3.6v-12.5l.6.5.8-.8v-.6l-.7.7v-1.8c.1-.2.2-.3.2-.4.1.2.5.9 1 1.2.1-.3.6-.6.6-.6s.2.5.4.6c.1-.2.7-.5.7-.5s-.5.1-.7.3c-.2 0-.2-.7-.2-.7s-.7.3-.8.6c-.1 0-.4-.6-.4-.8h.5c.2 0 .5.1.7.2l.9.4c.4.2.9.2 1.1.2-.2.1-.4.2-.6.4 0 0 .9 0 1.5-.3l.6-.4c-.1.2-.2.5-.4.7.9-.1 1.3-.6 1.5-.8l.3.6c.2-.2.3-.5.3-.6.1.2.6.7 1.5.8-.2-.2-.3-.5-.4-.7.2.2.4.3.6.4.6.3 1.5.3 1.5.3-.2-.1-.4-.2-.6-.4.2 0 .7 0 1.1-.2l.9-.4c.3-.1.5-.2.7-.2h.5c-.1.2-.3.8-.4.8-.1-.3-.8-.6-.8-.6s0 .7-.2.7c-.2-.2-.7-.3-.7-.3s.6.4.7.5c.3-.1.4-.6.4-.6s.5.3.6.6c.5-.4.8-1 1-1.2.1.1.1.2.2.4v1.8l-.7-.7v.6l.8.8.6-.5v12.7c-.7-.6-1.3-3.6-1.3-3.6v.8s.9 3.6 1.6 4.2v-.2c.3.5.8 1.4 1.6 1.8v-.3c.2.5 1.1 1.8 1.7 2 0 0-.2-.4-.2-.7v-20.1c0-.7-1.1-2.2-2.5-3.1-1 .6-2 1.8-2.4 1.9l.1 1v.7c-.9 0-1.3.5-2 .9-.4.2-1 .4-1.2.5-.3-.2-.5-.4-.7-.7-.4-.7-.6-1.5-.6-2.3l.4-1v-.7c.1 0 .4.3.4.3s0-.7-.2-.8c0 0 .1-.1.4-.1-.1-.2-.5-.5-.5-.5l.1-.1c.1-.1.3-.1.4-.1l-.4-.1c-.4-.1-.8-.3-1.2-.5-1.3-.4-1.9-.5-2.2-.5zm0 .2h.2c.7 0 1.3.3 1.9.6l.5.2-.2.2s.3.1.5.3c0 0-.3 0-.3.2.2 0 .3.2.3.4l-.4-.1s.1.5.1 1c0 .3-.4.6-.4 1 0 1.4.4 1.9.6 2.4.1.2.2.4.3.5-.7-.4-1.3-.9-1.3-1.3v-1.6h-.2v1.7c0 .3.1.5.1.5.1.4.3.9.5 1.1-.7-.4-1-.8-1-1v-2.3h-.2v2.5c-.1.1-.2.3-.3.3-.1 0-.2-.2-.3-.3v-2.5h-.2v2.3c0 .2-.3.6-1 1 .1-.2.4-.8.5-1.1 0 0 .1-.2.1-.5v-1.7h-.2v1.7c0 .4-.5.9-1.2 1.3.2-.1.2-.3.3-.5.3-.5.6-1.1.6-2.8 0-.6-.1-1.1-.3-1.4-.1-.1-.1-.4.3-.4.2 0 .7.4.7.4s0-.3-.2-.4c0 0-.1-.1-.1-.2s.1-.2.2-.2-.8-.2-.8-.5c0-.1 0-.1.2-.1s.6.3.9.3c.2 0 .3-.1.6-.1l1.2.6c-.2-.2-.6-.7-1.2-.7h-.6c-.2 0-.5-.2-.8-.2h-.4c-.1-.1 0-.1 0-.2.1-.1.3-.2.6-.2.2-.2.3-.2.4-.2zm-7.5 2.6s1.3 1.2 1.8 1.4v1.6c-.3-.1-.7-.6-.9-.9v-.2c0-.2.1-.3.2-.3l-.2-.1c-.1.1-.2.2-.2.4v.1l-.1.1-.5.5-.6-.9v-.2c0-.1.1-.3.2-.4l-.2-.1c-.1.1-.2.3-.2.4v.2l-.7.7s-.3-.6-.3-.7c.5-.6 1.1-1.2 1.7-1.6zm16.6 0c.6.4 1.3 1.1 1.7 1.6-.1.2-.3.7-.3.7l-.7-.7v-.2c0-.2-.1-.3-.2-.4l-.2.1c.1.1.2.3.2.4v.2l-.6.9-.5-.5-.1-.1v-.1c0-.2-.1-.3-.2-.4l-.2.1c.1.1.2.2.2.3v.2c-.2.3-.6.8-.9.9v-1.6c.5-.2 1.8-1.4 1.8-1.4zm-18.4 1.9l.3.5v1l-.5.4v-1.5l.2-.4zm20.3 0c.1.2.2.4.2.5v1.5l-.5-.4v-1l.3-.6zm-19.1.2l.5.8v.6l-.5.5v-1.9zm17.9 0v1.9l-.5-.5v-.6l.5-.8zm-18.1.1v1.8l-.5-.5v-.7l.5-.6zm18.3 0l.5.6v.7l-.5.5v-1.8zm-16.7.1c.1.1.4.7.8.9-.1.2-.4.6-.8.8v-1.7zm15.1 0v1.7c-.3-.2-.7-.6-.8-.8.3-.1.7-.7.8-.9zm-15.3.1v1.5l-.5-.5v-.5l.5-.5zm15.5 0l.5.5v.5l-.5.5v-1.5zm-17.6 1.7v1.5l-.5-.4v-.7l.5-.4zm19.7 0l.5.4v.7l-.5.4v-1.5zm-19.6 0l.3.3.2.2v.6l-.2.2-.3.3v-1.6zm1.3 0v1.5l-.3-.3-.2-.2v-.5l.2-.2.3-.3zm.2 0l.5.5v.5l-.2.2-.3.3v-1.5zm1.2 0v1.5l-.3-.3-.2-.2v-.5c.2-.1.4-.3.5-.5zm14 0c.2.2.3.4.5.5v.5l-.2.2-.3.3v-1.5zm1.3 0v1.5l-.3-.3-.2-.2v-.5l.5-.5zm.2 0l.3.3.2.2v.5l-.2.2-.3.3v-1.5zm1.2 0v1.5l-.3-.3-.2-.2v-.6l.2-.2.3-.2zm-18.6 1.7l.6.5.6-.5v12.7s0 .6.1 1c-.2.3-1.2 1.2-1.2 1.2v-14.9h-.1zm17.8 0v15l-1.2-1.2c0-.4.1-1 .1-1v-12.8l.6.5.5-.5zm-18.1 0v14.5c0 .4-.7 1.4-1.1 1.6v-16.1l.6.5.5-.5zm18.5 0l.6.5.6-.5v16.1c-.4-.2-1.1-1.2-1.1-1.6v-14.5h-.1zm-13.9 11.4s-.5 1.1-.7 1.3h.3l-1.1 1.6c-.2.4-.4.2-.7.2-.3 0-.9.4-1 .6-.1.2-.2.4-.2.6 0 .2.2.5.2.5 0-.1.1-.1.1-.1s.6.7.7.8c.1.1.4.1.5 0 .3-.2.5-.4.7-.7.1-.2.1-.4.3-.6.5-.6 1.4-1.8 1.6-2.1v.2c.2-.5 1.4-1.4 1.4-1.4l-.3-.2s-.7.8-.9.9c0 0-.1-.4-.2-.5 0 0-.3.2-.4.2 0 0 0-.3-.1-.4-.2.1-.5.1-.5.1.3-.1.6-.9.6-.9l-.3-.1zm9.3 0l-.2.1s.3.8.6.9c0 0-.3 0-.5-.1 0 .2-.1.4-.1.4-.1 0-.4-.2-.4-.2-.1.1-.2.5-.2.5-.2-.1-.9-.9-.9-.9l-.3.2s1.1.9 1.4 1.4v-.2c.2.3 1.1 1.5 1.6 2.1.1.2.1.4.3.6.2.3.5.5.7.7.1.1.4 0 .5 0 .1-.1.7-.8.7-.8l.1.1s.2-.3.2-.5-.1-.4-.2-.6c-.1-.2-.7-.6-1-.6-.3 0-.5.2-.7-.2-.2-.4-1-1.5-1.1-1.6h.3c-.3-.2-.8-1.3-.8-1.3zm-9.4 1.2s0 .4.1.5l.4-.3s0 .1.1.3c-.2.2-1.2 1.6-1.7 2.3-.1.2-.2.6-.2.6s-.2-.1-.2-.2v-.3s-.1.2-.4.2c0-.2.4-.4.4-.7-.3.2-.5.1-.8.2-.3 0-.4.2-.5.2-.1 0-.1-.1-.1-.2s.5-.4.8-.5c.1 0 .6.1.7-.1.5-.7 1.2-1.9 1.3-2h.1zm9.4 0h.1c.1.1.8 1.3 1.3 2 .1.2.7 0 .7.1.3.1.7.4.8.5 0 .1 0 .2-.1.2l-.5-.2c-.3-.1-.6 0-.8-.2 0 .3.4.5.4.7-.2 0-.4-.2-.4-.2v.3c0 .2-.2.2-.2.2s-.1-.4-.2-.6l-1.7-2.3c0-.2.1-.3.1-.3l.4.3c.1-.1.1-.5.1-.5zm-6.1.3s-2.2 5.1-4.2 5.9c0 0 .9.4 1.9.9l.5.3.4-.5c.6-.8 1.2-1.8 1.2-1.8 0 .3-.3 1-.9 2-.1.2-.2.4-.4.6.1.1.3.2.4.2 1 .6 2 1.4 2.4 2 .4-.7 1.3-1.4 2.4-2 .1-.1.3-.2.4-.2-.1-.2-.2-.4-.4-.6-.6-1-.9-1.8-.9-2 0 0 .6 1 1.2 1.8.1.2.3.4.4.5l.5-.3c1.1-.5 1.9-.9 1.9-.9-2-.8-4.2-5.9-4.2-5.9l-.3.1s1.8 4.4 3.5 5.8c-.4.1-.9.3-1.3.5-.6-.7-1.2-1.6-1.7-2.4-.5-.9-1-2.4-1-2.4-.2.6.3 3.6 1.3 5.4-.9.5-1.6.9-2 1.3-.4-.4-1.1-.9-2-1.3 1-1.9 1.6-4.8 1.3-5.4 0 0-.4 1.5-1 2.4-.5.8-1.1 1.7-1.7 2.4-.5-.2-.9-.4-1.3-.5 1.7-1.3 3.5-5.8 3.5-5.8l.1-.1zm-5.8 2.4c.1 0 .1.1 0 .1l-.2.2h-.1v-.1l.3-.2zm14.5 0l.2.2v.1h-.1l-.1-.2c-.1 0-.1 0 0-.1zm-14.3.2s.1 0 .1.1c.1.1.1.2 0 .2l-.4.4c-.1.1-.2 0-.2 0-.1-.1-.1-.2 0-.2l.5-.5zm14.1 0h.1l.4.4c.1.1.1.1 0 .2s-.1.1-.2 0l-.4-.4c-.1 0-.1-.1.1-.2zm-13.9.3s.1 0 .1.1c.1.1.1.2 0 .2l-.4.3c-.1.1-.1 0-.2 0-.1-.1-.1-.2 0-.2l.5-.4zm13.6 0h.1l.4.4c.1.1.1.1 0 .2s-.1.1-.2 0l-.4-.4s0-.1.1-.2zm-13.3.3s.1 0 .1.1c.1.1.1.2 0 .2l-.4.4c-.1.1-.1 0-.2 0-.1-.1-.1-.2 0-.2l.5-.5zm13 0h.1l.4.4c.1.1.1.1 0 .2s-.1.1-.2 0l-.3-.4c-.1 0-.1-.1 0-.2z"/><path fill="#F4D40E" d="M56.5 24.5l-.5.3.2.1.2.1.1-.5zm-.4.5c-.1 0-.1 0-.2.1s0 .2.1.3c.1.1.3 0 .3-.1.1-.1 0-.2-.1-.3h-.1zm-.9.5h-.1v.8c0 .3-.1.4-.2.5l-.2.2.2.2s.1-.2.3-.5c.2-.4.2-1 .2-1l.4-.1c0-.1-.4-.1-.6-.1zm.7.1s-.4.1-.5.1c-.1.1 0 .6-.2 1-.2.3-.3.5-.3.5l.1.1.1.1s.1-.1.2-.5c.2-.4.7-.7.7-.8.1-.2-.1-.5-.1-.5zm.1 0l.1.4c0 .1-.5.4-.7.8-.2.3-.2.5-.2.5h.2v-.3c.1-.1.1-.2.3-.4l.6-.4c.1-.1-.3-.6-.3-.6zm-1.1 1.8c-.1 0-.1 0-.1.1s0 .2-.3.8l-.3.7c-.2.3-.4.7-.4.7s-.1.1.1.2c.1.1.2-.1.2-.1s.2-.4.4-.7l.3-.7c.3-.6.4-.7.5-.7 0-.1 0-.2-.1-.3h-.3zm-1.4 2.5c-.1 0-.1 0-.1.1s0 .2.2.3c.1.1.3.1.3 0s0-.2-.2-.3c-.1-.1-.2-.1-.2-.1zm-.2.4c-.1 0-.2 0-.2.1-.1.1 0 .2.2.3.1.1.3.1.4 0 .1-.1 0-.2-.2-.3-.1-.1-.1-.1-.2-.1zm-.2.5c-.1 0-.1 0-.1.1s0 .2.2.3c.1.1.3.1.3 0s0-.2-.2-.3c-.1-.1-.2-.1-.2-.1zm-.2.4c-.1 0-.1.1-.1.1s-.8 1.6-1.1 2.1c-.1.2-.5.3-.6.6-.1.3 0 .6.2.7.2.1.5 0 .6-.3l.1-.8c.3-.6 1.1-2.1 1.1-2.1s.1-.2-.2-.3zm-1.9 3.6c-.1 0-.2 0-.2.1-.1.1 0 .3.2.3.1.1.3 0 .4-.1.1-.1 0-.3-.2-.3h-.2zm-1.2 2.5c-.1.1-.1.2 0 .3.1.1.2.1.3 0 0-.1 0-.2-.1-.2-.1-.1-.2-.1-.2-.1zm-.4.3v.8l.6-.5s-.1-.2-.3-.2c-.2-.1-.3-.1-.3-.1z"/><path fill="#010101" d="M33.9 33.1s.4.7.6.8c-.1 0-.6.1-.6.1s.8.7 1.5.8c.6 0 .9-.2.9-.2l-.1-.6s-.4-.4-.9-.6c-.6-.2-1.4-.3-1.4-.3zm2.7-1.3s-.5.4-.6.9c-.1.5.1 1 .1 1l.4.8s.6-.3.8-.8c.2-.5.2-1.1.2-1.1l-.5.3c0-.5-.4-1.1-.4-1.1zm-1.6-.2s-.6.2-1.1.2c-.5 0-.9-.5-.9-.5s.4-.3.6-.3c-.2-.1-.6-.7-.6-.7s.5-.1.9 0c.4.2.8.6.8.6l.3.7zm.2-2.7s.3.6.2.8c.1-.1.4-.3.4-.3s.2.9 0 1.5l-.8.8-.6-1.2s-.1-.5.1-.8c.3-.5.7-.8.7-.8zm-3.6-1.5s.6-.1 1.2.2c.5.2.6.5.6.5l.2.6s-.7.2-1.2.1c-.5-.2-.9-.8-.9-.8s.4-.1.5-.1c-.2-.2-.4-.5-.4-.5zm1.9-1.2s.3.3.3.7c.1-.2.4-.4.4-.4s.3.8.3 1.4c-.1.6-.6.9-.6.9l-.6-1.2s-.2-.5-.1-.8c0-.3.3-.6.3-.6zm-2.1-2.2s-.1.6.1 1c.2.3.3.4.3.4-.3-.2-.8-.2-.8-.2s.2.7.6 1c.4.3 1 .2 1 .2s.4-.6.4-1.1c0-.6-.5-1.2-.5-1.2s-.2.4-.2.7c-.2-.4-.9-.8-.9-.8z"/><path fill="#0E7855" d="M31.6 24.4s0 .5.1.7c.2.3.5.4.5.4s0-.5-.1-.7c-.2-.3-.5-.4-.5-.4zm-.3 1s.4 0 .6.2c.2.2.3.5.3.5s-.3 0-.5-.2c-.2-.1-.4-.5-.4-.5zm1.2-.9s-.1.3-.1.6l.2.7s.2-.4.2-.7c0-.3-.2-.5-.3-.6zm-.6 3s.2.3.5.4c.3.1.8.2.8.2s-.2-.3-.5-.4c-.4-.2-.8-.2-.8-.2zm0 .6s.1.3.4.4c.3.1.8.1.8.1s-.2-.3-.5-.4c-.2-.1-.7-.1-.7-.1zm1.6-1.5s-.2.3-.1.6c0 .3.2.6.2.6s.1-.4.1-.7c-.1-.3-.2-.5-.2-.5zm.6.4s-.3.4-.3.7c0 .4.2.8.2.8s.3-.3.4-.7c-.1-.4-.3-.8-.3-.8zm-.8 3.5s0 .1.1.3l.3.3s.2-.1.4 0l.5.3s-.3-.5-.7-.7c-.2-.3-.6-.2-.6-.2zm0 .8s.4-.2.8-.1c.4 0 .7.3.7.3s-.5.2-.8.1c-.5 0-.7-.3-.7-.3zm1.8-2s-.4.4-.4.8l.3.7v-.4c.1-.1.2-.3.2-.3s.1-.2 0-.3c0-.3-.1-.5-.1-.5zm.6.5s-.4.4-.5.8c-.1.4.1.8.1.8s.3-.3.4-.7c.1-.4 0-.9 0-.9zm.9 2.3s.2.3.2.6v.4s-.2.2-.2.3c-.1.1-.1.4-.1.4s-.3-.5-.3-.9l.4-.8zm.7.8s-.4.3-.6.6c-.2.3-.1.6-.1.6s.3 0 .5-.3l.2-.9zm-2.9 1.2s.6 0 1 .1l.5.3s-.4.2-.8.1c-.3-.1-.7-.5-.7-.5zm-.1-.7s.3.4.7.6c.5.2 1.1.1 1.1.1s-.3-.4-.8-.6c-.4-.1-1-.1-1-.1z"/><path fill="#010101" d="M36.3 34.6v.2c.4 0 .4 0 .5.1.1.1.2.1.4.1.2-.1.2-.3.2-.4-.1-.2-.2-.2-.4-.2l-.2.1c-.1.1-.5.1-.5.1zm0-.2l.2.1c-.2.3-.3.3-.2.5 0 .1 0 .3-.1.4-.1.1-.3.1-.4-.1-.1-.1 0-.3.1-.4.1-.1.1-.1.2-.1 0-.1.2-.4.2-.4zm-1.3-2.7v.2c.4 0 .4 0 .5.1.1.1.2.1.4.1.2-.1.2-.3.2-.4-.1-.2-.2-.2-.4-.2l-.2.1c-.1.1-.5.1-.5.1zm.1.1l.2.2c-.3.2-.3.3-.3.4 0 .1 0 .3-.2.3-.2.1-.3 0-.4-.2-.1-.2 0-.3.1-.4.1-.1.2-.1.2-.1.2.1.4-.2.4-.2zm-1.3-2.8v.2c.4 0 .4 0 .5.1.1.1.2.1.4.1.2-.1.2-.3.2-.4-.1-.2-.2-.2-.4-.2l-.2.1c-.2.1-.5.1-.5.1zm.1 0l.2.2c-.2.3-.3.3-.3.5 0 .1 0 .3-.2.3-.2.1-.3 0-.4-.2-.1-.2 0-.3.1-.4.1-.1.2-.1.2-.1.1 0 .4-.3.4-.3zm-1.5-2.8v.2c.4 0 .4 0 .5.1.1.1.2.1.4.1.2-.1.2-.3.2-.4s-.2-.2-.4-.2l-.2.1c-.1.1-.5.1-.5.1zm.1 0l.2.2c-.2.3-.3.3-.3.5 0 .1 0 .3-.2.3-.2.1-.3 0-.4-.2-.1-.2 0-.3.1-.4.1-.1.2-.1.2-.1.2-.1.4-.3.4-.3z"/><path fill="#F4D40E" d="M34.8 31c-.1.1-.3-.5-.5-.9-.2-.3-.5-.8-.4-.9.1 0 .2.2.4.6.2.4.6 1.2.5 1.2zm-1.4-3.1c-.1.1-.3-.3-.4-.7-.2-.3-.3-.6-.2-.6.1 0 .2.2.4.5 0 .4.3.8.2.8zm3.2 7.1c-.1 0-.6-.9-.9-1.8-.4-.8-.7-1.5-.6-1.5.1 0 .4.7.8 1.5.3.9.8 1.7.7 1.8z"/><path fill="#CD2031" d="M40.5 13.1s.2-.3.5-.3h.7c.1.2.4.5.4.8 0 0-.3-.6-1.3-.6-.2.1-.3.1-.3.1z"/><path fill="#010101" d="M41.7 13.2s-.2-.1-.2-.2.1-.1.2 0v.2z"/><path fill="#D1202C" d="M42 13.8s-.2.2-.2.3c-.2-.1-.5-.4-.5-.4s.2.1.7.1z"/><path fill="#010101" d="M43 13.2c0 .1-.1.3-.3.3-.2 0-.3-.1-.3-.3 0-.1.1-.3.3-.3.2.1.3.2.3.3z"/><path fill="#F4D40E" d="M42.9 13.2c0 .1-.1.2-.2.2s-.2-.1-.2-.2.1-.2.2-.2.2.1.2.2z"/><path fill="#010101" d="M42.8 13.2c0 .1-.1.1 0 0-.1.1-.2.1-.2 0 0 0 0-.1.2 0z"/><path fill="#F4D40E" d="M36.7 19.5s.6.4.6.8v10.1c0 .3.1.4.2.6.1.2.4.4.7.6.9.6 2.4 1.2 3.5 1.7.9.4 1.3.6 1.8 1.2.5-.6.9-.8 1.8-1.2 1.1-.5 2.6-1.1 3.5-1.7.3-.2.6-.4.7-.6.1-.2.2-.3.2-.6v-10c0-.4.6-.8.6-.8l-13.6-.1zm.8.4h12.2s-.2.2-.2.5v10.1c0 .2-.2.7-1.6 1.4-2.2 1.1-3.9 1.6-4.4 2.2-.5-.6-2.2-1.1-4.4-2.2-1.3-.7-1.6-1.2-1.6-1.4v-10.1c.1-.3 0-.5 0-.5z"/></svg>