<svg xmlns="http://www.w3.org/2000/svg" width="87" height="57" viewBox="0 0 87 57"><path fill="#ED2224" d="M0-1.5h87.8v58.5h-87.8z"/><path fill="#166734" d="M0-1.5h35.1v58.5h-35.1z"/><g fill="#F6EB16" stroke="#010101" stroke-linecap="round" stroke-linejoin="round"><path d="M46.5 36.8c-4.4-.1-24.6-12.8-24.8-14.8l1.1-1.9c2 2.9 22.7 15.2 24.8 14.8l-1.1 1.9M22.6 19.9c-.4 1.1 5.3 4.6 12.1 8.7 6.8 4.2 12.7 6.7 13.2 6.4l.2-.4c-.1.1-.3.2-.6.1-1.8-.5-6.7-2.7-12.6-6.4-6-3.6-11.2-7-12-8.4-.1-.1-.1-.3-.1-.4l-.2.4zm24 17c0 .1-.2.1-.4.1-1.7-.2-6.7-2.6-12.6-6.2-6.9-4.1-12.6-7.9-12-8.9l.2-.3c-.6 1.7 11.3 8.4 11.9 8.9 6.8 4.2 12.6 6.7 13.1 6.1l-.2.3zm-11.5-13.7c4.4 0 9.9-.6 13-1.9l-.7-1.1c-1.9 1-7.3 1.7-12.4 1.8-6-.1-10.2-.6-12.3-2l-.6 1.2c4 1.7 7.9 2 13 2M48.3 21.4c-.1.2-2.2.9-5.2 1.4-2 .3-4.7.6-8 .6-3.2 0-5.7-.2-7.7-.5-3.2-.5-4.8-1.2-5.4-1.4l.2-.3c1.7.7 3.4 1.1 5.3 1.4 1.9.3 4.5.5 7.6.5 3.3 0 6-.3 8-.6 3.1-.5 4.8-1.1 5-1.4l.2.3zm-.6-1.1c-.3.3-2 .9-4.9 1.3-2 .3-4.5.5-7.6.5-3 0-5.5-.2-7.4-.5-3-.4-4.6-1.1-5.1-1.3l.2-.3c.4.2 2 .8 5 1.3 1.9.3 4.3.5 7.4.5 3.2 0 5.6-.3 7.6-.5 3-.4 4.5-1.2 4.8-1.4v.4zm-27.1 8.3c2.7 1.5 8.8 2.2 14.5 2.3 5.2 0 12-.8 14.5-2.1l-.1-1.5c-.8 1.2-8.1 2.4-14.5 2.4s-12.4-1-14.4-2.3v1.2M49.7 28.4v.3c-.4.5-2.8 1.1-5.8 1.6-2.3.3-5.3.6-9 .6-3.5 0-6.3-.3-8.5-.6-3.4-.5-5.6-1.4-6.1-1.6v-.4c1.3.9 4.9 1.5 6.1 1.7 2.2.3 5 .6 8.5.6 3.7 0 6.6-.3 8.9-.6 2.3-.3 5.3-1.1 5.9-1.6zm0-1.3v.3c-.4.5-2.8 1.1-5.8 1.6-2.3.3-5.3.6-9 .6-3.5 0-6.3-.3-8.5-.6-3.4-.5-5.6-1.4-6.1-1.6v-.4c1.3.9 4.9 1.5 6.1 1.7 2.2.3 5 .6 8.5.6 3.7 0 6.6-.3 8.9-.6 2.3-.2 5.3-1 5.9-1.6zm-14.6 9.5c-6.3 0-11.6-1.7-12.7-2l.8 1.3c2 .8 7.2 2.1 12 2 4.8-.1 8.9-.5 11.8-1.9l.8-1.3c-2 .8-8.8 1.9-12.7 1.9"/><path d="M47.3 35.6l-.4.6c-1.4.5-3.6 1-4.5 1.1-1.9.4-4.8.7-7.4.7-5.5-.1-10.1-1.2-12.2-2.1l-.2-.3.3.1c3.8 1.4 8.1 1.9 12.1 2 2.6 0 5.1-.3 7.2-.7 3.2-.6 4.5-1.1 4.9-1.3l.2-.1zm.7-1.2l-.3.5c-.7.3-2.7.8-5.7 1.3-1.9.3-3.1.5-6.9.6-7.2-.2-11.8-1.6-12.9-1.9l-.2-.3c4.2 1.1 8.4 1.8 13.1 1.9 3.5-.1 5-.3 6.9-.6 3.4-.5 5.1-1.1 5.6-1.3l.4-.2zM48.1 27.4c0 4.1-2.1 7.8-3.8 9.4-2.4 2.3-5.6 3.8-9.3 3.9-4.1.1-8.1-2.6-9.1-3.8-2.1-2.3-3.7-5.3-3.8-9.2.3-4.5 2-7.6 4.6-9.8s6-3.2 8.8-3.1c3.3.1 7.1 1.7 9.7 4.9 1.8 2 2.5 4.3 2.9 7.7zm-13.1-14.1c8 0 14.5 6.5 14.5 14.4 0 8-6.6 14.4-14.5 14.4s-14.5-6.5-14.5-14.4 6.6-14.4 14.5-14.4M35.1 13.3c8 0 14.5 6.5 14.5 14.5s-6.5 14.5-14.5 14.5-14.5-6.5-14.5-14.5 6.5-14.5 14.5-14.5zm-14.2 14.5c0 7.8 6.4 14.2 14.2 14.2 7.8 0 14.2-6.4 14.2-14.2 0-7.8-6.4-14.2-14.2-14.2s-14.2 6.4-14.2 14.2zm14.2-13.3c7.3 0 13.3 6 13.3 13.3 0 7.3-6 13.3-13.3 13.3s-13.3-6-13.3-13.3c0-7.3 6-13.3 13.3-13.3zm-12.9 13.3c0 7.1 5.8 12.9 12.9 12.9s12.9-5.8 12.9-12.9c0-7.1-5.8-12.9-12.9-12.9-7.1-.1-12.9 5.7-12.9 12.9zm13.5-14.6h-1.2v29.1h1.2v-29.1zm-.1-.1h.3v29.4h-.3v-29.4zm-1.3 0h.3v29.4h-.3v-29.4zm15.3 15.2v-1.1l-.9-.8-5-1.3-7.2-.7-8.6.4-6.1 1.5-1.2.9v1.1l3.1-1.4 7.5-1.2h7.2l5.3.6 3.7.9 2.2 1.1zm-14.5-2.8c3.4 0 6.7.3 9.4.8s4.6 1.2 5.3 2v.4c-.8-.9-3.4-1.6-5.3-2-2.6-.5-5.9-.8-9.3-.8-3.6 0-6.9.3-9.5.8-2.1.4-4.8 1.2-5.2 2v-.4c.2-.6 2.2-1.4 5.1-2 2.5-.4 5.9-.8 9.5-.8zm0-1.2c3.4 0 6.7.3 9.4.8s4.6 1.2 5.3 2v.4c-.8-.9-3.4-1.6-5.3-2-2.6-.5-5.9-.8-9.3-.8-3.6 0-6.9.3-9.5.8-2 .4-4.9 1.2-5.2 2v-.4c.2-.5 2.3-1.4 5.1-2 2.5-.5 5.9-.8 9.5-.8zm-.1-6.4c5.4 0 10.1.8 12.2 1.9l.8 1.4c-1.9-1-6.9-2.1-13-1.9-5 0-10.2.5-12.9 2l.9-1.6c2.3-1.2 7.4-1.7 12-1.8M35.1 19.1c3.1 0 6 .2 8.4.6 2.2.4 4.3 1 4.6 1.4l.2.4c-.7-.5-2.5-1-4.9-1.4-2.3-.4-5.3-.6-8.4-.6-3.5 0-6.2.2-8.5.6-2.4.5-4.1 1.1-4.6 1.4l.2-.4c.8-.4 2.1-.9 4.3-1.3 2.5-.6 5.3-.7 8.7-.7zm0-1.3c2.9 0 5.8.2 8.1.6 1.8.3 3.6.9 4.2 1.4l.3.5c-.6-.6-2.8-1.3-4.7-1.6-2.2-.4-5-.5-8-.6-3.1 0-5.9.2-8.2.6-2.1.4-3.5.9-4.1 1.2l.3-.5c.8-.4 2.1-.8 3.7-1.1 2.4-.3 5.3-.5 8.4-.5zm7.2 16c-2.7-.5-5.3-.6-7.2-.5-9 .1-11.9 1.8-12.2 2.4l-.7-1.1c2.3-1.7 7.2-2.6 13-2.5 3 0 5.6.2 7.8.7l-.7 1"/><path d="M35 33.1c2.5 0 5 .1 7.3.6l-.1.3c-2.2-.4-4.5-.6-7.1-.5-3.3 0-6.7.3-9.6 1.1-.9.3-2.4.8-2.6 1.3l-.2-.3c0-.3 1-.9 2.7-1.4 3.3-.9 6.5-1.1 9.6-1.1zm.2-1.3c2.6 0 5.3.2 7.9.7l-.2.3c-2.3-.5-4.6-.6-7.7-.7-3.3 0-6.9.2-10.1 1.2-1 .3-2.8 1-2.9 1.5l-.2-.3c0-.5 1.6-1.1 3-1.5 3.3-.9 6.8-1.2 10.2-1.2zM47.9 34.7l-1.1 1.7-3.1-2.8-8-5.4-9.1-5-4.7-1.6 1-1.9.3-.2 2.9.7 9.7 5 5.6 3.5 4.7 3.4 1.9 2.2-.1.4zm-26.2-13.1c.8-.6 6.9 2.1 13.2 6 6.3 3.8 12.4 8.2 11.8 9l-.2.3.1.1s.1-.1 0-.4c-.3-.9-4.6-4.3-11.7-8.6-6.9-4.1-12.7-6.6-13.3-5.9l.1-.5zm26.4 13.1c.5-1-5.1-5.3-12.1-9.4-7.1-4-12.3-6.4-13.2-5.7l-.2.4.1-.1c.2-.1.5-.1.6-.1 1.6 0 6.2 2.2 12.7 5.9 2.8 1.7 12 7.5 12 9.2v.2l.1-.4z"/></g><path fill="#fff" stroke="#010101" stroke-width=".098" d="M26.4 29.4c0 2.4 1 4.5 2.6 6.1 1.6 1.6 3.7 2.6 6.1 2.6 2.4 0 4.6-1 6.1-2.5 1.6-1.6 2.6-3.7 2.6-6.1v-11.7h-17.4v11.6z"/><path fill="#ED2224" stroke="#010101" stroke-width=".074" d="M26.7 29.4c0 2.3.9 4.4 2.5 5.9 1.5 1.5 3.6 2.4 5.9 2.4 2.3 0 4.4-.9 5.9-2.4s2.4-3.6 2.4-5.9v-11.2h-16.6l-.1 11.2m13.3-7.9v8.6c-.1 1.1-.7 2.1-1.4 2.9-.9.9-2.1 1.5-3.5 1.5s-2.6-.6-3.5-1.5c-.9-.9-1.5-2.2-1.5-3.5v-7.9l9.9-.1z"/><path fill="#F6EB16" d="M27.8 21.1c0-.8.6-1 .6-1s.6.2.6 1h-1.2"/><path fill="#F6EB16" stroke="#010101" stroke-width=".073" d="M27.3 20.1l-.1.9h.6c0-.8.6-.9.6-.9s.6.2.6.9h.6l-.1-.9h-2.2zm-.1.9h2.5c.1 0 .1.1.1.1 0 .1 0 .1-.1.1h-2.5c-.1 0-.1-.1-.1-.1s0-.1.1-.1zm.9 0c0-.5.3-.6.3-.6s.3.1.3.6h-.6M27.2 19.7h2.4c.1 0 .1 0 .1.1s0 .1-.1.1h-2.4c-.1 0-.1 0-.1-.1l.1-.1zm.1.2h2.3s.1 0 .1.1 0 .1-.1.1h-2.3s-.1 0-.1-.1c0 0 0-.1.1-.1zm.7-1.5h.2v.1h.1v-.1h.2v.1h.1v-.1h.2v.3s0 .1-.1.1h-.6s-.1 0-.1-.1v-.3zm.7.4v.9h-.6v-.9h.6"/><path fill="#F6EB16" stroke="#010101" stroke-width=".073" d="M27.9 19.2v.5h-.6v-.5h.6zM29.5 19.2v.5h-.6v-.5h.6zM27.2 18.8h.2v.2h.1v-.1h.2v.1h.1v-.1h.2v.3s0 .1-.1.1h-.6s-.1 0-.1-.1v-.4zM28.8 18.8h.2v.2h.1v-.1h.2v.1h.1v-.1h.2v.3s0 .1-.1.1h-.6s-.1 0-.1-.1v-.4z"/><path fill="#010101" d="M28.4 19.1c0-.1.1-.1.1 0v.2h-.1v-.2M27.6 19.4c0-.1.1-.1.1 0v.2h-.1v-.2M29.1 19.4c0-.1.1-.1.1 0v.2h-.1v-.2"/><path fill="#F6EB16" d="M27.8 27.9c0-.8.6-1 .6-1s.6.2.6 1h-1.2"/><path fill="#F6EB16" stroke="#010101" stroke-width=".073" d="M27.3 26.9l-.1.9h.6c0-.8.6-.9.6-.9s.6.2.6.9h.6l-.1-.9h-2.2zm-.1.9h2.5c.1 0 .1.1.1.1 0 .1 0 .1-.1.1h-2.5c-.1 0-.1-.1-.1-.1s0-.1.1-.1zm.9 0c0-.5.3-.6.3-.6s.3.1.3.6h-.6M27.2 26.5h2.4c.1 0 .1 0 .1.1s0 .1-.1.1h-2.4c-.1 0-.1 0-.1-.1l.1-.1zm.1.2h2.3s.1 0 .1.1 0 .1-.1.1h-2.3s-.1 0-.1-.1 0-.1.1-.1zm.7-1.6h.2v.1h.1v-.1h.2v.1h.1v-.1h.2v.3s0 .1-.1.1h-.6s-.1 0-.1-.1v-.3zm.7.4v.9h-.6v-.9h.6"/><path fill="#F6EB16" stroke="#010101" stroke-width=".073" d="M27.9 26v.5h-.6v-.5h.6zM29.5 26v.5h-.6v-.5h.6zM27.2 25.6h.2v.1h.1v-.1h.2v.1h.1v-.1h.2v.3s0 .1-.1.1h-.6s-.1 0-.1-.1v-.3zM28.8 25.6h.2v.1h.1v-.1h.2v.1h.1v-.1h.2v.3s0 .1-.1.1h-.6s-.1 0-.1-.1v-.3z"/><path fill="#010101" d="M28.4 25.8c0-.1.1-.1.1 0v.2h-.1v-.2M27.6 26.2c0-.1.1-.1.1 0v.2h-.1v-.2M29.1 26.2c0-.1.1-.1.1 0v.2h-.1v-.2"/><path fill="#F6EB16" d="M30.5 34.9c-.6-.6-.3-1.1-.3-1.1s.6-.3 1.2.3l-.9.8"/><path fill="#F6EB16" stroke="#010101" stroke-width=".073" d="M29.4 34.6l.6.7.4-.4c-.5-.5-.2-1-.2-1.1 0 0 .5-.3 1.1.2l.4-.4-.7-.6-1.6 1.6zm.6.7l1.7-1.8h.1s.1.1 0 .1l-1.7 1.8h-.1c-.1 0-.1 0 0-.1zm.6-.6c-.3-.3-.2-.7-.2-.7s.3-.1.7.2l-.5.5M29.1 34.4l1.7-1.7h.1v.1l-1.7 1.7h-.1c-.1 0-.1-.1 0-.1zm.2.1l1.6-1.6h.1v.1l-1.6 1.6h-.1c-.1 0-.1-.1 0-.1zm-.6-1.6l.1-.1.1.1.1-.1-.1-.1.1-.1.1.1.1-.1-.1-.1.1-.1.2.2v.1l-.4.4h-.1l-.2-.2zm.7-.2l.7.6-.4.4-.7-.7.4-.3"/><path fill="#F6EB16" stroke="#010101" stroke-width=".073" d="M29.2 33.5l.4.3-.4.4-.3-.4.3-.3zM30.3 32.4l.4.3-.4.4-.3-.4.3-.3zM28.5 33.7l.1-.1.1.1.1-.1-.1-.1.1-.1.1.1.1-.1-.1-.1.1-.1.2.2v.1l-.4.4h-.1l-.2-.2zM29.6 32.6l.1-.1.1.1.1-.1-.1-.1.1-.1.1.1.1-.1-.1-.1.1-.1.2.2v.1l-.4.4h-.1l-.2-.2z"/><path fill="#010101" d="M29.4 33.1c-.1-.1 0-.2 0 0l.2.1-.1.1-.1-.2M29.1 33.9c-.1-.1 0-.2 0 0h.2l-.1.1-.1-.1M9.212 276.79c-.141 0-.142-.141 0 0l.141-.142v.141h-.141"/><path fill="#F6EB16" d="M34.5 21.1c0-.8.6-1 .6-1s.6.2.6 1h-1.2"/><path fill="#F6EB16" stroke="#010101" stroke-width=".073" d="M34 20.1l-.1.9h.6c0-.8.6-.9.6-.9s.6.2.6.9h.6l-.1-.9h-2.2zm-.1.9h2.5c.1 0 .1.1.1.1 0 .1 0 .1-.1.1h-2.5c-.1 0-.1-.1-.1-.1s0-.1.1-.1zm.9 0c0-.5.3-.6.3-.6s.3.1.3.6h-.6M33.9 19.7h2.4c.1 0 .1 0 .1.1s0 .1-.1.1h-2.4c-.1 0-.1 0-.1-.1l.1-.1zm.1.2h2.3s.1 0 .1.1 0 .1-.1.1h-2.3s-.1 0-.1-.1c0 0 0-.1.1-.1zm.7-1.5h.2v.1h.1v-.1h.2v.1h.1v-.1h.2v.3s0 .1-.1.1h-.6s-.1 0-.1-.1v-.3zm.7.4v.9h-.6v-.9h.6"/><path fill="#F6EB16" stroke="#010101" stroke-width=".073" d="M34.6 19.2v.5h-.6v-.5h.6zM36.2 19.2v.5h-.6v-.5h.6zM33.9 18.8h.2v.2h.1v-.1h.2v.1h.1v-.1h.2v.3s0 .1-.1.1h-.6s-.1 0-.1-.1v-.4zM35.5 18.8h.2v.2h.1v-.1h.2v.1h.1v-.1h.2v.3s0 .1-.1.1h-.6s-.1 0-.1-.1v-.4z"/><path fill="#010101" d="M35 19.1c0-.1.1-.1.1 0v.2h-.1v-.2M34.3 19.4c0-.1.1-.1.1 0v.2h-.1v-.2M35.8 19.4c0-.1.1-.1.1 0v.2h-.1v-.2"/><path fill="#F6EB16" d="M42.4 21.1c0-.8-.6-1-.6-1s-.6.2-.6 1h1.2"/><path fill="#F6EB16" stroke="#010101" stroke-width=".073" d="M42.8 20.1l.1.9h-.6c0-.8-.6-.9-.6-.9s-.6.2-.6.9h-.6l.1-.9h2.2zm.2.9h-2.5c-.1 0-.1.1-.1.1 0 .1 0 .1.1.1h2.5c.1 0 .1-.1.1-.1l-.1-.1zm-.9 0c0-.5-.3-.6-.3-.6s-.3.1-.3.6h.6M42.9 19.7h-2.4c-.1 0-.1 0-.1.1s0 .1.1.1h2.4c.1 0 .1 0 .1-.1 0 0 0-.1-.1-.1zm0 .2h-2.3s-.1 0-.1.1 0 .1.1.1h2.3s.1 0 .1-.1l-.1-.1zm-.7-1.5h-.2v.1h-.1v-.1h-.2v.1h-.1v-.1h-.2v.3s0 .1.1.1h.6s.1 0 .1-.1v-.3zm-.7.4v.9h.6v-.9h-.6"/><path fill="#F6EB16" stroke="#010101" stroke-width=".073" d="M42.2 19.2v.5h.6v-.5h-.6zM40.7 19.2v.5h.6v-.5h-.6zM42.9 18.8h-.2v.2h-.1v-.1h-.2v.1h-.1v-.1h-.2v.3s0 .1.1.1h.6s.1 0 .1-.1v-.4zM41.4 18.8h-.2v.2h-.1v-.1h-.2v.1h-.1v-.1h-.2v.3s0 .1.1.1h.6s.1 0 .1-.1v-.4z"/><path fill="#010101" d="M41.8 19.1c0-.1-.1-.1-.1 0v.2h.1v-.2M42.6 19.4c0-.1-.1-.1-.1 0v.2h.1v-.2M41 19.4c0-.1-.1-.1-.1 0v.2h.1v-.2"/><path fill="#F6EB16" d="M42.4 27.9c0-.8-.6-1-.6-1s-.6.2-.6 1h1.2"/><path fill="#F6EB16" stroke="#010101" stroke-width=".073" d="M42.8 26.9l.1.9h-.6c0-.8-.6-.9-.6-.9s-.6.2-.6.9h-.6l.1-.9h2.2zm.2.9h-2.5c-.1 0-.1.1-.1.1 0 .1 0 .1.1.1h2.5c.1 0 .1-.1.1-.1l-.1-.1zm-.9 0c0-.5-.3-.6-.3-.6s-.3.1-.3.6h.6M42.9 26.5h-2.4c-.1 0-.1 0-.1.1s0 .1.1.1h2.4c.1 0 .1 0 .1-.1s0-.1-.1-.1zm0 .2h-2.3s-.1 0-.1.1 0 .1.1.1h2.3s.1 0 .1-.1l-.1-.1zm-.7-1.6h-.2v.1h-.1v-.1h-.2v.1h-.1v-.1h-.2v.3s0 .1.1.1h.6s.1 0 .1-.1v-.3zm-.7.4v.9h.6v-.9h-.6"/><path fill="#F6EB16" stroke="#010101" stroke-width=".073" d="M42.2 26v.5h.6v-.5h-.6zM40.7 26v.5h.6v-.5h-.6zM42.9 25.6h-.2v.1h-.1v-.1h-.2v.1h-.1v-.1h-.2v.3s0 .1.1.1h.6s.1 0 .1-.1v-.3zM41.4 25.6h-.2v.1h-.1v-.1h-.2v.1h-.1v-.1h-.2v.3s0 .1.1.1h.6s.1 0 .1-.1v-.3z"/><path fill="#010101" d="M41.8 25.8c0-.1-.1-.1-.1 0v.2h.1v-.2M42.6 26.2c0-.1-.1-.1-.1 0v.2h.1v-.2M41 26.2c0-.1-.1-.1-.1 0v.2h.1v-.2"/><path fill="#F6EB16" d="M39.7 34.9c.6-.6.3-1.1.3-1.1s-.6-.3-1.2.3l.9.8"/><path fill="#F6EB16" stroke="#010101" stroke-width=".073" d="M40.8 34.6l-.6.7-.4-.4c.5-.5.2-1 .2-1.1 0 0-.5-.3-1.1.2l-.4-.4.7-.6 1.6 1.6zm-.6.7l-1.7-1.8h-.1s-.1.1 0 .1l1.7 1.8h.1v-.1zm-.6-.6c.3-.3.2-.7.2-.7s-.3-.1-.7.2l.5.5M41.1 34.4l-1.7-1.7h-.1v.1l1.7 1.7h.1v-.1zm-.2.1l-1.6-1.6h-.1v.1l1.6 1.6h.1v-.1zm.6-1.6l-.1-.1-.1.1-.1-.1.1-.1-.1-.1-.1.1-.1-.2.1-.1-.1-.1-.2.2v.1l.5.5h.1l.1-.2zm-.8-.2l-.7.6.4.4.6-.7-.3-.3"/><path fill="#F6EB16" stroke="#010101" stroke-width=".073" d="M41 33.5l-.4.3.4.4.3-.4-.3-.3zM39.9 32.4l-.4.3.4.4.3-.4-.3-.3zM41.7 33.7l-.1-.1-.1.1-.1-.1.1-.1-.1-.1-.1.1-.1-.1.1-.1-.1-.1-.2.2v.1l.4.4h.1l.2-.2zM40.6 32.6l-.1-.1-.1.1-.1-.1.1-.1-.1-.1-.1.1-.1-.1.1-.1-.1-.1-.2.2v.1l.4.4h.1l.2-.2z"/><path fill="#010101" d="M40.8 33.1c0-.1-.1-.2 0 0l-.2.1.1.1.1-.2M41.1 33.9h-.2l.1.1.1-.1M439.792 32.8h.2l-.1.1-.1-.1"/><path fill="#243E90" d="M34 28.1c0 .3.1.6.3.8.2.2.5.3.8.3.3 0 .6-.1.8-.3.2-.2.3-.5.3-.8v-1.6h-2.2v1.6"/><circle fill="#fff" cx="34.5" cy="27.1" r=".2"/><circle fill="#fff" cx="35.7" cy="27.1" r=".2"/><circle fill="#fff" cx="35.1" cy="27.7" r=".2"/><circle fill="#fff" cx="34.5" cy="28.3" r=".2"/><circle fill="#fff" cx="35.7" cy="28.3" r=".2"/><path fill="#243E90" d="M34 24.3c0 .3.1.6.3.8.2.2.5.3.8.3.3 0 .6-.1.8-.3.2-.2.3-.5.3-.8v-1.6h-2.2v1.6"/><circle fill="#fff" cx="34.5" cy="23.3" r=".2"/><circle fill="#fff" cx="35.7" cy="23.3" r=".2"/><circle fill="#fff" cx="35.1" cy="23.9" r=".2"/><circle fill="#fff" cx="34.5" cy="24.5" r=".2"/><circle fill="#fff" cx="35.7" cy="24.5" r=".2"/><path fill="#243E90" d="M31 28.1c0 .3.1.6.3.8.2.2.5.3.8.3.3 0 .6-.1.8-.3.2-.2.3-.5.3-.8v-1.6h-2.2v1.6"/><circle fill="#fff" cx="31.5" cy="27.1" r=".2"/><circle fill="#fff" cx="32.7" cy="27.1" r=".2"/><circle fill="#fff" cx="32.1" cy="27.7" r=".2"/><circle fill="#fff" cx="31.5" cy="28.3" r=".2"/><circle fill="#fff" cx="32.7" cy="28.3" r=".2"/><path fill="#243E90" d="M37.1 28.1c0 .3.1.6.3.8.2.2.5.3.8.3.3 0 .6-.1.8-.3.2-.2.3-.5.3-.8v-1.6h-2.2v1.6"/><circle fill="#fff" cx="37.6" cy="27.1" r=".2"/><circle fill="#fff" cx="38.8" cy="27.1" r=".2"/><circle fill="#fff" cx="38.2" cy="27.7" r=".2"/><circle fill="#fff" cx="37.6" cy="28.3" r=".2"/><circle fill="#fff" cx="38.8" cy="28.3" r=".2"/><path fill="#243E90" d="M34 31.9c0 .3.1.6.3.8.2.2.5.3.8.3.3 0 .6-.1.8-.3.2-.2.3-.5.3-.8v-1.6h-2.2v1.6"/><circle fill="#fff" cx="34.5" cy="30.9" r=".2"/><circle fill="#fff" cx="35.7" cy="30.9" r=".2"/><circle fill="#fff" cx="35.1" cy="31.5" r=".2"/><circle fill="#fff" cx="34.5" cy="32.1" r=".2"/><circle fill="#fff" cx="35.7" cy="32.1" r=".2"/></svg>