<svg xmlns="http://www.w3.org/2000/svg" width="85" height="57" viewBox="0 0 85 57"><path fill="#FFF" d="M-.02.154h85.04v56.692h-85.04z"/><path fill="#711A3E" d="M17.063.154c.153.072 4.102 1.964 6.568 3.145-2.515 1.2-6.58 3.147-6.58 3.147s4.065 1.948 6.58 3.15l-6.58 3.15s4.065 1.948 6.58 3.15c-2.515 1.202-6.58 3.15-6.58 3.15s4.065 1.947 6.58 3.147l-6.58 3.15s4.065 1.95 6.58 3.152c-2.515 1.2-6.58 3.15-6.58 3.15l6.58 3.148-6.58 3.15s4.065 1.95 6.58 3.15c-2.515 1.2-6.58 3.15-6.58 3.15s4.065 1.947 6.58 3.148l-6.58 3.15 6.58 3.152c-2.508 1.197-6.557 3.137-6.58 3.146h67.97v-56.685h-67.958z"/></svg>