<svg xmlns="http://www.w3.org/2000/svg" width="85" height="57" viewBox="0 0 85 57"><path fill="#0567A7" d="M-.02 19.052h85.04v18.898h-85.04z"/><path fill="#EC2227" d="M-.02 37.95h85.04v18.896h-85.04z"/><path fill="#FFF" d="M-.02.153h85.04v18.897h-85.04z"/><path fill="#EC2227" d="M30.616 19.222c.005-.127.117-1.844.236-3.66.167-2.55.24-3.693.27-4.164l-.29-.152c-1.793-1.012-4.168-1.605-7.196-1.646-3.285-.006-5.677.844-7.487 1.77.026.456.1 1.595.27 4.192.12 1.816.23 3.533.236 3.654.14 6.496 5.52 8.992 6.847 9.264l.142.025.126-.025c1.325-.272 6.708-2.768 6.846-9.258z"/><path fill="#0567A7" d="M23.636 9.6c-2.488 0-4.99.5-6.935 1.505 0 .145.52 7.943.522 8.1.13 6.04 5.09 8.453 6.394 8.72l.02-.01.022.01c1.303-.267 6.265-2.68 6.394-8.72.003-.156.52-7.955.52-8.1-1.945-1.005-4.448-1.505-6.936-1.505z"/><path fill="#FEDC00" d="M24.06 13.714l.216-.38h-.435l-.216-.374-.217.375h-.435l.217.38-.218.376h.435l.217.376.217-.375h.436m-2.187-2.988l.218-.378h-.436l-.217-.375-.217.376h-.435l.218.378-.217.377h.435l.217.376.217-.375h.436m3.656-.379l.218-.378h-.436l-.217-.375-.217.376h-.435l.218.378-.218.377h.435l.217.376.217-.375h.436"/><path d="M19.963 23c.473 0 .94-.276.94-.276s.44-.277.913-.277l.914.275s.44.277.914.277c.47 0 .88-.276.88-.276s.44-.277.913-.277l.914.275s.47.277.942.277c1.01 0 1.52-.702 1.748-1.157.066-.207.13-.418.184-.64l-2.813-3.77-1.125 1.458-1.65-3.36-1.692 3.346-1.116-1.44-2.795 3.714c.06.258.13.506.21.746.24.455.75 1.103 1.72 1.103zm6.389.245s-.44-.275-.914-.275l-.912.275s-.41.275-.88.275c-.476 0-.915-.275-.915-.275s-.44-.275-.913-.275l-.912.275s-.47.275-.94.275c-.547 0-.946-.207-1.237-.47.152.3.315.583.49.847.216.096.455.166.746.166.473 0 .94-.275.94-.275s.44-.275.913-.275l.914.275s.44.275.915.275c.47 0 .88-.275.88-.275s.44-.275.913-.275l.914.275s.47.275.94.275c.3 0 .548-.072.765-.174.18-.27.344-.56.497-.866-.294.275-.698.496-1.26.496-.474 0-.942-.275-.942-.275zm.941 1.342c-.473 0-.94-.277-.94-.277s-.442-.275-.915-.275l-.912.277s-.41.275-.88.275c-.476 0-.915-.277-.915-.277s-.44-.275-.913-.275l-.912.277s-.47.275-.94.275l-.263-.033c1.396 1.723 3.163 2.566 3.873 2.775l.07-.03.06.027c.714-.213 2.474-1.057 3.865-2.777l-.277.037z" fill="#FFF"/></svg>