<svg xmlns="http://www.w3.org/2000/svg" width="85" height="57" viewBox="0 0 85 57"><path fill="#1050A0" d="M-.038 19.052h85.04v18.898h-85.042z"/><path fill="#EE2228" d="M-.038 37.95h85.04v18.896h-85.042z"/><path fill="#FFF" d="M-.038.153h85.04v18.897h-85.042zm29.363 43.417c-10.978-5.175-11.595-12.74-11.825-15.59l-.01-.17c0-8.18.433-13.57.438-13.624l.085-1.04h23.592l.085 1.04c.005.053.438 5.445.438 13.625l-.01.17c-.23 2.847-.844 10.413-11.826 15.59l-.483.23-.485-.23z"/><path fill="#EE2228" d="M40.56 14.278h-21.502s-.434 5.305-.434 13.533c.23 2.837.704 9.792 11.185 14.735 10.48-4.943 10.954-11.898 11.185-14.734 0-8.227-.435-13.532-.435-13.532z"/><path fill="#FFF" d="M36.656 24.146c-.734.217-2.627.75-5.887.648v-3.102s2.89-.047 4.678.703c-.082-.742-.16-2.393 0-3.4-2.193.79-4.687.688-4.687.688.017-1.215.314-3.018.642-4.38-.488.046-1.045.07-1.614.07s-1.126-.024-1.614-.07c.327 1.362.625 3.165.64 4.38 0 0-2.492.102-4.686-.688.16 1.008.082 2.658 0 3.4 1.788-.75 4.68-.703 4.68-.703v3.102c-3.26.102-5.153-.432-5.888-.648.105 1.123.096 2.47 0 3.365.247-.067 1.176-.706 5.892-.706v5.135l.977-.317.976.316v-5.136c4.716 0 5.645.64 5.892.707-.097-.896-.107-2.24-.002-3.364z"/><path fill="#1050A0" d="M38.972 34.874c-1.557-2.264-4-2.688-5.647-.17-.373-2.166-1.93-3.217-3.484-3.223v.003c-1.554.004-3.11 1.055-3.483 3.22-1.66-2.532-4.125-2.085-5.68.22 1.523 2.563 4.234 5.313 9.133 7.623 4.928-2.324 7.643-5.094 9.162-7.672z"/></svg>