<svg xmlns="http://www.w3.org/2000/svg" width="85" height="57" viewBox="0 0 85 57"><path fill="#DC2D27" d="M-.02.153h85.039v56.693h-85.039z"/><circle fill="#fff" cx="42.499" cy="28.501" r="14.458"/><path fill="#DC2D27" d="M45.863 36.94c-4.813 0-8.711-3.898-8.711-8.709 0-4.813 3.898-8.711 8.711-8.711.369 0 .729.031 1.086.074-1.334-.688-2.844-1.084-4.449-1.084-5.369 0-9.721 4.352-9.721 9.721 0 5.367 4.352 9.719 9.721 9.719 1.605 0 3.115-.395 4.449-1.084-.357.045-.717.074-1.086.074zm5.744-12.189l-2.957 3.738 2.513 3.787-4.343-1.47-3 3.468.248-4.539-4.445-1.718 4.604-1.256.246-4.574 2.535 3.818z"/></svg>