<svg xmlns="http://www.w3.org/2000/svg" width="85" height="57" viewBox="0 0 85 57"><path fill="#E21F26" d="M-.02.154h85.04v56.692h-85.04z"/><path fill="#FFF" d="M33.99 39.678c-6.444 0-11.67-5.006-11.67-11.177 0-6.173 5.226-11.177 11.67-11.177 2.804 0 5.375.947 7.388 2.526-2.612-3.436-6.74-5.654-11.39-5.654-7.9 0-14.305 6.404-14.305 14.305 0 7.9 6.405 14.305 14.305 14.305 4.648 0 8.777-2.22 11.39-5.654-2.013 1.58-4.584 2.528-7.388 2.528zm12.49-18.121l3.103 4.15 5.113-1.67-3.155 4.387 3.045 4.123-4.976-1.416-3.185 4.083.022-5.125-5.103-1.692 5.116-1.67"/></svg>