<?xml version="1.0" encoding="utf-8"?>
<!-- Generator: Adobe Illustrator 15.0.0, SVG Export Plug-In . SVG Version: 6.00 Build 0)  -->
<!DOCTYPE svg PUBLIC "-//W3C//DTD SVG 1.1//EN" "http://www.w3.org/Graphics/SVG/1.1/DTD/svg11.dtd">
<svg version="1.1" id="Layer_1" xmlns="http://www.w3.org/2000/svg" xmlns:xlink="http://www.w3.org/1999/xlink" x="0px" y="0px"
	 width="85px" height="57px" viewBox="0 0 85 57" enable-background="new 0 0 85 57" xml:space="preserve">
<g display="none">
	<rect x="-0.019" y="0.133" display="inline" fill="#DC2727" width="85.039" height="56.691"/>
	<polygon display="inline" fill="#FFC829" points="51.004,28.48 -0.02,56.74 -0.02,0.134 	"/>
	<polygon display="inline" fill="#010101" points="32.771,28.479 -0.02,56.738 -0.02,0.133 	"/>
	<polygon display="inline" fill="#FFFFFF" points="4.35,29.707 9.968,26.829 9.009,20.345 13.635,25.036 19.212,22.224 16.49,27.91 
		20.738,32.572 14.588,31.496 11.512,37.277 10.554,30.789 	"/>
</g>
<g display="none">
	<rect x="-0.04" y="19.035" display="inline" fill="#016B45" width="85.04" height="18.897"/>
	<rect x="-0.04" y="37.933" display="inline" fill="#C1282D" width="85.04" height="18.896"/>
	<rect x="-0.04" y="0.137" display="inline" fill="#FCB918" width="85.04" height="18.898"/>
</g>
<g display="none">
	<rect x="20.837" display="inline" fill="#FFFFFF" width="43.041" height="56.692"/>
	<rect x="63.878" display="inline" fill="#EA1D25" width="21" height="56.692"/>
	<rect x="-0.162" display="inline" fill="#EA1D25" width="20.999" height="56.692"/>
	<path display="inline" fill="#EA1D25" d="M60.405,28.442c-3.5-0.895-2.004-2.654-1.441-7.297c-5.875,0.973-6.521,1.589-6.146-2.399
		c-1.842,1.67-3.832,5.471-5.277,6.529c-0.998,0.781-1.182-0.09-0.959-0.674c0.221-0.583,3.016-6.623,3.358-10.08
		c-3.278,2.165-4.688,0.699-7.582-6.144c-2.895,6.843-4.304,8.309-7.583,6.144c0.343,3.457,3.135,9.497,3.359,10.08
		c0.222,0.584,0.038,1.455-0.962,0.674c-1.443-1.059-3.434-4.859-5.277-6.529c0.377,3.988-0.27,3.372-6.144,2.399
		c0.561,4.643,2.058,6.402-1.441,7.297c8.345,7.473,8.959,8.175,5.663,11.52c6.864-0.767,11.523-2.5,11.523-2.5
		c0.446-0.156,0.349,0.244,0.349,0.653L41.58,48.314l0.778-0.006l0.777,0.006l-0.268-10.199c0-0.409-0.098-0.81,0.348-0.653
		c0,0,4.661,1.733,11.524,2.5C51.446,36.617,52.06,35.915,60.405,28.442z"/>
</g>
<g display="none">
	<rect x="21.837" y="0.137" display="inline" fill="#FFFFFF" width="43.041" height="56.692"/>
	<rect x="64.878" y="0.137" display="inline" fill="#EA1D25" width="21" height="56.692"/>
	<rect x="0.838" y="0.137" display="inline" fill="#EA1D25" width="20.999" height="56.692"/>
	<path display="inline" fill="#EA1D25" d="M61.405,28.579c-3.5-0.895-2.004-2.654-1.441-7.297c-5.875,0.973-6.521,1.589-6.146-2.399
		c-1.842,1.67-3.832,5.471-5.277,6.529c-0.998,0.781-1.182-0.09-0.959-0.674c0.221-0.583,3.016-6.623,3.358-10.08
		c-3.278,2.165-4.688,0.699-7.582-6.144c-2.895,6.843-4.304,8.309-7.583,6.144c0.343,3.457,3.135,9.497,3.359,10.08
		c0.222,0.584,0.038,1.455-0.962,0.674c-1.443-1.059-3.434-4.859-5.277-6.529c0.377,3.988-0.27,3.372-6.144,2.399
		c0.561,4.643,2.058,6.402-1.441,7.297c8.345,7.473,8.959,8.175,5.663,11.52c6.864-0.767,11.523-2.5,11.523-2.5
		c0.446-0.156,0.349,0.244,0.349,0.653L42.58,48.451l0.778-0.006l0.777,0.006l-0.268-10.199c0-0.409-0.098-0.81,0.348-0.653
		c0,0,4.661,1.733,11.524,2.5C52.446,36.754,53.06,36.052,61.405,28.579z"/>
</g>
<g display="none">
	<g display="inline">
		<g>
			<rect x="0.035" y="28.502" fill="#D42E27" width="84.93" height="28.345"/>
			<rect x="0.035" y="0.156" fill="#FFFFFF" width="84.93" height="28.346"/>
			<rect x="0.035" y="0.153" fill="#1E429B" width="28.346" height="28.348"/>
			<polygon fill="#FFFFFF" points="14.176,7.948 15.822,12.767 21.111,12.751 16.832,15.904 18.434,20.68 14.207,17.852 
				9.996,20.706 11.566,15.919 7.303,12.793 12.594,12.778 			"/>
		</g>
	</g>
</g>
<g display="none">
	<linearGradient id="SVGID_1_" gradientUnits="userSpaceOnUse" x1="-0.0186" y1="28.5" x2="28.3281" y2="28.5">
		<stop  offset="0" style="stop-color:#333332"/>
		<stop  offset="0.2638" style="stop-color:#242424"/>
		<stop  offset="0.5473" style="stop-color:#141515"/>
		<stop  offset="0.8016" style="stop-color:#060707"/>
		<stop  offset="1" style="stop-color:#010101"/>
	</linearGradient>
	<rect x="-0.019" y="0.154" display="inline" fill="url(#SVGID_1_)" width="28.347" height="56.691"/>
	<rect x="28.328" y="0.154" display="inline" fill="#FED600" width="28.347" height="56.691"/>
	<rect x="56.675" y="0.154" display="inline" fill="#C42026" width="28.346" height="56.691"/>
</g>
<g display="none">
	<g display="inline">
		<rect x="-0.019" y="0.155" fill="#FFFFFF" width="85.037" height="56.691"/>
		<rect x="-0.019" y="0.154" fill="#EC1D25" width="85.037" height="11.513"/>
		<rect x="-0.019" y="22.744" fill="#EC1D25" width="85.037" height="11.512"/>
		<rect x="-0.019" y="45.332" fill="#EC1D25" width="85.037" height="11.514"/>
		<polygon fill="#3D5EAB" points="47.377,28.5 -0.019,56.846 -0.019,0.154 		"/>
	</g>
</g>
<g display="none">
	<g display="inline">
		<rect x="0.444" y="0.001" fill="#FFFFFF" width="85.037" height="56.69"/>
		<rect x="0.444" fill="#EC1D25" width="85.037" height="11.513"/>
		<rect x="0.444" y="22.59" fill="#EC1D25" width="85.037" height="11.513"/>
		<rect x="0.444" y="45.178" fill="#EC1D25" width="85.037" height="11.514"/>
		<polygon fill="#3D5EAB" points="47.84,28.347 0.444,56.692 0.444,0 		"/>
	</g>
</g>
<g display="none">
	<g display="inline">
		<rect x="-0.04" y="13.828" fill="#010101" width="85.039" height="29.346"/>
		<rect x="-0.04" y="43.174" fill="#259E49" width="85.039" height="13.673"/>
		<rect x="-0.04" y="0.154" fill="#E51E25" width="85.039" height="13.674"/>
	</g>
	<g display="inline">
		<path fill="#FFFFFF" d="M40.896,34.863c-3.504,0-6.344-2.84-6.344-6.343c0-3.505,2.84-6.346,6.344-6.346
			c1.574,0,3.014,0.575,4.123,1.524c-1.338-1.53-3.305-2.5-5.498-2.5c-4.033,0-7.303,3.27-7.303,7.302s3.27,7.301,7.303,7.301
			c2.123,0,4.033-0.906,5.365-2.353C43.796,34.334,42.407,34.863,40.896,34.863z"/>
		<polygon fill="#FFFFFF" points="46.835,23.586 49.065,26.568 52.741,25.367 50.474,28.523 52.661,31.487 49.083,30.47 
			46.794,33.403 46.81,29.719 43.142,28.503 46.819,27.301 		"/>
	</g>
</g>
<g display="none">
	<g display="inline">
		<g>
			<rect x="0.444" y="-1.862" fill="#FFFFFF" width="85.037" height="56.69"/>
			<rect x="0.444" y="-1.863" fill="#EC1D25" width="85.037" height="11.513"/>
			<rect x="0.444" y="20.727" fill="#EC1D25" width="85.037" height="11.513"/>
			<rect x="0.444" y="43.314" fill="#EC1D25" width="85.037" height="11.514"/>
			<polygon fill="#3D5EAB" points="47.84,26.483 0.444,54.829 0.444,-1.863 			"/>
		</g>
	</g>
	<polygon display="inline" fill="#FFFFFF" points="19.516,16.946 21.645,23.229 28.532,23.229 22.947,27.316 25.014,33.545 
		19.52,29.843 14.021,33.545 16.086,27.316 10.547,23.229 17.438,23.229 	"/>
</g>
<g display="none">
	<g display="inline">
		<g>
			<rect x="0.444" y="-1.862" fill="#FFFFFF" width="85.037" height="56.69"/>
			<rect x="0.444" y="-1.863" fill="#EC1D25" width="85.037" height="11.513"/>
			<rect x="0.444" y="20.727" fill="#EC1D25" width="85.037" height="11.513"/>
			<rect x="0.444" y="43.314" fill="#EC1D25" width="85.037" height="11.514"/>
			<polygon fill="#3D5EAB" points="47.84,26.483 0.444,54.829 0.444,-1.863 			"/>
		</g>
	</g>
	<polygon display="inline" fill="#FFFFFF" points="19.516,16.946 21.645,23.229 28.532,23.229 22.947,27.316 25.014,33.545 
		19.52,29.843 14.021,33.545 16.086,27.316 10.547,23.229 17.438,23.229 	"/>
</g>
<g display="none">
	<g display="inline">
		<g>
			<rect x="0.444" y="-1.862" fill="#FFFFFF" width="85.037" height="56.69"/>
			<rect x="0.444" y="-1.863" fill="#EC1D25" width="85.037" height="11.513"/>
			<rect x="0.444" y="20.727" fill="#EC1D25" width="85.037" height="11.513"/>
			<rect x="0.444" y="43.314" fill="#EC1D25" width="85.037" height="11.514"/>
			<polygon fill="#3D5EAB" points="47.84,26.483 0.444,54.829 0.444,-1.863 			"/>
		</g>
	</g>
	<polygon display="inline" fill="#FFFFFF" points="19.516,16.946 21.645,23.229 28.532,23.229 22.947,27.316 25.014,33.545 
		19.52,29.843 14.021,33.545 16.086,27.316 10.547,23.229 17.438,23.229 	"/>
</g>
<g display="none">
	<g display="inline">
		<g>
			<rect x="0.444" y="-1.862" fill="#FFFFFF" width="85.037" height="56.69"/>
			<rect x="0.444" y="-1.863" fill="#EC1D25" width="85.037" height="11.513"/>
			<rect x="0.444" y="20.727" fill="#EC1D25" width="85.037" height="11.513"/>
			<rect x="0.444" y="43.314" fill="#EC1D25" width="85.037" height="11.514"/>
			<polygon fill="#3D5EAB" points="47.84,26.483 0.444,54.829 0.444,-1.863 			"/>
		</g>
	</g>
	<polygon display="inline" fill="#FFFFFF" points="19.516,16.946 21.645,23.229 28.532,23.229 22.947,27.316 25.014,33.545 
		19.52,29.843 14.021,33.545 16.086,27.316 10.547,23.229 17.438,23.229 	"/>
</g>
<g display="none">
	<g display="inline">
		<g>
			<rect x="0.444" y="-1.862" fill="#FFFFFF" width="85.037" height="56.69"/>
			<rect x="0.444" y="-1.863" fill="#EC1D25" width="85.037" height="11.513"/>
			<rect x="0.444" y="20.727" fill="#EC1D25" width="85.037" height="11.513"/>
			<rect x="0.444" y="43.314" fill="#EC1D25" width="85.037" height="11.514"/>
			<polygon fill="#3D5EAB" points="47.84,26.483 0.444,54.829 0.444,-1.863 			"/>
		</g>
	</g>
	<polygon display="inline" fill="#FFFFFF" points="19.516,16.946 21.645,23.229 28.532,23.229 22.947,27.316 25.014,33.545 
		19.52,29.843 14.021,33.545 16.086,27.316 10.547,23.229 17.438,23.229 	"/>
</g>
<g display="none">
	<g display="inline">
		<g>
			<rect x="0.444" y="-1.862" fill="#FFFFFF" width="85.037" height="56.69"/>
			<rect x="0.444" y="-1.863" fill="#EC1D25" width="85.037" height="11.513"/>
			<rect x="0.444" y="20.727" fill="#EC1D25" width="85.037" height="11.513"/>
			<rect x="0.444" y="43.314" fill="#EC1D25" width="85.037" height="11.514"/>
			<polygon fill="#3D5EAB" points="47.84,26.483 0.444,54.829 0.444,-1.863 			"/>
		</g>
	</g>
	<polygon display="inline" fill="#FFFFFF" points="19.516,16.946 21.645,23.229 28.532,23.229 22.947,27.316 25.014,33.545 
		19.52,29.843 14.021,33.545 16.086,27.316 10.547,23.229 17.438,23.229 	"/>
</g>
<g display="none">
	<g display="inline">
		<g>
			<rect x="0.444" y="-1.862" fill="#FFFFFF" width="85.037" height="56.69"/>
			<rect x="0.444" y="-1.863" fill="#EC1D25" width="85.037" height="11.513"/>
			<rect x="0.444" y="20.727" fill="#EC1D25" width="85.037" height="11.513"/>
			<rect x="0.444" y="43.314" fill="#EC1D25" width="85.037" height="11.514"/>
			<polygon fill="#3D5EAB" points="47.84,26.483 0.444,54.829 0.444,-1.863 			"/>
		</g>
	</g>
	<polygon display="inline" fill="#FFFFFF" points="19.516,16.946 21.645,23.229 28.532,23.229 22.947,27.316 25.014,33.545 
		19.52,29.843 14.021,33.545 16.086,27.316 10.547,23.229 17.438,23.229 	"/>
</g>
<g display="none">
	<g display="inline">
		<g>
			<rect x="0.444" y="-1.862" fill="#FFFFFF" width="85.037" height="56.69"/>
			<rect x="0.444" y="-1.863" fill="#EC1D25" width="85.037" height="11.513"/>
			<rect x="0.444" y="20.727" fill="#EC1D25" width="85.037" height="11.513"/>
			<rect x="0.444" y="43.314" fill="#EC1D25" width="85.037" height="11.514"/>
			<polygon fill="#3D5EAB" points="47.84,26.483 0.444,54.829 0.444,-1.863 			"/>
		</g>
	</g>
	<polygon display="inline" fill="#FFFFFF" points="19.516,16.946 21.645,23.229 28.532,23.229 22.947,27.316 25.014,33.545 
		19.52,29.843 14.021,33.545 16.086,27.316 10.547,23.229 17.438,23.229 	"/>
</g>
<g display="none">
	<g display="inline">
		<g>
			<rect x="0.444" y="-1.862" fill="#FFFFFF" width="85.037" height="56.69"/>
			<rect x="0.444" y="-1.863" fill="#EC1D25" width="85.037" height="11.513"/>
			<rect x="0.444" y="20.727" fill="#EC1D25" width="85.037" height="11.513"/>
			<rect x="0.444" y="43.314" fill="#EC1D25" width="85.037" height="11.514"/>
			<polygon fill="#3D5EAB" points="47.84,26.483 0.444,54.829 0.444,-1.863 			"/>
		</g>
	</g>
	<polygon display="inline" fill="#FFFFFF" points="19.516,16.946 21.645,23.229 28.532,23.229 22.947,27.316 25.014,33.545 
		19.52,29.843 14.021,33.545 16.086,27.316 10.547,23.229 17.438,23.229 	"/>
</g>
<g display="none">
	<g display="inline">
		<g>
			<rect x="0.444" y="-1.862" fill="#FFFFFF" width="85.037" height="56.69"/>
			<rect x="0.444" y="-1.863" fill="#EC1D25" width="85.037" height="11.513"/>
			<rect x="0.444" y="20.727" fill="#EC1D25" width="85.037" height="11.513"/>
			<rect x="0.444" y="43.314" fill="#EC1D25" width="85.037" height="11.514"/>
			<polygon fill="#3D5EAB" points="47.84,26.483 0.444,54.829 0.444,-1.863 			"/>
		</g>
	</g>
	<polygon display="inline" fill="#FFFFFF" points="19.516,16.946 21.645,23.229 28.532,23.229 22.947,27.316 25.014,33.545 
		19.52,29.843 14.021,33.545 16.086,27.316 10.547,23.229 17.438,23.229 	"/>
</g>
<g display="none">
	<g display="inline">
		<g>
			<rect x="0.444" y="-1.862" fill="#FFFFFF" width="85.037" height="56.69"/>
			<rect x="0.444" y="-1.863" fill="#EC1D25" width="85.037" height="11.513"/>
			<rect x="0.444" y="20.727" fill="#EC1D25" width="85.037" height="11.513"/>
			<rect x="0.444" y="43.314" fill="#EC1D25" width="85.037" height="11.514"/>
			<polygon fill="#3D5EAB" points="47.84,26.483 0.444,54.829 0.444,-1.863 			"/>
		</g>
	</g>
	<polygon display="inline" fill="#FFFFFF" points="19.516,16.946 21.645,23.229 28.532,23.229 22.947,27.316 25.014,33.545 
		19.52,29.843 14.021,33.545 16.086,27.316 10.547,23.229 17.438,23.229 	"/>
</g>
<g display="none">
	<g display="inline">
		<g>
			<rect x="0.444" y="-1.862" fill="#FFFFFF" width="85.037" height="56.69"/>
			<rect x="0.444" y="-1.863" fill="#EC1D25" width="85.037" height="11.513"/>
			<rect x="0.444" y="20.727" fill="#EC1D25" width="85.037" height="11.513"/>
			<rect x="0.444" y="43.314" fill="#EC1D25" width="85.037" height="11.514"/>
			<polygon fill="#3D5EAB" points="47.84,26.483 0.444,54.829 0.444,-1.863 			"/>
		</g>
	</g>
	<polygon display="inline" fill="#FFFFFF" points="19.516,16.946 21.645,23.229 28.532,23.229 22.947,27.316 25.014,33.545 
		19.52,29.843 14.021,33.545 16.086,27.316 10.547,23.229 17.438,23.229 	"/>
</g>
<g display="none">
	<g display="inline">
		<g>
			<rect x="0.444" y="-1.862" fill="#FFFFFF" width="85.037" height="56.69"/>
			<rect x="0.444" y="-1.863" fill="#EC1D25" width="85.037" height="11.513"/>
			<rect x="0.444" y="20.727" fill="#EC1D25" width="85.037" height="11.513"/>
			<rect x="0.444" y="43.314" fill="#EC1D25" width="85.037" height="11.514"/>
			<polygon fill="#3D5EAB" points="47.84,26.483 0.444,54.829 0.444,-1.863 			"/>
		</g>
	</g>
	<polygon display="inline" fill="#FFFFFF" points="19.516,16.946 21.645,23.229 28.532,23.229 22.947,27.316 25.014,33.545 
		19.52,29.843 14.021,33.545 16.086,27.316 10.547,23.229 17.438,23.229 	"/>
</g>
<g display="none">
	<rect x="0.101" y="0.308" display="inline" fill="#FAD119" width="85.039" height="56.692"/>
	<polygon display="inline" fill="#10A2DC" points="21.28,57 85.14,14.398 85.14,57 	"/>
	<polygon display="inline" fill="#2AB34B" points="63.96,0.308 0.101,42.908 0.101,0.308 	"/>
	<polygon display="inline" fill="#010101" points="70.597,0.308 0.101,47.605 0.101,57 14.374,57 85.14,9.383 85.14,0.308 	"/>
</g>
<g display="none">
	<rect x="-0.47" y="1" display="inline" fill="#2B3282" width="85.039" height="56.692"/>
	<g display="inline">
		<path fill="#FEDB3F" d="M64.157,17.903l-2.176,1.605l0.811,2.447l-2.158-1.452l-2.158,1.452l0.811-2.447l-2.176-1.605h2.707
			l0.816-2.467l0.816,2.467H64.157z M43.091,49.884l-0.816-2.468l-0.816,2.468h-2.707l2.176,1.605l-0.811,2.447l2.16-1.455
			l2.158,1.455l-0.813-2.447l2.176-1.605H43.091z M64.245,28.553l-0.814-2.467l-0.816,2.467h-2.709l2.176,1.606l-0.809,2.446
			l2.158-1.453l2.158,1.453l-0.813-2.446l2.178-1.606H64.245z M60.634,41.733l2.158,1.453l-0.811-2.447l2.176-1.605H61.45
			l-0.816-2.468l-0.816,2.468H57.11l2.176,1.605l-0.811,2.447L60.634,41.733z M53.62,46.955l-0.816-2.468l-0.816,2.468H49.28
			l2.176,1.605l-0.811,2.447l2.16-1.455l2.158,1.455l-0.813-2.447l2.176-1.605H53.62z M24.954,40.739l2.176-1.605h-2.707
			l-0.818-2.468l-0.814,2.468h-2.709l2.176,1.605l-0.811,2.447l2.16-1.453l2.158,1.453L24.954,40.739z M30.06,11.677l-0.809,2.448
			l2.158-1.454l2.158,1.454l-0.811-2.448l2.176-1.604h-2.707l-0.816-2.468l-0.816,2.468h-2.707L30.06,11.677z M24.423,17.903
			l-0.818-2.467l-0.816,2.467h-2.707l2.176,1.606l-0.811,2.446l2.16-1.452l2.158,1.452l-0.811-2.446l2.176-1.606H24.423z
			 M20.673,31.152l2.156,1.453l-0.809-2.447l2.174-1.605h-2.705l-0.818-2.467l-0.816,2.467h-2.707l2.176,1.605l-0.811,2.447
			L20.673,31.152z M32.226,46.955l-0.816-2.468l-0.816,2.468h-2.707l2.174,1.605l-0.809,2.447l2.158-1.455l2.158,1.455l-0.811-2.447
			l2.176-1.605H32.226z"/>
		<path fill="#FEDB3F" d="M54.04,11.677l0.811,2.448l-2.158-1.453l-2.158,1.453l0.811-2.448l-2.178-1.604h2.707l0.818-2.468
			l0.816,2.468h2.707L54.04,11.677z"/>
		<polygon fill="#FEDB3F" points="45.798,7.223 43.622,8.828 44.433,11.275 42.274,9.823 40.116,11.275 40.927,8.828 38.751,7.223 
			41.458,7.223 42.274,4.756 43.093,7.223 		"/>
	</g>
</g>
<g display="none">
	<rect x="0.53" y="-1.863" display="inline" fill="#2B3282" width="85.039" height="56.692"/>
	<g display="inline">
		<path fill="#FEDB3F" d="M65.157,15.04l-2.176,1.605l0.811,2.447l-2.158-1.452l-2.158,1.452l0.811-2.447L58.11,15.04h2.707
			l0.816-2.467l0.816,2.467H65.157z M44.091,47.021l-0.816-2.468l-0.816,2.468h-2.707l2.176,1.605l-0.811,2.447l2.16-1.455
			l2.158,1.455l-0.813-2.447l2.176-1.605H44.091z M65.245,25.689l-0.814-2.467l-0.816,2.467h-2.709l2.176,1.606l-0.809,2.446
			l2.158-1.453l2.158,1.453l-0.813-2.446l2.178-1.606H65.245z M61.634,38.87l2.158,1.453l-0.811-2.447l2.176-1.605H62.45
			l-0.816-2.468l-0.816,2.468H58.11l2.176,1.605l-0.811,2.447L61.634,38.87z M54.62,44.092l-0.816-2.468l-0.816,2.468H50.28
			l2.176,1.605l-0.811,2.447l2.16-1.455l2.158,1.455l-0.813-2.447l2.176-1.605H54.62z M25.954,37.876l2.176-1.605h-2.707
			l-0.818-2.468l-0.814,2.468h-2.709l2.176,1.605l-0.811,2.447l2.16-1.453l2.158,1.453L25.954,37.876z M31.06,8.813l-0.809,2.448
			l2.158-1.454l2.158,1.454l-0.811-2.448l2.176-1.604h-2.707l-0.816-2.468l-0.816,2.468h-2.707L31.06,8.813z M25.423,15.04
			l-0.818-2.467l-0.816,2.467h-2.707l2.176,1.606l-0.811,2.446l2.16-1.452l2.158,1.452l-0.811-2.446l2.176-1.606H25.423z
			 M21.673,28.289l2.156,1.453l-0.809-2.447l2.174-1.605h-2.705l-0.818-2.467l-0.816,2.467h-2.707l2.176,1.605l-0.811,2.447
			L21.673,28.289z M33.226,44.092l-0.816-2.468l-0.816,2.468h-2.707l2.174,1.605l-0.809,2.447l2.158-1.455l2.158,1.455l-0.811-2.447
			l2.176-1.605H33.226z"/>
		<path fill="#FEDB3F" d="M55.04,8.813l0.811,2.448l-2.158-1.453l-2.158,1.453l0.811-2.448l-2.178-1.604h2.707l0.818-2.468
			l0.816,2.468h2.707L55.04,8.813z"/>
		<polygon fill="#FEDB3F" points="46.798,4.359 44.622,5.965 45.433,8.412 43.274,6.96 41.116,8.412 41.927,5.965 39.751,4.359 
			42.458,4.359 43.274,1.893 44.093,4.359 		"/>
	</g>
</g>
<g display="none">
	<rect x="0.53" display="inline" fill="#2B3282" width="85.039" height="56.692"/>
	<g display="inline">
		<path fill="#FEDB3F" d="M65.157,16.903l-2.176,1.605l0.811,2.447l-2.158-1.452l-2.158,1.452l0.811-2.447l-2.176-1.605h2.707
			l0.816-2.467l0.816,2.467H65.157z M44.091,48.884l-0.816-2.468l-0.816,2.468h-2.707l2.176,1.605l-0.811,2.447l2.16-1.455
			l2.158,1.455l-0.813-2.447l2.176-1.605H44.091z M65.245,27.553l-0.814-2.467l-0.816,2.467h-2.709l2.176,1.606l-0.809,2.446
			l2.158-1.453l2.158,1.453l-0.813-2.446l2.178-1.606H65.245z M61.634,40.733l2.158,1.453l-0.811-2.447l2.176-1.605H62.45
			l-0.816-2.468l-0.816,2.468H58.11l2.176,1.605l-0.811,2.447L61.634,40.733z M54.62,45.955l-0.816-2.468l-0.816,2.468H50.28
			l2.176,1.605l-0.811,2.447l2.16-1.455l2.158,1.455l-0.813-2.447l2.176-1.605H54.62z M25.954,39.739l2.176-1.605h-2.707
			l-0.818-2.468l-0.814,2.468h-2.709l2.176,1.605l-0.811,2.447l2.16-1.453l2.158,1.453L25.954,39.739z M31.06,10.677l-0.809,2.448
			l2.158-1.454l2.158,1.454l-0.811-2.448l2.176-1.604h-2.707l-0.816-2.468l-0.816,2.468h-2.707L31.06,10.677z M25.423,16.903
			l-0.818-2.467l-0.816,2.467h-2.707l2.176,1.606l-0.811,2.446l2.16-1.452l2.158,1.452l-0.811-2.446l2.176-1.606H25.423z
			 M21.673,30.152l2.156,1.453l-0.809-2.447l2.174-1.605h-2.705l-0.818-2.467l-0.816,2.467h-2.707l2.176,1.605l-0.811,2.447
			L21.673,30.152z M33.226,45.955l-0.816-2.468l-0.816,2.468h-2.707l2.174,1.605l-0.809,2.447l2.158-1.455l2.158,1.455l-0.811-2.447
			l2.176-1.605H33.226z"/>
		<path fill="#FEDB3F" d="M55.04,10.677l0.811,2.448l-2.158-1.453l-2.158,1.453l0.811-2.448l-2.178-1.604h2.707l0.818-2.468
			l0.816,2.468h2.707L55.04,10.677z"/>
		<polygon fill="#FEDB3F" points="46.798,6.223 44.622,7.828 45.433,10.275 43.274,8.823 41.116,10.275 41.927,7.828 39.751,6.223 
			42.458,6.223 43.274,3.756 44.093,6.223 		"/>
	</g>
</g>
<g display="none">
	<rect x="0.53" y="-1.863" display="inline" fill="#2B3282" width="85.039" height="56.692"/>
	<g display="inline">
		<path fill="#FEDB3F" d="M65.157,15.04l-2.176,1.605l0.811,2.447l-2.158-1.452l-2.158,1.452l0.811-2.447L58.11,15.04h2.707
			l0.816-2.467l0.816,2.467H65.157z M44.091,47.021l-0.816-2.468l-0.816,2.468h-2.707l2.176,1.605l-0.811,2.447l2.16-1.455
			l2.158,1.455l-0.813-2.447l2.176-1.605H44.091z M65.245,25.689l-0.814-2.467l-0.816,2.467h-2.709l2.176,1.606l-0.809,2.446
			l2.158-1.453l2.158,1.453l-0.813-2.446l2.178-1.606H65.245z M61.634,38.87l2.158,1.453l-0.811-2.447l2.176-1.605H62.45
			l-0.816-2.468l-0.816,2.468H58.11l2.176,1.605l-0.811,2.447L61.634,38.87z M54.62,44.092l-0.816-2.468l-0.816,2.468H50.28
			l2.176,1.605l-0.811,2.447l2.16-1.455l2.158,1.455l-0.813-2.447l2.176-1.605H54.62z M25.954,37.876l2.176-1.605h-2.707
			l-0.818-2.468l-0.814,2.468h-2.709l2.176,1.605l-0.811,2.447l2.16-1.453l2.158,1.453L25.954,37.876z M31.06,8.813l-0.809,2.448
			l2.158-1.454l2.158,1.454l-0.811-2.448l2.176-1.604h-2.707l-0.816-2.468l-0.816,2.468h-2.707L31.06,8.813z M25.423,15.04
			l-0.818-2.467l-0.816,2.467h-2.707l2.176,1.606l-0.811,2.446l2.16-1.452l2.158,1.452l-0.811-2.446l2.176-1.606H25.423z
			 M21.673,28.289l2.156,1.453l-0.809-2.447l2.174-1.605h-2.705l-0.818-2.467l-0.816,2.467h-2.707l2.176,1.605l-0.811,2.447
			L21.673,28.289z M33.226,44.092l-0.816-2.468l-0.816,2.468h-2.707l2.174,1.605l-0.809,2.447l2.158-1.455l2.158,1.455l-0.811-2.447
			l2.176-1.605H33.226z"/>
		<path fill="#FEDB3F" d="M55.04,8.813l0.811,2.448l-2.158-1.453l-2.158,1.453l0.811-2.448l-2.178-1.604h2.707l0.818-2.468
			l0.816,2.468h2.707L55.04,8.813z"/>
		<polygon fill="#FEDB3F" points="46.798,4.359 44.622,5.965 45.433,8.412 43.274,6.96 41.116,8.412 41.927,5.965 39.751,4.359 
			42.458,4.359 43.274,1.893 44.093,4.359 		"/>
	</g>
</g>
<line display="none" fill="#D91F27" x1="0.918" y1="54.829" x2="0.918" y2="-1.863"/>
<rect x="29.264" y="-1.863" display="none" fill="#FFFFFF" width="28.347" height="56.692"/>
<rect x="57.61" y="-1.863" display="none" fill="#D91F27" width="28.346" height="56.692"/>
<rect x="0.774" y="-1.864" display="none" fill="#FFFFFF" width="85.04" height="56.693"/>
<rect x="0.774" y="-1.864" display="none" fill="#FFFFFF" width="85.04" height="56.693"/>
<g display="none">
	<path display="inline" fill="#FEDB3F" d="M65.157,15.04l-2.176,1.605l0.811,2.447l-2.158-1.452l-2.158,1.452l0.811-2.447
		L58.11,15.04h2.707l0.816-2.467l0.816,2.467H65.157z M44.091,47.021l-0.816-2.468l-0.816,2.468h-2.707l2.176,1.605l-0.811,2.447
		l2.16-1.455l2.158,1.455l-0.813-2.447l2.176-1.605H44.091z M65.245,25.689l-0.814-2.467l-0.816,2.467h-2.709l2.176,1.606
		l-0.809,2.446l2.158-1.453l2.158,1.453l-0.813-2.446l2.178-1.606H65.245z M61.634,38.87l2.158,1.453l-0.811-2.447l2.176-1.605
		H62.45l-0.816-2.468l-0.816,2.468H58.11l2.176,1.605l-0.811,2.447L61.634,38.87z M54.62,44.092l-0.816-2.468l-0.816,2.468H50.28
		l2.176,1.605l-0.811,2.447l2.16-1.455l2.158,1.455l-0.813-2.447l2.176-1.605H54.62z M25.954,37.876l2.176-1.605h-2.707
		l-0.818-2.468l-0.814,2.468h-2.709l2.176,1.605l-0.811,2.447l2.16-1.453l2.158,1.453L25.954,37.876z M31.06,8.813l-0.809,2.448
		l2.158-1.454l2.158,1.454l-0.811-2.448l2.176-1.604h-2.707l-0.816-2.468l-0.816,2.468h-2.707L31.06,8.813z M25.423,15.04
		l-0.818-2.467l-0.816,2.467h-2.707l2.176,1.606l-0.811,2.446l2.16-1.452l2.158,1.452l-0.811-2.446l2.176-1.606H25.423z
		 M21.673,28.289l2.156,1.453l-0.809-2.447l2.174-1.605h-2.705l-0.818-2.467l-0.816,2.467h-2.707l2.176,1.605l-0.811,2.447
		L21.673,28.289z M33.226,44.092l-0.816-2.468l-0.816,2.468h-2.707l2.174,1.605l-0.809,2.447l2.158-1.455l2.158,1.455l-0.811-2.447
		l2.176-1.605H33.226z"/>
	<path display="inline" fill="#FEDB3F" d="M55.04,8.813l0.811,2.448l-2.158-1.453l-2.158,1.453l0.811-2.448l-2.178-1.604h2.707
		l0.818-2.468l0.816,2.468h2.707L55.04,8.813z"/>
	<polygon display="inline" fill="#FEDB3F" points="46.798,4.359 44.622,5.965 45.433,8.412 43.274,6.96 41.116,8.412 41.927,5.965 
		39.751,4.359 42.458,4.359 43.274,1.893 44.093,4.359 	"/>
</g>
<g display="none">
	<g display="inline">
		<g>
			<g>
				<rect x="28.38" y="28.655" fill="#DD2726" width="56.586" height="28.345"/>
				<rect x="28.38" y="0.31" fill="#FED600" width="56.586" height="28.346"/>
				<polygon fill="#349545" points="28.38,0.306 28.38,57 0.034,56.998 0.034,0.31 				"/>
			</g>
		</g>
	</g>
</g>
<rect x="0.063" y="19.052" display="none" fill="#FFFFFF" width="85.039" height="18.897"/>
<rect x="0.063" y="37.949" display="none" fill="#14A2DD" width="85.039" height="18.896"/>
<polyline display="none" fill="#EF4034" points="0.063,0.153 0.063,19.052 85.102,19.052 85.102,0.153 "/>
<g display="none">
	<rect x="-0.019" y="0.154" display="inline" fill="#D91F27" width="28.346" height="56.692"/>
	<rect x="28.327" y="0.154" display="inline" fill="#FFFFFF" width="28.347" height="56.692"/>
	<rect x="56.674" y="0.154" display="inline" fill="#D91F27" width="28.346" height="56.692"/>
</g>
<polyline display="none" fill="#FFFFFF" points="85.021,0.153 85.021,56.847 -0.02,56.847 -0.02,0.153 "/>
<rect x="-0.02" y="18.946" display="none" fill="#263E8C" width="85.04" height="19.107"/>
<polygon display="none" fill="#FFFFFF" points="42.479,20.952 44.414,26.665 50.68,26.665 45.6,30.384 47.479,36.048 42.482,32.681 
	37.482,36.048 39.359,30.384 34.322,26.665 40.588,26.665 "/>
<polyline display="none" fill="#263E8C" points="74.835,1.927 76.771,7.64 83.034,7.64 77.954,11.357 79.835,17.021 74.837,13.654 
	69.839,17.021 71.716,11.357 66.679,7.64 72.944,7.64 74.835,1.927 "/>
<polygon display="none" fill="#263E8C" points="74.835,39.979 76.771,45.691 83.034,45.691 77.954,49.409 79.835,55.073 
	74.837,51.706 69.839,55.073 71.716,49.409 66.679,45.691 72.944,45.691 "/>
<polyline display="none" fill="#263E8C" points="10.167,1.927 8.231,7.64 1.967,7.64 7.047,11.357 5.167,17.021 10.164,13.654 
	15.163,17.021 13.286,11.357 18.323,7.64 12.058,7.64 10.167,1.927 "/>
<polygon display="none" fill="#263E8C" points="10.167,39.979 8.231,45.691 1.967,45.691 7.047,49.409 5.167,55.073 10.164,51.706 
	15.163,55.073 13.286,49.409 18.323,45.691 12.058,45.691 "/>
<g display="none">
	<rect x="0.53" y="-5.863" display="inline" fill="#2B3282" width="85.039" height="56.692"/>
	<g display="inline">
		<path fill="#FEDB3F" d="M65.157,11.04l-2.176,1.605l0.811,2.447l-2.158-1.452l-2.158,1.452l0.811-2.447L58.11,11.04h2.707
			l0.816-2.467l0.816,2.467H65.157z M44.091,43.021l-0.816-2.468l-0.816,2.468h-2.707l2.176,1.605l-0.811,2.447l2.16-1.455
			l2.158,1.455l-0.813-2.447l2.176-1.605H44.091z M65.245,21.689l-0.814-2.467l-0.816,2.467h-2.709l2.176,1.606l-0.809,2.446
			l2.158-1.453l2.158,1.453l-0.813-2.446l2.178-1.606H65.245z M61.634,34.87l2.158,1.453l-0.811-2.447l2.176-1.605H62.45
			l-0.816-2.468l-0.816,2.468H58.11l2.176,1.605l-0.811,2.447L61.634,34.87z M54.62,40.092l-0.816-2.468l-0.816,2.468H50.28
			l2.176,1.605l-0.811,2.447l2.16-1.455l2.158,1.455l-0.813-2.447l2.176-1.605H54.62z M25.954,33.876l2.176-1.605h-2.707
			l-0.818-2.468l-0.814,2.468h-2.709l2.176,1.605l-0.811,2.447l2.16-1.453l2.158,1.453L25.954,33.876z M31.06,4.813l-0.809,2.448
			l2.158-1.454l2.158,1.454l-0.811-2.448l2.176-1.604h-2.707l-0.816-2.468l-0.816,2.468h-2.707L31.06,4.813z M25.423,11.04
			l-0.818-2.467l-0.816,2.467h-2.707l2.176,1.606l-0.811,2.446l2.16-1.452l2.158,1.452l-0.811-2.446l2.176-1.606H25.423z
			 M21.673,24.289l2.156,1.453l-0.809-2.447l2.174-1.605h-2.705l-0.818-2.467l-0.816,2.467h-2.707l2.176,1.605l-0.811,2.447
			L21.673,24.289z M33.226,40.092l-0.816-2.468l-0.816,2.468h-2.707l2.174,1.605l-0.809,2.447l2.158-1.455l2.158,1.455l-0.811-2.447
			l2.176-1.605H33.226z"/>
		<path fill="#FEDB3F" d="M55.04,4.813l0.811,2.448l-2.158-1.453l-2.158,1.453l0.811-2.448l-2.178-1.604h2.707l0.818-2.468
			l0.816,2.468h2.707L55.04,4.813z"/>
		<polygon fill="#FEDB3F" points="46.798,0.359 44.622,1.965 45.433,4.412 43.274,2.96 41.116,4.412 41.927,1.965 39.751,0.359 
			42.458,0.359 43.274,-2.107 44.093,0.359 		"/>
	</g>
</g>
<g display="none">
	<g display="inline">
		<g>
			<polygon fill="#FFFFFF" points="7.167,4.789 7.635,5.738 8.682,5.891 7.925,6.628 8.102,7.67 7.167,7.18 6.231,7.67 6.409,6.628 
				5.651,5.891 6.698,5.738 			"/>
			<polygon fill="#FFFFFF" points="14.299,4.789 14.768,5.738 15.815,5.891 15.057,6.628 15.235,7.67 14.299,7.18 13.364,7.67 
				13.542,6.628 12.784,5.891 13.831,5.738 			"/>
			<polygon fill="#FFFFFF" points="21.432,4.789 21.899,5.738 22.946,5.891 22.19,6.628 22.368,7.67 21.432,7.18 20.495,7.67 
				20.673,6.628 19.917,5.891 20.963,5.738 			"/>
			<polygon fill="#FFFFFF" points="28.563,4.789 29.032,5.738 30.079,5.891 29.321,6.628 29.5,7.67 28.563,7.18 27.627,7.67 
				27.806,6.628 27.047,5.891 28.096,5.738 			"/>
			<polygon fill="#FFFFFF" points="35.696,4.789 36.165,5.738 37.21,5.891 36.454,6.628 36.631,7.67 35.696,7.18 34.76,7.67 
				34.938,6.628 34.181,5.891 35.229,5.738 			"/>
		</g>
		<g>
			<polygon fill="#FFFFFF" points="7.167,10.936 7.635,11.884 8.682,12.037 7.925,12.775 8.102,13.817 7.167,13.326 6.231,13.817 
				6.409,12.775 5.651,12.037 6.698,11.884 			"/>
			<polygon fill="#FFFFFF" points="14.299,10.936 14.768,11.884 15.815,12.037 15.057,12.775 15.235,13.817 14.299,13.326 
				13.364,13.817 13.542,12.775 12.784,12.037 13.831,11.884 			"/>
			<polygon fill="#FFFFFF" points="21.432,10.936 21.899,11.884 22.946,12.037 22.19,12.775 22.368,13.817 21.432,13.326 
				20.495,13.817 20.673,12.775 19.917,12.037 20.963,11.884 			"/>
			<polygon fill="#FFFFFF" points="28.563,10.936 29.032,11.884 30.079,12.037 29.321,12.775 29.5,13.817 28.563,13.326 
				27.627,13.817 27.806,12.775 27.047,12.037 28.096,11.884 			"/>
			<polygon fill="#FFFFFF" points="35.696,10.936 36.165,11.884 37.21,12.037 36.454,12.775 36.631,13.817 35.696,13.326 
				34.76,13.817 34.938,12.775 34.181,12.037 35.229,11.884 			"/>
		</g>
		<g>
			<polygon fill="#FFFFFF" points="7.167,17.082 7.635,18.03 8.682,18.182 7.925,18.921 8.102,19.963 7.167,19.471 6.231,19.963 
				6.409,18.921 5.651,18.182 6.698,18.03 			"/>
			<polygon fill="#FFFFFF" points="14.299,17.082 14.768,18.03 15.815,18.182 15.057,18.921 15.235,19.963 14.299,19.471 
				13.364,19.963 13.542,18.921 12.784,18.182 13.831,18.03 			"/>
			<polygon fill="#FFFFFF" points="21.432,17.082 21.899,18.03 22.946,18.182 22.19,18.921 22.368,19.963 21.432,19.471 
				20.495,19.963 20.673,18.921 19.917,18.182 20.963,18.03 			"/>
			<polygon fill="#FFFFFF" points="28.563,17.082 29.032,18.03 30.079,18.182 29.321,18.921 29.5,19.963 28.563,19.471 
				27.627,19.963 27.806,18.921 27.047,18.182 28.096,18.03 			"/>
			<polygon fill="#FFFFFF" points="35.696,17.082 36.165,18.03 37.21,18.182 36.454,18.921 36.631,19.963 35.696,19.471 
				34.76,19.963 34.938,18.921 34.181,18.182 35.229,18.03 			"/>
		</g>
		<g>
			<polygon fill="#FFFFFF" points="7.167,23.228 7.635,24.177 8.682,24.33 7.925,25.067 8.102,26.109 7.167,25.619 6.231,26.109 
				6.409,25.067 5.651,24.33 6.698,24.177 			"/>
			<polygon fill="#FFFFFF" points="14.299,23.228 14.768,24.177 15.815,24.33 15.057,25.067 15.235,26.109 14.299,25.619 
				13.364,26.109 13.542,25.067 12.784,24.33 13.831,24.177 			"/>
			<polygon fill="#FFFFFF" points="21.432,23.228 21.899,24.177 22.946,24.33 22.19,25.067 22.368,26.109 21.432,25.619 
				20.495,26.109 20.673,25.067 19.917,24.33 20.963,24.177 			"/>
			<polygon fill="#FFFFFF" points="28.563,23.228 29.032,24.177 30.079,24.33 29.321,25.067 29.5,26.109 28.563,25.619 
				27.627,26.109 27.806,25.067 27.047,24.33 28.096,24.177 			"/>
			<polygon fill="#FFFFFF" points="35.696,23.228 36.165,24.177 37.21,24.33 36.454,25.067 36.631,26.109 35.696,25.619 
				34.76,26.109 34.938,25.067 34.181,24.33 35.229,24.177 			"/>
		</g>
	</g>
	<rect x="-0.13" y="0.154" display="inline" fill="#FFFFFF" width="85.261" height="56.692"/>
	<rect x="-0.13" y="0.154" display="inline" fill="#34479E" width="43.125" height="30.592"/>
	<g display="inline">
		<rect x="42.994" y="0.154" fill="#EA1D25" width="42.137" height="4.49"/>
		<rect x="42.994" y="8.854" fill="#EA1D25" width="42.137" height="4.49"/>
		<rect x="42.994" y="17.554" fill="#EA1D25" width="42.137" height="4.491"/>
		<rect x="42.994" y="26.253" fill="#EA1D25" width="42.137" height="4.493"/>
		<rect x="-0.13" y="34.955" fill="#EA1D25" width="85.261" height="4.492"/>
		<rect x="-0.13" y="43.656" fill="#EA1D25" width="85.261" height="4.49"/>
		<rect x="-0.13" y="52.355" fill="#EA1D25" width="85.261" height="4.49"/>
	</g>
	<g display="inline">
		<g>
			<polygon fill="#FFFFFF" points="4.172,3.579 5.2,2.833 3.93,2.833 3.539,1.625 3.147,2.833 1.877,2.833 2.905,3.579 2.512,4.785 
				3.539,4.04 4.565,4.785 			"/>
			<polygon fill="#FFFFFF" points="11.316,3.579 12.342,2.833 11.074,2.833 10.682,1.625 10.29,2.833 9.021,2.833 10.047,3.579 
				9.655,4.785 10.682,4.04 11.708,4.785 			"/>
			<polygon fill="#FFFFFF" points="18.459,3.579 19.486,2.833 18.217,2.833 17.825,1.625 17.433,2.833 16.165,2.833 17.191,3.579 
				16.799,4.785 17.825,4.04 18.852,4.785 			"/>
			<polygon fill="#FFFFFF" points="25.602,3.579 26.629,2.833 25.36,2.833 24.968,1.625 24.577,2.833 23.307,2.833 24.334,3.579 
				23.942,4.785 24.968,4.04 25.995,4.785 			"/>
			<polygon fill="#FFFFFF" points="32.747,3.579 33.772,2.833 32.504,2.833 32.112,1.625 31.719,2.833 30.452,2.833 31.477,3.579 
				31.085,4.785 32.112,4.04 33.138,4.785 			"/>
			<polygon fill="#FFFFFF" points="39.889,3.579 40.916,2.833 39.647,2.833 39.254,1.625 38.863,2.833 37.594,2.833 38.621,3.579 
				38.229,4.785 39.254,4.04 40.282,4.785 			"/>
		</g>
		<polygon fill="#FFFFFF" points="7.745,6.639 8.771,5.894 7.502,5.894 7.11,4.687 6.718,5.894 5.45,5.894 6.476,6.639 6.084,7.846 
			7.11,7.1 8.137,7.846 		"/>
		<polygon fill="#FFFFFF" points="14.887,6.639 15.915,5.894 14.645,5.894 14.253,4.687 13.862,5.894 12.592,5.894 13.62,6.639 
			13.227,7.846 14.253,7.1 15.28,7.846 		"/>
		<polygon fill="#FFFFFF" points="22.032,6.639 23.057,5.894 21.79,5.894 21.397,4.687 21.004,5.894 19.737,5.894 20.762,6.639 
			20.371,7.846 21.397,7.1 22.423,7.846 		"/>
		<polygon fill="#FFFFFF" points="29.174,6.639 30.201,5.894 28.932,5.894 28.54,4.687 28.148,5.894 26.879,5.894 27.906,6.639 
			27.514,7.846 28.54,7.1 29.567,7.846 		"/>
		<polygon fill="#FFFFFF" points="36.318,6.639 37.344,5.894 36.076,5.894 35.684,4.687 35.292,5.894 34.023,5.894 35.049,6.639 
			34.657,7.846 35.684,7.1 36.709,7.846 		"/>
		<polygon fill="#FFFFFF" points="4.172,9.702 5.2,8.956 3.93,8.956 3.539,7.749 3.147,8.956 1.877,8.956 2.905,9.702 2.512,10.908 
			3.539,10.163 4.565,10.908 		"/>
		<polygon fill="#FFFFFF" points="11.316,9.702 12.342,8.956 11.074,8.956 10.682,7.749 10.29,8.956 9.021,8.956 10.047,9.702 
			9.655,10.908 10.682,10.163 11.708,10.908 		"/>
		<polygon fill="#FFFFFF" points="18.459,9.702 19.486,8.956 18.217,8.956 17.825,7.749 17.433,8.956 16.165,8.956 17.191,9.702 
			16.799,10.908 17.825,10.163 18.852,10.908 		"/>
		<polygon fill="#FFFFFF" points="25.602,9.702 26.629,8.956 25.36,8.956 24.968,7.749 24.577,8.956 23.307,8.956 24.334,9.702 
			23.942,10.908 24.968,10.163 25.995,10.908 		"/>
		<polygon fill="#FFFFFF" points="32.747,9.702 33.772,8.956 32.504,8.956 32.112,7.749 31.719,8.956 30.452,8.956 31.477,9.702 
			31.085,10.908 32.112,10.163 33.138,10.908 		"/>
		<polygon fill="#FFFFFF" points="39.889,9.702 40.916,8.956 39.647,8.956 39.254,7.749 38.863,8.956 37.594,8.956 38.621,9.702 
			38.229,10.908 39.254,10.163 40.282,10.908 		"/>
		<polygon fill="#FFFFFF" points="7.745,12.762 8.771,12.017 7.502,12.017 7.11,10.81 6.718,12.017 5.45,12.017 6.476,12.762 
			6.084,13.969 7.11,13.223 8.137,13.969 		"/>
		<polygon fill="#FFFFFF" points="14.887,12.762 15.915,12.017 14.645,12.017 14.253,10.81 13.862,12.017 12.592,12.017 
			13.62,12.762 13.227,13.969 14.253,13.223 15.28,13.969 		"/>
		<polygon fill="#FFFFFF" points="22.032,12.762 23.057,12.017 21.79,12.017 21.397,10.81 21.004,12.017 19.737,12.017 
			20.762,12.762 20.371,13.969 21.397,13.223 22.423,13.969 		"/>
		<polygon fill="#FFFFFF" points="29.174,12.762 30.201,12.017 28.932,12.017 28.54,10.81 28.148,12.017 26.879,12.017 
			27.906,12.762 27.514,13.969 28.54,13.223 29.567,13.969 		"/>
		<polygon fill="#FFFFFF" points="36.318,12.762 37.344,12.017 36.076,12.017 35.684,10.81 35.292,12.017 34.023,12.017 
			35.049,12.762 34.657,13.969 35.684,13.223 36.709,13.969 		"/>
		<polygon fill="#FFFFFF" points="4.172,15.825 5.2,15.079 3.93,15.079 3.539,13.872 3.147,15.079 1.877,15.079 2.905,15.825 
			2.512,17.031 3.539,16.286 4.565,17.031 		"/>
		<polygon fill="#FFFFFF" points="11.316,15.825 12.342,15.079 11.074,15.079 10.682,13.872 10.29,15.079 9.021,15.079 
			10.047,15.825 9.655,17.031 10.682,16.286 11.708,17.031 		"/>
		<polygon fill="#FFFFFF" points="18.459,15.825 19.486,15.079 18.217,15.079 17.825,13.872 17.433,15.079 16.165,15.079 
			17.191,15.825 16.799,17.031 17.825,16.286 18.852,17.031 		"/>
		<polygon fill="#FFFFFF" points="25.602,15.825 26.629,15.079 25.36,15.079 24.968,13.872 24.577,15.079 23.307,15.079 
			24.334,15.825 23.942,17.031 24.968,16.286 25.995,17.031 		"/>
		<polygon fill="#FFFFFF" points="32.747,15.825 33.772,15.079 32.504,15.079 32.112,13.872 31.719,15.079 30.452,15.079 
			31.477,15.825 31.085,17.031 32.112,16.286 33.138,17.031 		"/>
		<polygon fill="#FFFFFF" points="39.889,15.825 40.916,15.079 39.647,15.079 39.254,13.872 38.863,15.079 37.594,15.079 
			38.621,15.825 38.229,17.031 39.254,16.286 40.282,17.031 		"/>
		<polygon fill="#FFFFFF" points="7.745,18.885 8.771,18.14 7.502,18.14 7.11,16.933 6.718,18.14 5.45,18.14 6.476,18.885 
			6.084,20.092 7.11,19.346 8.137,20.092 		"/>
		<polygon fill="#FFFFFF" points="14.887,18.885 15.915,18.14 14.645,18.14 14.253,16.933 13.862,18.14 12.592,18.14 13.62,18.885 
			13.227,20.092 14.253,19.346 15.28,20.092 		"/>
		<polygon fill="#FFFFFF" points="22.032,18.885 23.057,18.14 21.79,18.14 21.397,16.933 21.004,18.14 19.737,18.14 20.762,18.885 
			20.371,20.092 21.397,19.346 22.423,20.092 		"/>
		<polygon fill="#FFFFFF" points="29.174,18.885 30.201,18.14 28.932,18.14 28.54,16.933 28.148,18.14 26.879,18.14 27.906,18.885 
			27.514,20.092 28.54,19.346 29.567,20.092 		"/>
		<polygon fill="#FFFFFF" points="36.318,18.885 37.344,18.14 36.076,18.14 35.684,16.933 35.292,18.14 34.023,18.14 35.049,18.885 
			34.657,20.092 35.684,19.346 36.709,20.092 		"/>
		<polygon fill="#FFFFFF" points="4.172,21.948 5.2,21.202 3.93,21.202 3.539,19.995 3.147,21.202 1.877,21.202 2.905,21.948 
			2.512,23.154 3.539,22.409 4.565,23.154 		"/>
		<polygon fill="#FFFFFF" points="11.316,21.948 12.342,21.202 11.074,21.202 10.682,19.995 10.29,21.202 9.021,21.202 
			10.047,21.948 9.655,23.154 10.682,22.409 11.708,23.154 		"/>
		<polygon fill="#FFFFFF" points="18.459,21.948 19.486,21.202 18.217,21.202 17.825,19.995 17.433,21.202 16.165,21.202 
			17.191,21.948 16.799,23.154 17.825,22.409 18.852,23.154 		"/>
		<polygon fill="#FFFFFF" points="25.602,21.948 26.629,21.202 25.36,21.202 24.968,19.995 24.577,21.202 23.307,21.202 
			24.334,21.948 23.942,23.154 24.968,22.409 25.995,23.154 		"/>
		<polygon fill="#FFFFFF" points="32.747,21.948 33.772,21.202 32.504,21.202 32.112,19.995 31.719,21.202 30.452,21.202 
			31.477,21.948 31.085,23.154 32.112,22.409 33.138,23.154 		"/>
		<polygon fill="#FFFFFF" points="39.889,21.948 40.916,21.202 39.647,21.202 39.254,19.995 38.863,21.202 37.594,21.202 
			38.621,21.948 38.229,23.154 39.254,22.409 40.282,23.154 		"/>
		<polygon fill="#FFFFFF" points="7.745,25.008 8.771,24.263 7.502,24.263 7.11,23.056 6.718,24.263 5.45,24.263 6.476,25.008 
			6.084,26.215 7.11,25.469 8.137,26.215 		"/>
		<polygon fill="#FFFFFF" points="14.887,25.008 15.915,24.263 14.645,24.263 14.253,23.056 13.862,24.263 12.592,24.263 
			13.62,25.008 13.227,26.215 14.253,25.469 15.28,26.215 		"/>
		<polygon fill="#FFFFFF" points="22.032,25.008 23.057,24.263 21.79,24.263 21.397,23.056 21.004,24.263 19.737,24.263 
			20.762,25.008 20.371,26.215 21.397,25.469 22.423,26.215 		"/>
		<polygon fill="#FFFFFF" points="29.174,25.008 30.201,24.263 28.932,24.263 28.54,23.056 28.148,24.263 26.879,24.263 
			27.906,25.008 27.514,26.215 28.54,25.469 29.567,26.215 		"/>
		<polygon fill="#FFFFFF" points="36.318,25.008 37.344,24.263 36.076,24.263 35.684,23.056 35.292,24.263 34.023,24.263 
			35.049,25.008 34.657,26.215 35.684,25.469 36.709,26.215 		"/>
		<polygon fill="#FFFFFF" points="4.172,28.071 5.2,27.325 3.93,27.325 3.539,26.118 3.147,27.325 1.877,27.325 2.905,28.071 
			2.512,29.277 3.539,28.532 4.565,29.277 		"/>
		<polygon fill="#FFFFFF" points="11.316,28.071 12.342,27.325 11.074,27.325 10.682,26.118 10.29,27.325 9.021,27.325 
			10.047,28.071 9.655,29.277 10.682,28.532 11.708,29.277 		"/>
		<polygon fill="#FFFFFF" points="18.459,28.071 19.486,27.325 18.217,27.325 17.825,26.118 17.433,27.325 16.165,27.325 
			17.191,28.071 16.799,29.277 17.825,28.532 18.852,29.277 		"/>
		<polygon fill="#FFFFFF" points="25.602,28.071 26.629,27.325 25.36,27.325 24.968,26.118 24.577,27.325 23.307,27.325 
			24.334,28.071 23.942,29.277 24.968,28.532 25.995,29.277 		"/>
		<polygon fill="#FFFFFF" points="32.747,28.071 33.772,27.325 32.504,27.325 32.112,26.118 31.719,27.325 30.452,27.325 
			31.477,28.071 31.085,29.277 32.112,28.532 33.138,29.277 		"/>
		<polygon fill="#FFFFFF" points="39.889,28.071 40.916,27.325 39.647,27.325 39.254,26.118 38.863,27.325 37.594,27.325 
			38.621,28.071 38.229,29.277 39.254,28.532 40.282,29.277 		"/>
	</g>
</g>
<g display="none">
	<g display="inline">
		<rect x="-0.019" y="19.052" fill="#FFFFFF" width="85.039" height="18.897"/>
		<rect x="-0.019" y="37.949" fill="#2D72BA" width="85.039" height="18.896"/>
		<rect x="-0.019" y="0.154" fill="#2D72BA" width="85.039" height="18.898"/>
	</g>
	<polygon display="inline" fill="#2D72BA" points="45.291,27.872 43.568,29.143 44.211,31.08 42.5,29.93 40.791,31.08 
		41.433,29.143 39.71,27.872 41.854,27.872 42.5,25.919 43.148,27.872 	"/>
	<polygon display="inline" fill="#2D72BA" points="29.207,22.722 27.486,23.994 28.126,25.931 26.419,24.781 24.708,25.931 
		25.351,23.994 23.628,22.722 25.771,22.722 26.419,20.77 27.064,22.722 	"/>
	<polygon display="inline" fill="#2D72BA" points="29.207,32.455 27.486,33.725 28.126,35.662 26.419,34.512 24.708,35.662 
		25.351,33.725 23.628,32.455 25.771,32.455 26.419,30.502 27.064,32.455 	"/>
	<polygon display="inline" fill="#2D72BA" points="61.375,22.722 59.652,23.994 60.295,25.931 58.586,24.781 56.877,25.931 
		57.52,23.994 55.797,22.722 57.939,22.722 58.586,20.77 59.232,22.722 	"/>
	<polygon display="inline" fill="#2D72BA" points="61.375,32.455 59.652,33.725 60.295,35.662 58.586,34.512 56.877,35.662 
		57.52,33.725 55.797,32.455 57.939,32.455 58.586,30.502 59.232,32.455 	"/>
</g>
<g display="none">
	<rect x="-0.02" y="0.154" display="inline" fill="#FFFFFF" width="85.039" height="56.691"/>
	<polygon display="inline" fill="#ED2024" points="85.02,22.868 46.73,22.868 46.73,0.154 38.324,0.154 38.324,22.868 -0.02,22.868 
		-0.02,33.688 38.324,33.688 38.324,56.846 46.73,56.846 46.73,33.688 85.02,33.688 	"/>
</g>
<g display="none">
	<rect x="-0.019" y="0.154" display="inline" fill="#FFFFFF" width="85.038" height="56.692"/>
	<path display="inline" fill="#711A3E" d="M17.063,0.154c0.153,0.072,4.102,1.964,6.568,3.145C21.115,4.5,17.05,6.447,17.05,6.447
		s4.065,1.948,6.581,3.151c-2.516,1.202-6.581,3.15-6.581,3.15s4.065,1.947,6.581,3.149c-2.516,1.202-6.581,3.149-6.581,3.149
		s4.065,1.948,6.581,3.148c-2.516,1.205-6.581,3.151-6.581,3.151s4.065,1.948,6.581,3.151c-2.516,1.201-6.581,3.15-6.581,3.15
		s4.065,1.945,6.581,3.148c-2.516,1.203-6.581,3.15-6.581,3.15s4.065,1.949,6.581,3.15c-2.516,1.201-6.581,3.15-6.581,3.15
		s4.065,1.947,6.581,3.148c-2.516,1.203-6.581,3.15-6.581,3.15s4.065,1.947,6.581,3.152c-2.509,1.197-6.558,3.137-6.58,3.146H85.02
		V0.154H17.063z"/>
</g>
<g display="none">
	<rect x="-0.018" y="0.153" display="inline" fill="#EA2B38" width="85.035" height="14.174"/>
	<rect x="-0.018" y="14.327" display="inline" fill="#292A6A" width="85.035" height="14.172"/>
	<rect x="-0.018" y="28.499" display="inline" fill="#FED208" width="85.035" height="14.174"/>
	<rect x="-0.018" y="42.673" display="inline" fill="#04A54F" width="85.035" height="14.174"/>
</g>
<rect x="-0.02" y="0.689" display="none" fill="#EA2B38" width="85.039" height="28.345"/>
<rect x="-0.039" display="none" fill="#EA2B38" width="85.039" height="28.346"/>
<rect x="-0.039" y="28.346" display="none" fill="#FFFFFF" width="85.039" height="28.346"/>
<polygon display="none" fill="#FFFFFF" points="29.77,9.801 30.367,11.567 32.304,11.567 30.733,12.715 31.314,14.466 
	29.771,13.426 28.225,14.466 28.805,12.715 27.248,11.567 29.185,11.567 "/>
<polygon display="none" fill="#FFFFFF" points="18.341,9.801 18.938,11.567 20.875,11.567 19.305,12.715 19.886,14.466 
	18.342,13.426 16.796,14.466 17.376,12.715 15.819,11.567 17.756,11.567 "/>
<polygon display="none" fill="#FFFFFF" points="24.012,5.593 24.609,7.359 26.546,7.359 24.976,8.507 25.557,10.258 24.013,9.218 
	22.467,10.258 23.047,8.507 21.49,7.359 23.427,7.359 "/>
<polygon display="none" fill="#FFFFFF" points="27.555,16.535 28.152,18.302 30.089,18.302 28.519,19.449 29.1,21.2 27.556,20.16 
	26.01,21.2 26.59,19.449 25.033,18.302 26.97,18.302 "/>
<polygon display="none" fill="#FFFFFF" points="20.467,16.535 21.064,18.302 23.001,18.302 21.431,19.449 22.012,21.2 20.468,20.16 
	18.922,21.2 19.502,19.449 17.945,18.302 19.882,18.302 "/>
<path display="none" fill="#FFFFFF" d="M12.35,14.124c0-5.436,4.334-9.851,9.733-10.002c-1.151-0.425-2.392-0.669-3.691-0.669
	c-5.893,0-10.671,4.777-10.671,10.671c0,5.893,4.778,10.671,10.671,10.671c1.3,0,2.539-0.244,3.691-0.669
	C16.684,23.975,12.35,19.56,12.35,14.124z"/>
<rect x="-0.039" y="28.5" display="none" fill="#FFFFFF" width="85.039" height="28.345"/>
<polygon display="none" fill="#FFFFFF" points="29.77,3.462 30.367,5.229 32.304,5.229 30.733,6.376 31.314,8.127 29.771,7.087 
	28.225,8.127 28.805,6.376 27.248,5.229 29.185,5.229 "/>
<polygon display="none" fill="#FFFFFF" points="18.341,3.462 18.938,5.229 20.875,5.229 19.305,6.376 19.886,8.127 18.342,7.087 
	16.796,8.127 17.376,6.376 15.819,5.229 17.756,5.229 "/>
<polygon display="none" fill="#FFFFFF" points="24.012,-0.746 24.609,1.021 26.546,1.021 24.976,2.168 25.557,3.919 24.013,2.879 
	22.467,3.919 23.047,2.168 21.49,1.021 23.427,1.021 "/>
<polygon display="none" fill="#FFFFFF" points="27.555,10.196 28.152,11.963 30.089,11.963 28.519,13.11 29.1,14.861 27.556,13.821 
	26.01,14.861 26.59,13.11 25.033,11.963 26.97,11.963 "/>
<polygon display="none" fill="#FFFFFF" points="20.467,10.196 21.064,11.963 23.001,11.963 21.431,13.11 22.012,14.861 
	20.468,13.821 18.922,14.861 19.502,13.11 17.945,11.963 19.882,11.963 "/>
<path display="none" fill="#FFFFFF" d="M12.35,7.785c0-5.436,4.334-9.851,9.733-10.002c-1.151-0.425-2.392-0.669-3.691-0.669
	c-5.893,0-10.671,4.777-10.671,10.671c0,5.893,4.778,10.671,10.671,10.671c1.3,0,2.539-0.244,3.691-0.669
	C16.684,17.636,12.35,13.221,12.35,7.785z"/>
<g display="none">
	<rect x="0.001" y="0.154" display="inline" fill="#008852" width="28.348" height="56.691"/>
	<rect x="28.349" y="0.154" display="inline" fill="#FFFFFF" width="28.346" height="56.691"/>
	<rect x="56.694" y="0.154" display="inline" fill="#008852" width="28.346" height="56.691"/>
</g>
<g display="none">
	<rect x="0.102" y="0.153" display="inline" fill="#263779" width="85.039" height="56.693"/>
	<rect x="0.102" y="9.495" display="inline" fill="#FFFFFF" width="85.039" height="38.012"/>
	<rect x="0.102" y="19.374" display="inline" fill="#CE2028" width="85.039" height="18.254"/>
</g>
<g display="none">
	<rect x="-0.021" y="0.153" display="inline" fill="#D12026" width="85.04" height="56.693"/>
	<path display="inline" fill="#FEE600" d="M41.053,18.387L36.774,0.153h11.36l-4.275,18.221c-0.445-0.061-0.897-0.102-1.359-0.102
		C42.008,18.272,41.526,18.319,41.053,18.387z M34.623,21.983L2.907,0.153h-2.928v7.082L33.367,23.92
		C33.717,23.228,34.133,22.575,34.623,21.983z M42.5,20.257c-4.546,0-8.244,3.697-8.244,8.243c0,4.545,3.698,8.243,8.244,8.243
		c4.545,0,8.242-3.698,8.242-8.243C50.742,23.954,47.045,20.257,42.5,20.257z M32.271,28.5c0-0.381,0.025-0.755,0.066-1.124
		l-32.358-3.214v8.563l32.344-3.211C32.291,29.18,32.271,28.842,32.271,28.5z M82.093,0.153l-31.717,21.83
		c0.49,0.592,0.907,1.245,1.255,1.938L85.02,7.235V0.153H82.093z M33.367,33.079L-0.021,49.765v7.082h2.928l31.716-21.83
		C34.133,34.425,33.717,33.771,33.367,33.079z M52.727,28.5c0,0.342-0.018,0.68-0.051,1.014l32.344,3.211v-8.563l-32.357,3.214
		C52.703,27.745,52.727,28.119,52.727,28.5z M50.376,35.016l31.717,21.831h2.927v-7.082L51.631,33.079
		C51.283,33.771,50.866,34.424,50.376,35.016z M42.5,38.728c-0.492,0-0.974-0.047-1.447-0.114l-4.278,18.233h11.36l-4.273-18.221
		C43.414,38.686,42.963,38.728,42.5,38.728z"/>
</g>
<g display="none">
	<rect x="0.063" y="28.794" display="inline" fill="#D01F35" width="85.039" height="28.054"/>
	<rect x="0.063" y="0.153" display="inline" fill="#FFFFFF" width="85.039" height="28.641"/>
	<path display="inline" fill="#FFFFFF" d="M33.434,47.258c10.381,0,18.822-8.193,19.27-18.464H14.164
		C14.611,39.064,23.055,47.258,33.434,47.258z"/>
	<path display="inline" fill="#D01F35" d="M33.434,8.631c-10.666,0-19.313,8.646-19.313,19.313c0,0.287,0.031,0.566,0.043,0.85
		h38.539c0.014-0.283,0.043-0.563,0.043-0.85C52.746,17.278,44.1,8.631,33.434,8.631z"/>
</g>
<g display="none">
	<rect x="-0.019" y="19.052" display="inline" fill="#FFFFFF" width="85.038" height="18.897"/>
	<rect x="-0.019" y="37.949" display="inline" fill="#010101" width="85.038" height="18.896"/>
	<rect x="-0.019" y="0.154" display="inline" fill="#DD1E34" width="85.038" height="18.898"/>
</g>
<g display="none">
	<rect x="-0.019" y="0.154" display="inline" fill="#0555A4" width="85.038" height="56.691"/>
	<polygon display="inline" fill="#FECF0A" points="85.02,20.305 41.595,20.305 41.595,0.154 25.206,0.154 25.206,20.305 
		-0.019,20.305 -0.019,36.979 25.206,36.979 25.206,56.846 41.595,56.846 41.595,36.979 85.02,36.979 	"/>
	<polygon display="inline" fill="#D31F36" points="85.02,32.443 85.02,24.84 37.06,24.84 37.06,0.154 29.741,0.154 29.741,24.84 
		-0.019,24.84 -0.019,32.443 29.741,32.443 29.741,56.846 37.06,56.846 37.06,32.443 	"/>
</g>
<g display="none">
	<rect x="28.416" y="28.35" display="inline" fill="#089E49" width="56.584" height="28.345"/>
	<rect x="28.416" y="0.004" display="inline" fill="#FCD117" width="56.584" height="28.346"/>
	<polygon display="inline" fill="#CE2029" points="28.416,0 28.416,56.694 0.07,56.692 0.07,0.004 	"/>
	<polygon display="inline" fill="#010101" points="14.223,21.438 15.996,26.668 21.73,26.668 17.08,30.071 18.801,35.257 
		14.227,32.176 9.648,35.257 11.367,30.071 6.756,26.668 12.492,26.668 	"/>
</g>
<g display="none">
	<rect x="-0.019" y="0.156" display="inline" fill="#1CAA4A" width="85.038" height="15.971"/>
	<rect x="-0.019" y="40.875" display="inline" fill="#1CAA4A" width="85.038" height="15.971"/>
	<rect x="-0.019" y="16.126" display="inline" fill="#FECF0A" width="85.038" height="24.749"/>
	<polygon display="inline" fill="#D31F36" points="27.529,28.5 -0.019,56.848 -0.019,0.154 	"/>
	<polygon display="inline" fill="#010101" points="43.579,21.6 45.063,26.153 50.036,26.211 45.97,29.117 47.409,33.631 
		43.472,30.912 39.473,33.539 41.016,29.059 37.05,26.061 42.024,26.119 	"/>
	<polygon display="inline" fill="#010101" points="64.524,21.6 66.009,26.153 70.981,26.211 66.915,29.117 68.354,33.631 
		64.42,30.912 60.421,33.539 61.962,29.059 57.997,26.061 62.972,26.119 	"/>
</g>
<g display="none">
	<rect x="-0.02" display="inline" fill="#F58020" width="28.348" height="56.693"/>
	<rect x="28.328" display="inline" fill="#FFFFFF" width="28.346" height="56.693"/>
	<rect x="56.674" display="inline" fill="#019E60" width="28.346" height="56.693"/>
</g>
<g display="none">
	<rect x="0.02" y="0.154" display="inline" fill="#FFFFFF" width="84.961" height="56.692"/>
	<g display="inline">
		<path fill="#1960AD" d="M31.379,6.378v6.393H18.812V0.154h12.567l0,0H84.98v6.225H31.379z M84.98,18.996v-6.225H31.379v6.225
			H84.98z M0.02,44.23H84.98v-6.227H0.02V44.23z M0.02,56.846H84.98v-6.225H0.02V56.846z M12.587,18.996H0.02v12.618h12.567V18.996z
			 M12.587,0.154H0.02v12.617h12.567V0.154z M18.812,31.613h12.567l0,0H84.98v-6.225H31.379v-6.393H18.812V31.613z"/>
	</g>
</g>
<g display="none">
	<g display="inline">
		<rect x="0.044" y="19.052" fill="#FFFFFF" width="85.039" height="18.897"/>
		<rect x="0.044" y="37.949" fill="#1E8943" width="85.039" height="18.896"/>
		<rect x="0.044" y="0.154" fill="#F89939" width="85.039" height="18.898"/>
	</g>
	<g display="inline">
		<circle fill="#2A2C7A" cx="42.563" cy="28.5" r="7.566"/>
		<g>
			<path fill="#FFFFFF" d="M41.393,29.088c-0.03-0.061-0.052-0.123-0.073-0.188l-1.155,0.473l-3.978,0.832
				c0.049,0.184,0.082,0.373,0.146,0.551c0.005-0.004,0.005-0.01,0.01-0.012c0.149-0.086,0.339-0.033,0.425,0.115
				c0.086,0.15,0.035,0.34-0.113,0.426c-0.03,0.018-0.064,0.006-0.097,0.014c0.08,0.17,0.186,0.324,0.278,0.488l3.408-2.221
				L41.393,29.088z"/>
			<path fill="#FFFFFF" d="M41.688,27.522c0.053-0.047,0.114-0.078,0.173-0.116l-0.759-1l-1.828-3.632
				c-0.161,0.092-0.332,0.17-0.484,0.275c0.021,0.021,0.054,0.026,0.069,0.054c0.086,0.148,0.035,0.341-0.115,0.427
				c-0.149,0.086-0.341,0.033-0.427-0.116c-0.001-0.001,0-0.003-0.001-0.005c-0.151,0.127-0.278,0.279-0.418,0.418l3.029,2.712
				L41.688,27.522z"/>
			<path fill="#FFFFFF" d="M41.322,28.089c0.021-0.065,0.045-0.126,0.076-0.187l-1.149-0.48l-3.403-2.227
				c-0.099,0.173-0.21,0.338-0.295,0.52c0.032,0.006,0.066-0.006,0.097,0.012c0.149,0.085,0.2,0.275,0.115,0.426
				c-0.086,0.149-0.275,0.202-0.425,0.117c-0.005-0.003-0.005-0.01-0.009-0.012c-0.061,0.166-0.091,0.346-0.138,0.518l3.977,0.841
				L41.322,28.089z"/>
			<path fill="#FFFFFF" d="M41.293,28.766c-0.015-0.066-0.037-0.131-0.04-0.201l-1.232,0.158l-4.088-0.227l4.088-0.227l1.233,0.156
				c0.004-0.07,0.026-0.135,0.041-0.203l-1.245-0.17l-3.859-1.274c-0.053,0.192-0.119,0.378-0.153,0.576
				c0.006,0,0.009-0.006,0.015-0.006c0.172,0,0.311,0.14,0.311,0.313s-0.139,0.313-0.311,0.313c-0.035,0-0.06-0.026-0.092-0.038
				c-0.016,0.187-0.028,0.373-0.028,0.564s0.013,0.379,0.028,0.566c0.032-0.01,0.057-0.037,0.092-0.037
				c0.172,0,0.311,0.139,0.311,0.313c0,0.172-0.139,0.313-0.311,0.313c-0.006,0-0.009-0.006-0.014-0.006
				c0.033,0.189,0.098,0.369,0.147,0.553l3.862-1.267L41.293,28.766z"/>
			<path fill="#FFFFFF" d="M41.976,27.329c0.061-0.03,0.123-0.051,0.188-0.072L41.69,26.1l-0.831-3.978
				c-0.181,0.048-0.367,0.081-0.542,0.145c0.084,0.149,0.034,0.34-0.116,0.426c-0.149,0.086-0.341,0.034-0.426-0.115
				c-0.015-0.026-0.004-0.056-0.011-0.083c-0.17,0.08-0.324,0.186-0.487,0.277l2.218,3.408L41.976,27.329z"/>
			<path fill="#FFFFFF" d="M41.476,27.789c0.037-0.058,0.068-0.119,0.114-0.169l-0.982-0.761l-2.712-3.029
				c-0.145,0.146-0.303,0.278-0.436,0.437c0.008,0.003,0.016-0.002,0.022,0.002c0.148,0.086,0.2,0.275,0.114,0.426
				s-0.275,0.202-0.425,0.117c-0.032-0.018-0.039-0.054-0.062-0.08c-0.102,0.146-0.175,0.309-0.263,0.463l3.628,1.836L41.476,27.789
				z"/>
			<path fill="#FFFFFF" d="M42.298,27.229c0.066-0.014,0.13-0.036,0.2-0.04l-0.157-1.232l0.227-4.088c-0.002,0-0.002,0-0.004,0
				c-0.188,0-0.373,0.013-0.559,0.028c0.009,0.027,0.033,0.047,0.033,0.078c0,0.172-0.14,0.313-0.313,0.313
				s-0.313-0.141-0.313-0.313c-0.189,0.033-0.367,0.098-0.551,0.146l1.266,3.862L42.298,27.229z"/>
			<path fill="#FFFFFF" d="M43.277,27.414c0.057,0.037,0.117,0.067,0.167,0.112l0.76-0.981l3.029-2.712
				c-0.143-0.143-0.272-0.299-0.428-0.428c-0.001,0.001,0,0.002-0.001,0.004c-0.086,0.149-0.276,0.202-0.427,0.116
				c-0.149-0.086-0.201-0.277-0.116-0.426c0.016-0.027,0.048-0.032,0.069-0.054c-0.141-0.098-0.299-0.168-0.447-0.254l-1.845,3.625
				L43.277,27.414z"/>
			<path fill="#FFFFFF" d="M43.734,27.911c0.03,0.062,0.052,0.124,0.073,0.189l1.155-0.473l3.978-0.831
				c-0.049-0.181-0.082-0.368-0.145-0.543c-0.149,0.085-0.34,0.034-0.426-0.116c-0.086-0.149-0.034-0.34,0.115-0.426
				c0.026-0.016,0.055-0.004,0.083-0.011c-0.079-0.17-0.185-0.323-0.277-0.486l-3.407,2.218L43.734,27.911z"/>
			<path fill="#FFFFFF" d="M42.974,27.258c0.066,0.022,0.129,0.047,0.19,0.078l0.483-1.147l2.233-3.399
				c-0.175-0.1-0.341-0.213-0.524-0.298c-0.007,0.028,0.004,0.057-0.011,0.083c-0.085,0.149-0.276,0.202-0.426,0.116
				c-0.15-0.086-0.202-0.276-0.116-0.426c-0.166-0.06-0.344-0.091-0.516-0.138l-0.84,3.977L42.974,27.258z"/>
			<path fill="#FFFFFF" d="M42.637,27.19c0.071,0.005,0.136,0.027,0.203,0.041l0.171-1.244l1.273-3.859
				c-0.188-0.052-0.371-0.117-0.566-0.152c0,0.172-0.14,0.313-0.313,0.313s-0.313-0.141-0.313-0.313c0-0.03,0.024-0.051,0.032-0.078
				c-0.185-0.016-0.37-0.027-0.558-0.028l0.227,4.088L42.637,27.19z"/>
			<path fill="#FFFFFF" d="M43.542,27.625c0.046,0.052,0.078,0.113,0.115,0.172l1-0.758l3.632-1.828
				c-0.092-0.161-0.171-0.332-0.276-0.484c-0.02,0.021-0.025,0.053-0.053,0.068c-0.148,0.086-0.341,0.035-0.427-0.115
				c-0.086-0.149-0.033-0.341,0.116-0.426c0.002-0.002,0.004,0,0.005-0.001c-0.126-0.151-0.278-0.278-0.419-0.419l-2.711,3.03
				L43.542,27.625z"/>
			<path fill="#FFFFFF" d="M43.805,28.91c-0.021,0.065-0.045,0.127-0.076,0.188l1.149,0.48l3.402,2.227
				c0.098-0.172,0.208-0.334,0.291-0.512c-0.027-0.008-0.057,0.004-0.083-0.012c-0.149-0.084-0.202-0.275-0.116-0.426
				s0.277-0.201,0.426-0.115c0.06-0.166,0.091-0.344,0.137-0.516l-3.975-0.84L43.805,28.91z"/>
			<path fill="#FFFFFF" d="M43.438,29.479c-0.053,0.045-0.113,0.078-0.172,0.115l0.758,1l1.827,3.631
				c0.164-0.092,0.337-0.172,0.492-0.281c-0.026-0.021-0.062-0.029-0.079-0.061c-0.086-0.148-0.033-0.338,0.116-0.424
				c0.15-0.086,0.34-0.035,0.426,0.113c0.003,0.006-0.001,0.014,0.003,0.02c0.151-0.127,0.279-0.279,0.419-0.42l-3.029-2.711
				L43.438,29.479z"/>
			<path fill="#FFFFFF" d="M43.651,29.211c-0.037,0.057-0.068,0.119-0.114,0.17l0.982,0.76l2.711,3.029
				c0.144-0.143,0.3-0.273,0.429-0.43c-0.002,0-0.004,0.002-0.005,0c-0.149-0.086-0.202-0.275-0.116-0.426s0.277-0.201,0.426-0.117
				c0.027,0.016,0.033,0.049,0.054,0.07c0.101-0.145,0.174-0.307,0.262-0.461l-3.628-1.836L43.651,29.211z"/>
			<path fill="#FFFFFF" d="M43.873,28.573c-0.004,0.071-0.026,0.136-0.041,0.203l1.245,0.172l3.859,1.273
				c0.051-0.189,0.116-0.371,0.15-0.566c-0.171,0-0.312-0.141-0.312-0.313c0-0.174,0.141-0.313,0.313-0.313
				c0.03,0,0.05,0.023,0.078,0.033c0.016-0.185,0.028-0.371,0.028-0.558l-4.088,0.227L43.873,28.573z"/>
			<path fill="#FFFFFF" d="M49.166,27.942c-0.028,0.008-0.048,0.032-0.078,0.032c-0.172,0-0.313-0.14-0.313-0.313
				s0.141-0.313,0.313-0.313c-0.033-0.189-0.098-0.366-0.146-0.55l-3.861,1.266l-1.246,0.169c0.015,0.067,0.037,0.13,0.04,0.2
				l1.232-0.156l4.088,0.227c0-0.002,0-0.003,0-0.004C49.194,28.311,49.182,28.125,49.166,27.942z"/>
			<path fill="#FFFFFF" d="M42.153,29.742c-0.066-0.023-0.129-0.047-0.189-0.08l-0.484,1.148l-2.233,3.4
				c0.177,0.102,0.346,0.215,0.532,0.301c0.007-0.033-0.005-0.066,0.013-0.096c0.085-0.15,0.275-0.201,0.425-0.115
				c0.15,0.086,0.203,0.275,0.117,0.424c-0.003,0.006-0.009,0.006-0.012,0.01c0.168,0.061,0.347,0.092,0.52,0.139l0.838-3.979
				L42.153,29.742z"/>
			<path fill="#FFFFFF" d="M41.585,29.375c-0.046-0.053-0.078-0.113-0.115-0.172l-1,0.758l-3.632,1.828
				c0.093,0.164,0.173,0.336,0.28,0.49c0.022-0.025,0.03-0.061,0.062-0.078c0.148-0.086,0.339-0.033,0.425,0.115
				c0.086,0.15,0.035,0.34-0.114,0.426c-0.006,0.004-0.013,0-0.02,0.004c0.127,0.152,0.28,0.279,0.42,0.418l2.712-3.029
				L41.585,29.375z"/>
			<path fill="#FFFFFF" d="M41.85,29.586c-0.056-0.037-0.117-0.066-0.167-0.113l-0.76,0.982l-3.029,2.713
				c0.145,0.145,0.277,0.303,0.436,0.436c0.004-0.008-0.001-0.016,0.003-0.023c0.085-0.148,0.275-0.199,0.426-0.113
				c0.149,0.086,0.202,0.275,0.117,0.424c-0.019,0.031-0.054,0.039-0.081,0.063c0.142,0.098,0.301,0.17,0.449,0.256l1.845-3.625
				L41.85,29.586z"/>
			<path fill="#FFFFFF" d="M42.49,29.809c-0.071-0.004-0.136-0.025-0.202-0.041l-0.172,1.246l-1.272,3.859
				c0.191,0.051,0.377,0.117,0.575,0.152c0-0.006-0.006-0.008-0.006-0.014c0-0.172,0.14-0.311,0.313-0.311s0.313,0.139,0.313,0.311
				c0,0.035-0.027,0.059-0.038,0.092c0.186,0.016,0.37,0.027,0.56,0.027l-0.227-4.088L42.49,29.809z"/>
			<path fill="#FFFFFF" d="M42.829,29.77c-0.066,0.016-0.13,0.037-0.2,0.041l0.157,1.232l-0.227,4.088c0.002,0,0.002,0,0.004,0
				c0.191,0,0.38-0.012,0.567-0.029c-0.011-0.031-0.038-0.055-0.038-0.09c0-0.172,0.14-0.311,0.313-0.311s0.313,0.139,0.313,0.311
				c0,0.004-0.006,0.008-0.006,0.014c0.19-0.033,0.368-0.098,0.552-0.148l-1.265-3.861L42.829,29.77z"/>
			<path fill="#FFFFFF" d="M43.152,29.67c-0.061,0.031-0.123,0.053-0.188,0.074l0.473,1.154l0.83,3.979
				c0.185-0.049,0.375-0.084,0.553-0.148c-0.003-0.004-0.009-0.004-0.012-0.008c-0.086-0.15-0.033-0.34,0.116-0.426
				c0.15-0.086,0.34-0.035,0.426,0.113c0.018,0.031,0.006,0.064,0.013,0.098c0.17-0.08,0.324-0.186,0.486-0.279l-2.217-3.406
				L43.152,29.67z"/>
		</g>
	</g>
</g>
<g display="none">
	<rect x="-0.04" y="0.154" display="inline" fill="#04ABC9" width="85.039" height="56.692"/>
	<rect x="-0.04" y="18.44" display="inline" fill="#FAE044" width="85.039" height="20.121"/>
	<polygon display="inline" fill="#010101" points="47.356,28.5 -0.04,56.846 -0.04,0.153 	"/>
</g>
<g display="none">
	<rect x="-0.02" y="0.155" display="inline" fill="#FFFFFF" width="85.039" height="56.691"/>
	<polygon display="inline" fill="#2166B1" points="85.02,21.155 37.342,21.155 37.342,0.155 22.652,0.155 22.652,21.155 
		-0.02,21.155 -0.02,36.129 22.652,36.129 22.652,56.846 37.342,56.846 37.342,36.129 85.02,36.129 	"/>
	<polygon display="inline" fill="#ED2C3A" points="33.656,0.155 26.338,0.155 26.338,24.84 -0.02,24.84 -0.02,32.443 26.338,32.443 
		26.338,56.846 33.656,56.846 33.656,32.443 85.02,32.443 85.02,24.84 33.656,24.84 	"/>
</g>
<g display="none">
	<rect x="0.102" y="0.154" display="inline" fill="#FFFFFF" width="85.039" height="56.691"/>
	<polygon display="inline" fill="#233C7B" points="85.141,20.539 40.898,20.539 40.898,0.154 25.689,0.154 25.689,20.539 
		0.102,20.539 0.102,36.463 25.689,36.463 25.689,56.846 40.898,56.846 40.898,36.463 85.141,36.463 	"/>
</g>
<g display="none">
	<rect x="42.234" y="0.153" display="inline" fill="#FFFFFF" width="42.785" height="56.693"/>
	<rect x="-0.02" y="0.153" display="inline" fill="#036334" width="42.254" height="56.693"/>
	<polygon display="inline" fill="#D31F36" points="50.365,21.887 50.452,26.864 55.378,28.437 50.45,30.085 50.507,35.011 
		47.423,31.109 42.647,32.5 45.544,28.518 42.519,24.33 47.444,25.903 	"/>
	<path display="inline" fill="#D31F36" d="M46.272,39.92c-6.336,0-11.471-5.136-11.471-11.471c0-6.336,5.135-11.471,11.471-11.471
		c2.703,0,5.185,0.941,7.146,2.507c-2.594-3.134-6.515-5.131-10.9-5.131c-7.813,0-14.146,6.333-14.146,14.146
		c0,7.813,6.333,14.146,14.146,14.146c4.501,0,8.502-2.108,11.093-5.385C51.621,38.92,49.063,39.92,46.272,39.92z"/>
</g>
<g display="none">
	<g display="inline">
		<rect x="0.064" y="28.502" fill="#D72027" width="85.037" height="28.344"/>
		<rect x="0.064" y="0.154" fill="#FFFFFF" width="85.037" height="28.348"/>
		<polygon fill="#16467D" points="47.461,28.502 0.064,56.846 0.064,0.154 		"/>
	</g>
</g>
<g display="none">
	<g display="inline">
		<rect x="-0.019" y="0.153" fill="#098843" width="28.346" height="56.693"/>
		<rect x="28.327" y="0.153" fill="#F9EA43" width="28.347" height="56.693"/>
		<rect x="56.674" y="0.153" fill="#E01F26" width="28.346" height="56.693"/>
	</g>
	<polygon display="inline" fill="#098843" points="42.479,19.114 44.531,25.173 51.172,25.173 45.785,29.116 47.779,35.122 
		42.482,31.552 37.183,35.122 39.171,29.116 33.829,25.173 40.474,25.173 	"/>
</g>
<g display="none">
	<rect x="-0.02" y="19.053" display="inline" fill="#FFFFFF" width="85.038" height="18.896"/>
	<rect x="-0.02" y="37.949" display="inline" fill="#0B8D45" width="85.038" height="18.896"/>
	<rect x="-0.02" y="0.154" display="inline" fill="#E41E26" width="85.038" height="18.898"/>
</g>
<g display="none">
	<g display="inline">
		<rect x="-0.02" y="19.052" fill="#FFFFFF" width="85.04" height="18.899"/>
		<rect x="-0.02" y="37.951" fill="#010101" width="85.04" height="18.896"/>
		<rect x="-0.02" y="0.154" fill="#DD1E34" width="85.04" height="18.898"/>
	</g>
	<g display="inline">
		<g>
			<polygon fill="#038442" points="32.42,22.875 33.704,26.666 37.857,26.666 34.489,29.131 35.735,32.889 32.421,30.656 
				29.106,32.889 30.351,29.131 27.009,26.666 31.166,26.666 			"/>
		</g>
	</g>
	<g display="inline">
		<g>
			<polygon fill="#038442" points="52.553,22.875 53.836,26.666 57.99,26.666 54.621,29.131 55.867,32.889 52.555,30.656 
				49.238,32.889 50.484,29.131 47.143,26.666 51.299,26.666 			"/>
		</g>
	</g>
</g>
<g>
	<rect x="-0.019" y="0.154" fill="#2381C4" width="85.038" height="28.346"/>
	<rect x="-0.019" y="28.5" fill="#FFD107" width="85.038" height="28.346"/>
</g>
</svg>
