<svg xmlns="http://www.w3.org/2000/svg" width="85" height="57" viewBox="0 0 85 57"><path fill="#FFF" d="M31.272 33.057l1.428 2.978 2.722-1.867-.254 3.293 3.293-.253-1.866 2.725 2.98 1.427-2.98 1.423 1.867 2.725-3.292-.252.254 3.29-2.722-1.864-1.428 2.978-1.428-2.978-2.722 1.865.253-3.29-3.292.25 1.865-2.724-2.977-1.424 2.978-1.428-1.865-2.725 3.292.254-.253-3.292 2.722 1.867m9.087-17.727c-.572 1.788-1.818 3.28-3.44 4.26l-.757-.584 1.27-.948-1.53-.413.81-1.364-1.572.203.227-1.568-1.375.79-.39-1.537-.968 1.257-.952-1.27-.412 1.53-1.363-.81.205 1.572-1.574-.227.79 1.375-1.534.39 1.256.97-.797.595c-1.59-.98-2.81-2.456-3.376-4.22l-.006.126c0 4.28 3.47 7.748 7.746 7.748 4.28 0 7.748-3.47 7.748-7.748l-.008-.128zm-38.954-18.308h85.04v56.693h-85.04z"/><path fill="#1D439B" d="M-.02 31.484h85.04v6.28h-85.04zm0 12.566h85.04v6.28h-85.04zm31.544-25.166h53.496v6.28h-53.497zm0-12.554h53.496v6.282h-53.497z"/><path fill="#010101" d="M24.29 18.044c-.675-.162-1.504-.363-2.578-1.228l6.373-1.07-6.673-1.12c1.237-.506 1.958-1.252 2.57-1.89.54-.562.978-1.005 1.6-1.164.48-.123 1.254-.01 1.254-.01s-.76-.45-1.196-.575c-1.023-.296-1.54.005-2.203.403-.606.365-1.357.812-2.78.938l3.803-5.336-5.556 3.957c.56-1.28.54-2.35.518-3.263-.018-.777-.024-1.4.3-1.952.254-.43.88-.897.88-.897s-.855.223-1.252.443c-.932.52-1.082 1.097-1.267 1.85-.17.687-.383 1.537-1.302 2.64l-1.074-6.404-1.128 6.716c-.513-1.253-1.27-1.975-1.918-2.59-.564-.535-1.01-.97-1.173-1.59-.126-.48-.018-1.255-.018-1.255s-.445.764-.568 1.2c-.29 1.025.015 1.54.417 2.2.363.6.81 1.338.95 2.734l-5.319-3.788 3.997 5.61c-1.303-.572-2.386-.544-3.308-.517-.778.022-1.4.033-1.954-.29-.43-.25-.903-.87-.903-.87s.228.853.45 1.248c.523.928 1.104 1.074 1.856 1.255.68.163 1.517.366 2.603 1.247l-6.368 1.07 6.62 1.11c-1.224.506-1.938 1.246-2.55 1.88-.538.563-.974 1.006-1.595 1.165-.482.123-1.256.01-1.256.01s.76.45 1.197.575c1.024.296 1.54-.005 2.204-.404.613-.367 1.373-.82 2.825-.94l-3.818 5.358 5.5-3.918c-.534 1.254-.512 2.306-.49 3.203.018.777.023 1.4-.302 1.95-.252.43-.878.9-.878.9s.854-.224 1.252-.444c.932-.517 1.08-1.095 1.267-1.847.17-.694.385-1.552 1.322-2.667l1.083 6.45 1.122-6.68c.512 1.22 1.256 1.928 1.895 2.533.563.535 1.01.97 1.172 1.59.127.48.018 1.255.018 1.255s.445-.764.568-1.2c.29-1.026-.015-1.54-.418-2.2-.364-.6-.81-1.34-.95-2.736l5.348 3.81-4.003-5.62c1.293.563 2.368.533 3.284.507.778-.022 1.4-.033 1.955.29.43.25.902.87.902.87s-.228-.853-.45-1.248c-.524-.93-1.103-1.075-1.856-1.256z"/><path fill="#FBD118" d="M8.136 13.016c1.25.197 2.652.424 3.75 1.292l-1.93.325c-1.186-1.004-2.09-1.223-2.82-1.397-.697-.167-1.217-.292-1.676-1.068.623.52 1.597.677 2.676.848zm3.673 2.83h-6.689l6.895 1.158c-.124-.365-.197-.754-.206-1.158zm.205-1.358l-6.894 1.158h6.69c.008-.404.08-.793.205-1.158zm1.97-2.24l-5.694-4.06 4.73 4.733c.286-.27.61-.497.965-.672zm-1.105.815l-4.731-4.733 4.058 5.696c.176-.355.404-.68.674-.963zm-.787 1.15v-.003l-.908-1.274c-1.41-.71-2.566-.68-3.54-.65-.824.023-1.564.043-2.212-.423.568.612 1.59.775 2.734.956 1.305.205 2.774.44 3.926 1.393zm-.292 2.957l-1.465-.247c-1.385.49-2.15 1.28-2.795 1.952-.572.596-1.087 1.13-1.876 1.25.835.038 1.678-.562 2.622-1.233 1.012-.722 2.145-1.525 3.515-1.722zm1.092 6.125c-.178 1.078-.338 2.05-.864 2.67.778-.453.906-.973 1.078-1.67.183-.74.414-1.665 1.474-2.875l-.324-1.926c-.915 1.102-1.155 2.53-1.364 3.8zm-.197-.032c.208-1.26.443-2.674 1.328-3.8l-1.244.885c-.666 1.36-.644 2.484-.622 3.433.02.827.034 1.566-.437 2.21.62-.563.787-1.584.975-2.727zm-.49-5.798l-4.055 5.697 4.732-4.732c-.27-.284-.498-.61-.674-.965zm-.155-.122c-1.422.13-2.602.965-3.648 1.71-.89.635-1.693 1.206-2.504 1.27.87.232 1.33-.042 1.944-.412.655-.392 1.474-.88 3.078-.98l1.13-1.587zm.97 1.227l-4.73 4.732 5.695-4.058c-.355-.176-.68-.403-.964-.674zm6.356-4.443c1.402-.145 2.567-.97 3.604-1.708.89-.635 1.693-1.207 2.504-1.27-.87-.232-1.33.042-1.945.41-.65.39-1.46.873-3.033.98l-1.13 1.587zm-.173-.1l4.06-5.697-4.733 4.732c.27.284.498.61.673.964zm.4 1.62h6.69l-6.898-1.16c.125.366.197.755.207 1.16zm-.07-1.337l1.486.25c1.4-.488 2.17-1.286 2.82-1.962.572-.596 1.086-1.13 1.875-1.25-.835-.04-1.678.56-2.62 1.233-1.024.73-2.17 1.543-3.56 1.73zm-7.05-3.376l1.592 1.133c-.16-1.39-.986-2.543-1.726-3.568-.64-.887-1.218-1.687-1.286-2.497-.227.873.05 1.33.424 1.942.39.64.873 1.44.995 2.99zm5.906 1.988l4.73-4.732-5.695 4.058c.355.175.68.402.964.674zm-2.585-7.762v6.69c.404.01.793.08 1.158.205l-1.157-6.895zm-.2 6.69v-6.69l-1.158 6.896c.366-.124.754-.197 1.158-.206zm2.883-3.672c.178-1.078.34-2.05.865-2.67-.778.453-.907.972-1.08 1.67-.18.735-.41 1.652-1.45 2.85l.324 1.924c.896-1.098 1.134-2.514 1.34-3.774zm.197.032c-.213 1.295-.455 2.75-1.4 3.893l1.286-.916c.698-1.388.675-2.53.652-3.494-.02-.826-.033-1.566.437-2.21-.618.563-.787 1.583-.975 2.727zm-4.42 3.738l.247-1.476c-.496-1.416-1.306-2.188-1.99-2.837-.6-.57-1.135-1.08-1.26-1.868-.034.836.57 1.675 1.25 2.614.737 1.024 1.56 2.172 1.752 3.568zm1.44 7.498c-2.04 0-3.7-1.66-3.7-3.7s1.66-3.7 3.7-3.7 3.7 1.66 3.7 3.7-1.66 3.7-3.7 3.7zm.426-4.985c.87-.633 1.256-.61 2.298-.078.063-.087-.028-.2-.216-.334-.267-.19-.805-.405-.97-.405-.37 0-1.186.6-1.11.818zm-1.005 1.55c-.205.092-.287.24-.276.37h-.002s-.51.253-.613.496c.402-.274.68-.29.754-.288.092.052.228.063.396.006.055.12.177.207.32.207s.264-.085.318-.206c.168.057.305.046.397-.006.075-.002.352.013.755.288-.104-.243-.613-.497-.613-.497h-.002c.012-.13-.07-.278-.275-.37.336.4-.07.623-.24.355l-.01.04c-.14.316-.524.314-.66 0l-.01-.04c-.17.268-.576.044-.24-.354zm-2.143-1.628c1.042-.532 1.427-.555 2.297.08.074-.22-.74-.82-1.112-.82-.165 0-.703.216-.97.406-.186.134-.277.247-.216.334zm.555.644l-.325-.16c.816.76 1.554.433 1.762.058-.107-.084-.22.016-.404.108.04-.065.064-.142.064-.224 0-.105-.04-.2-.104-.276.23.067.43.2.56.392-.182-.857-1.59-.766-2.018.023.113-.112.237-.2.365-.272.004.09.026.232.1.35zm.46 2.163c-.152.138-.258.302-.303.42-.026.07.085.124.11.027.036-.14.097-.292.194-.448zm2.127 1.318s-.214-.157-.42-.157l-.418.158h.838zm1.132-1.006c-.93-.42-.995-.41-1.55-.273-.557-.138-.62-.147-1.552.272 0 0 .698.582 1.55.582l1.552-.582zm.46.108c-.045-.118-.15-.282-.304-.42.097.154.158.308.194.447.025.097.136.044.11-.027zm.482-2.745l-.325.16c.074-.118.096-.26.1-.35.13.07.253.16.366.27-.428-.788-1.837-.88-2.02-.022.132-.19.33-.324.56-.392-.062.076-.103.172-.103.277 0 .082.024.158.064.224-.183-.092-.296-.19-.403-.107.208.376.945.702 1.76-.058zm-3.036 2.622c-.403 0-.69.06-.69.06s.436.24 1.233.24l1.232-.24s-.275-.06-.684-.06l-.55.028-.54-.028zm.443 8.845v-6.69c-.404-.01-.793-.08-1.158-.206l1.158 6.896zm3.29-5.795l-1.593-1.135c.16 1.392.987 2.546 1.73 3.572.64.885 1.215 1.686 1.284 2.496.227-.873-.052-1.33-.425-1.942-.39-.64-.87-1.44-.994-2.99zm-1.393-6.033c.08.077.13.186.13.305 0 .133-.063.25-.16.33l.16-.032c.222-.09.243-.384.243-.482-.122-.06-.248-.1-.373-.122zm-1.697 5.14v6.688l1.158-6.896c-.365.125-.754.197-1.158.207zm1.328-.017l-.24 1.438c.496 1.376 1.292 2.133 1.966 2.772.6.568 1.134 1.08 1.26 1.867.034-.835-.57-1.674-1.25-2.613-.72-.996-1.52-2.112-1.737-3.463zm8.788-.32c-.458-.777-.978-.902-1.676-1.07-.725-.173-1.622-.39-2.794-1.376l-1.93.325c1.095.85 2.484 1.076 3.724 1.272 1.08.17 2.054.326 2.677.85zm-6.603-2.026l.903 1.27c1.398.696 2.548.666 3.514.638.826-.023 1.565-.044 2.213.423-.567-.612-1.59-.774-2.733-.955-1.295-.206-2.75-.438-3.897-1.374zm.078-.276l6.897-1.158h-6.69c-.01.404-.082.793-.207 1.158zm-1.97 2.24l5.696 4.06-4.73-4.733c-.286.27-.61.498-.965.674zm-3.646-4.137l.158.03c-.097-.077-.16-.195-.16-.33 0-.118.05-.227.13-.304-.125.022-.25.063-.373.12 0 .1.022.395.244.484zm4.75 3.323l4.73 4.73-4.058-5.695c-.174.355-.402.68-.673.965z"/></svg>