<svg xmlns="http://www.w3.org/2000/svg" width="85" height="57" viewBox="0 0 85 57"><path d="M7.167 4.79l.468.948 1.047.153-.757.738.177 1.042-.935-.49-.936.49.18-1.042-.76-.737 1.049-.152m7.6-.95l.468.948 1.047.153-.758.738.178 1.042-.936-.49-.936.49.178-1.042-.758-.737 1.047-.152m7.602-.95l.467.948 1.046.153-.756.738.178 1.042-.936-.49-.937.49.178-1.042-.756-.737 1.046-.152m7.601-.95l.47.948 1.046.153-.76.738.18 1.042-.937-.49-.936.49.18-1.042-.76-.737 1.05-.152m7.6-.95l.47.948 1.044.153-.756.738.177 1.042-.934-.49-.936.49.178-1.042-.757-.737 1.05-.152m-28.065 5.196l.468.948 1.047.153-.757.738.177 1.042-.935-.49-.936.49.18-1.042-.76-.738 1.048-.153m7.601-.948l.468.948 1.047.153-.758.738.178 1.042-.936-.49-.936.49.178-1.042-.758-.738 1.047-.153m7.602-.948l.467.948 1.046.153-.756.738.178 1.042-.936-.49-.937.49.178-1.042-.756-.738 1.046-.153m7.601-.948l.47.948 1.046.153-.76.738.18 1.042-.937-.49-.936.49.18-1.042-.76-.738 1.05-.153m7.6-.948l.47.948 1.044.153-.756.738.177 1.042-.934-.49-.936.49.178-1.042-.757-.738 1.05-.153m-28.065 5.198l.468.948 1.047.152-.757.74.177 1.04-.935-.49-.936.49.18-1.04-.76-.74 1.049-.152m7.6-.948l.468.948 1.047.152-.758.74.178 1.04-.936-.49-.936.49.178-1.04-.758-.74 1.047-.152m7.602-.948l.467.948 1.046.152-.756.74.178 1.04-.936-.49-.937.49.178-1.04-.756-.74 1.046-.152m7.601-.948l.47.948 1.046.152-.76.74.18 1.04-.937-.49-.936.49.18-1.04-.76-.74 1.05-.152m7.6-.948l.47.948 1.044.152-.756.74.177 1.04-.934-.49-.936.49.178-1.04-.757-.74 1.05-.152m-28.065 5.198l.468.95 1.047.152-.757.737.177 1.042-.935-.49-.936.49.18-1.043-.76-.737 1.048-.153m7.601-.948l.468.95 1.047.152-.758.737.178 1.042-.936-.49-.936.49.178-1.043-.758-.737 1.047-.153m7.602-.948l.467.95 1.046.152-.756.737.178 1.042-.936-.49-.937.49.178-1.043-.756-.737 1.046-.153m7.601-.948l.47.95 1.046.152-.76.737.18 1.042-.937-.49-.936.49.18-1.043-.76-.737 1.05-.153m7.6-.948l.47.95 1.044.152-.756.737.177 1.042-.934-.49-.936.49.178-1.043-.757-.737 1.05-.153" fill="#FFF"/><path fill="#FFF" d="M-.13.154h85.26v56.692h-85.26z"/><path fill="#34479E" d="M-.13.154h43.125v30.592h-43.125z"/><path d="M42.994.154h42.136v4.49h-42.135zm0 8.7h42.136v4.49h-42.135zm0 8.7h42.136v4.49h-42.135zm0 8.699h42.136v4.493h-42.135zm-43.124 8.702h85.26v4.492h-85.26zm0 8.701h85.26v4.49h-85.26zm0 8.699h85.26v4.49h-85.26z" fill="#EA1D25"/><path d="M4.172 3.58l1.028-.748h-1.27l-.39-1.208-.393 1.208h-1.27l1.028.746-.393 1.205 1.028-.743 1.025.745m6.751-1.205l1.026-.747h-1.268l-.392-1.208-.392 1.208h-1.27l1.027.746-.392 1.205 1.027-.745 1.026.745m6.752-1.204l1.026-.747h-1.27l-.39-1.208-.393 1.208h-1.268l1.026.746-.39 1.205 1.025-.745 1.027.745m6.749-1.204l1.027-.747h-1.27l-.392-1.208-.39 1.208h-1.27l1.026.746-.392 1.205 1.026-.745 1.027.745m6.753-1.204l1.025-.747h-1.268l-.392-1.208-.393 1.208h-1.269l1.025.746-.392 1.205 1.027-.745 1.026.745m6.754-1.204l1.026-.747h-1.27l-.392-1.208-.39 1.208h-1.27l1.027.746-.39 1.205 1.024-.745 1.028.745m-32.538 1.856l1.026-.746h-1.268l-.393-1.207-.392 1.207h-1.268l1.026.745-.392 1.206 1.026-.745 1.027.746m6.75-1.206l1.028-.746h-1.27l-.392-1.207-.39 1.207h-1.27l1.027.745-.393 1.206 1.026-.746 1.027.746m6.752-1.205l1.025-.746h-1.267l-.393-1.207-.393 1.207h-1.267l1.025.745-.39 1.206 1.025-.746 1.026.746m6.751-1.205l1.027-.746h-1.268l-.392-1.207-.392 1.207h-1.27l1.028.745-.392 1.206 1.025-.745 1.027.746m6.751-1.206l1.026-.746h-1.268l-.392-1.207-.392 1.207h-1.27l1.027.745-.393 1.206 1.027-.746 1.025.746m-32.536 1.857l1.028-.746h-1.27l-.39-1.206-.393 1.206h-1.27l1.028.746-.393 1.206 1.027-.745 1.025.745m6.752-1.206l1.026-.746h-1.268l-.392-1.207-.392 1.206h-1.27l1.027.746-.392 1.206 1.027-.745 1.026.745m6.752-1.205l1.026-.746h-1.27l-.39-1.207-.393 1.206h-1.268l1.026.746-.39 1.206 1.025-.745 1.027.745m6.749-1.205l1.027-.746h-1.27l-.392-1.207-.39 1.206h-1.27l1.026.746-.392 1.206 1.026-.745 1.027.745m6.753-1.205l1.025-.746h-1.268l-.392-1.207-.393 1.206h-1.269l1.025.746-.392 1.206 1.027-.745 1.026.745m6.754-1.205l1.026-.746h-1.27l-.392-1.207-.39 1.206h-1.27l1.027.746-.39 1.206 1.024-.745 1.028.745m-32.538 1.855l1.026-.745h-1.268l-.393-1.207-.392 1.207h-1.268l1.026.745-.392 1.207 1.026-.747 1.027.746m6.75-1.206l1.028-.745h-1.27l-.392-1.207-.39 1.207h-1.27l1.027.745-.393 1.207 1.026-.747 1.027.746m6.752-1.206l1.025-.745h-1.267l-.393-1.207-.393 1.207h-1.267l1.025.745-.39 1.207 1.025-.747 1.026.746m6.751-1.206l1.027-.745h-1.268l-.392-1.207-.392 1.207h-1.27l1.028.745-.392 1.207 1.026-.747 1.027.746m6.75-1.206l1.026-.745h-1.268l-.392-1.207-.392 1.207h-1.27l1.027.745-.393 1.207 1.027-.747 1.025.746m-32.536 1.857l1.028-.745h-1.27l-.39-1.208-.393 1.207h-1.27l1.028.745-.393 1.206 1.027-.744 1.025.745m6.752-1.206l1.026-.746h-1.268l-.392-1.208-.392 1.207h-1.27l1.027.745-.392 1.206 1.027-.744 1.026.745m6.752-1.205l1.026-.746h-1.27l-.39-1.208-.393 1.207h-1.268l1.026.745-.39 1.206 1.025-.744 1.027.745m6.749-1.205l1.027-.746h-1.27l-.392-1.208-.39 1.207h-1.27l1.026.745-.392 1.206 1.026-.744 1.027.745m6.753-1.205l1.025-.746h-1.268l-.392-1.208-.393 1.207h-1.269l1.025.745-.392 1.206 1.027-.744 1.026.745m6.754-1.205l1.026-.746h-1.27l-.392-1.208-.39 1.207h-1.27l1.027.745-.39 1.206 1.024-.744 1.028.745m-32.538 1.855l1.026-.745h-1.268l-.392-1.207-.392 1.207h-1.269l1.026.745-.392 1.207 1.026-.746 1.027.746m6.75-1.207l1.028-.745h-1.27l-.392-1.207-.39 1.207h-1.27l1.027.745-.393 1.207 1.026-.746 1.027.746m6.752-1.207l1.025-.745h-1.267l-.393-1.207-.393 1.207h-1.267l1.025.745-.39 1.207 1.025-.746 1.026.746m6.751-1.207l1.027-.745h-1.268l-.392-1.207-.392 1.207h-1.27l1.028.745-.392 1.207 1.026-.746 1.027.746m6.75-1.207l1.026-.745h-1.268l-.392-1.207-.392 1.207h-1.27l1.027.745-.393 1.207 1.027-.746 1.025.746m-32.536 1.856l1.028-.746h-1.27l-.39-1.207-.393 1.207h-1.27l1.028.746-.393 1.206 1.027-.745 1.025.744m6.752-1.205l1.026-.746h-1.268l-.392-1.207-.392 1.207h-1.27l1.027.746-.392 1.206 1.027-.745 1.026.744m6.752-1.205l1.026-.746h-1.27l-.39-1.207-.393 1.207h-1.268l1.026.746-.39 1.206 1.025-.745 1.027.744m6.749-1.205l1.027-.746h-1.27l-.392-1.207-.39 1.207h-1.27l1.026.746-.392 1.206 1.026-.745 1.027.744m6.753-1.205l1.025-.746h-1.268l-.392-1.207-.393 1.207h-1.269l1.025.746-.392 1.206 1.027-.745 1.026.744m6.754-1.205l1.026-.746h-1.27l-.392-1.207-.39 1.207h-1.27l1.027.746-.39 1.206 1.024-.745 1.028.744m-32.538 1.855l1.026-.745h-1.268l-.392-1.207-.392 1.207h-1.269l1.026.745-.392 1.207 1.026-.746 1.027.745m6.75-1.206l1.028-.745h-1.27l-.392-1.207-.39 1.207h-1.27l1.027.745-.393 1.207 1.026-.746 1.027.745m6.752-1.206l1.025-.745h-1.267l-.393-1.207-.393 1.207h-1.267l1.025.745-.39 1.207 1.025-.746 1.026.745m6.751-1.206l1.027-.745h-1.268l-.392-1.207-.392 1.207h-1.27l1.028.745-.392 1.207 1.026-.746 1.027.745m6.75-1.206l1.026-.745h-1.268l-.392-1.207-.392 1.207h-1.27l1.027.745-.393 1.207 1.027-.746 1.025.745m-32.536 1.856l1.028-.745h-1.27l-.39-1.207-.393 1.207h-1.27l1.028.746-.393 1.207 1.027-.745 1.025.745m6.752-1.208l1.026-.745h-1.268l-.392-1.207-.392 1.207h-1.27l1.027.746-.392 1.207 1.027-.745 1.026.745m6.752-1.208l1.026-.745h-1.27l-.39-1.207-.393 1.207h-1.268l1.026.746-.39 1.207 1.025-.745 1.027.745m6.749-1.208l1.027-.745h-1.27l-.392-1.207-.39 1.207h-1.27l1.026.746-.392 1.207 1.026-.745 1.027.745m6.753-1.208l1.025-.745h-1.268l-.392-1.207-.393 1.207h-1.269l1.025.746-.392 1.207 1.027-.745 1.026.745m6.754-1.208l1.026-.745h-1.27l-.392-1.207-.39 1.207h-1.27l1.027.746-.39 1.207 1.024-.745 1.028.745" fill="#FFF"/></svg>