<svg xmlns="http://www.w3.org/2000/svg" width="85" height="57" viewBox="0 0 85 57"><path fill="#0399B5" d="M-.008.153h85.016v18.18h-85.016z"/><path fill="#2AB34B" d="M-.008 38.666h85.016v18.18h-85.016z"/><path fill="#CE2028" d="M-.008 18.334h85.016v1.084h-85.016zm0 19.248h85.016v1.084h-85.016z"/><path fill="#FFF" d="M-.008 19.418h85.016v18.164h-85.016zm19.955-6.098l.32.95h1.042l-.847.618.31.942-.83-.56-.832.556.316-.94-.836-.62 1.04.002m5.788-.948l.318.95h1.04l-.842.618.308.942-.83-.56-.83.556.314-.94-.835-.62 1.042.002m5.784-.948l.32.95h1.04l-.845.618.31.942-.83-.56-.83.556.313-.94-.836-.62 1.04.002m5.788-.948l.32.95h1.042l-.847.618.31.942-.83-.56-.832.556.316-.94-.836-.62 1.04.002m5.788-.948l.318.95h1.042l-.844.618.308.942-.83-.56-.83.556.315-.94-.838-.62 1.04.002m-16.091-6.28l.318.95 1.04.003-.842.617.308.942-.83-.562-.83.557.314-.94-.835-.62 1.042.003m5.784-.95l.32.95 1.04.003-.845.617.31.942-.83-.562-.83.557.313-.94-.836-.62 1.04.003m5.788-.95l.32.95 1.042.003-.847.617.31.942-.83-.562-.832.557.316-.94-.836-.62 1.04.003m5.788-.95l.318.95 1.042.003-.844.617.308.942-.83-.562-.83.557.315-.94-.838-.62 1.04.003m-10.622-6.595l.32.95 1.04.003-.845.616.31.942-.83-.56-.83.557.313-.94-.836-.62 1.04.003m5.788-.951l.32.95 1.042.003-.847.616.31.942-.83-.56-.832.557.316-.94-.836-.621 1.04.003m5.788-.95l.318.95 1.042.003-.844.616.308.942-.83-.56-.83.557.315-.94-.838-.62 1.04.003m-30.161 5.951c0-3.444 2.523-6.29 5.82-6.81-.352-.055-.71-.093-1.078-.093-3.813 0-6.902 3.09-6.902 6.902 0 3.81 3.09 6.9 6.902 6.9.367 0 .727-.038 1.078-.095-3.297-.518-5.82-3.363-5.82-6.805z"/></svg>